v -0.4387550386686255 0.00917464367998827 0.47965829970270435
v -0.36600714691566105 0.06790347112160057 0.49899218173372895
v -0.2858376777332427 0.11775694588370426 0.5040868341166616
v -0.19620509781713766 0.15421468594210325 0.5090885645834193
v -0.09851010482652311 0.1750123985315025 0.5085037009979664
v -0.009624975589146042 0.17488806129440954 0.5139223503591769
v 0.08355944289781173 0.15691710665022637 0.516977365843258
v 0.16307919321016423 0.12698508073290182 0.5138584721238331
v 0.24612460308674403 0.07884287545293256 0.5074040949063183
v 0.3247350960091352 0.018471263857415408 0.4967914443346716
v -0.4603194481906619 0.015439334889224216 0.36309831025008127
v -0.3819583979175539 0.08121588070160424 0.37214396132256
v -0.2961377060684658 0.13446375808717587 0.37824680506695463
v -0.19630255757058532 0.1753211319796294 0.38232065446525876
v -0.09878960214108418 0.19479938235411343 0.38942151697133404
v 0.0035417286734649033 0.19449385929386628 0.39663698749895315
v 0.09877302254496137 0.1756808544162193 0.40213681544083185
v 0.18856333348503093 0.13983383024355137 0.40817361201962926
v 0.2732565175223435 0.08879778532830043 0.408869396241027
v 0.35160720567264675 0.024470207850526546 0.41109516930681195
v -0.47204548959376025 0.01932270795058864 0.2425358828030238
v -0.395376959155673 0.08448594025857507 0.24437405752352412
v -0.29968227381515383 0.14405338158022513 0.24906598681802783
v -0.20038641985673858 0.18444300748766965 0.2560050350945286
v -0.09257950564074104 0.20584106549543899 0.26558525600372296
v 0.016320704681590845 0.20592156706618522 0.26870615227272765
v 0.11867537328297556 0.1848925159300681 0.2820764364950838
v 0.2104657623270148 0.14718618206837705 0.2957538024943943
v 0.2940812862491155 0.09501983522016501 0.3061919996315233
v 0.37521401952758093 0.025586887755948407 0.32099054515478537
v -0.48163958658904876 0.010380799152887064 0.12466235538658049
v -0.39607217076256046 0.08307048529967108 0.12118178488649382
v -0.3032860575222924 0.1407911281192746 0.12118164268605708
v -0.19860543269357026 0.1834232335548267 0.1322020486280733
v -0.08332908184448617 0.2062597846908774 0.13846555845252206
v 0.030276349418148295 0.20630918281454222 0.15241740072353321
v 0.13111923200842734 0.18561798482048514 0.164600871539326
v 0.22999395585651458 0.14476851695964119 0.18409617725332764
v 0.3222192059262296 0.08660098194584644 0.2029661604010922
v 0.39869168332181615 0.020161094198474876 0.2237999289899026
v -0.48701030309405424 -0.009274067145285161 0.012107547148631019
v -0.3926627840768256 0.07026629618881972 0.0037265358043891794
v -0.2968459179425028 0.12964467824522669 0.001935050991798254
v -0.18705543073210282 0.1723693416606619 -0.003825290839411444
v -0.07243779868047087 0.19581657993466553 0.009994059838589371
v 0.03603516410490945 0.19595757512714096 0.024481290549880505
v 0.14655261860941082 0.17356596359039023 0.041826232303184725
v 0.24726409636228544 0.13201666740742482 0.06299156401305311
v 0.340851485866979 0.07317659996870245 0.09464649543560275
v 0.4245365269351534 0.0005119127094377224 0.11574136375019695
v -0.4829720094221776 -0.03506084382954834 -0.10913187737905787
v -0.3876530449457537 0.04533140020098031 -0.11746295085733768
v -0.2867233238601183 0.1063872272165896 -0.1257894300998313
v -0.17974878590612345 0.14941910438345862 -0.12484032356573431
v -0.06278113968062865 0.17079075612820144 -0.12348488730664216
v 0.04691586911111712 0.17071902494125588 -0.10998776634246457
v 0.16277156083045177 0.14818772973228864 -0.08623663188041833
v 0.26450912703752355 0.10760073454547299 -0.055107181324505636
v 0.35858859925351877 0.047857997168559194 -0.028702702350340337
v 0.44711150683105 -0.027726721693703014 0.010118724653036272
v -0.4790299573725132 -0.06927345646864402 -0.21900025670481693
v -0.38125314957693796 0.008868966414198777 -0.24015884094711049
v -0.28191620363712727 0.06864349667908254 -0.24931648231077905
v -0.1685592191307043 0.11244252429726267 -0.2539174773691362
v -0.055792384627386865 0.13466501898601924 -0.24725192176719804
v 0.06145834576719723 0.135774940982016 -0.22873135945571668
v 0.1766684102282348 0.11333132273617394 -0.2052561195831667
v 0.2790896154400444 0.06974145352696277 -0.18539888254221434
v 0.3803646309809173 0.006652893504513798 -0.15122589701700137
v 0.4626690331967563 -0.06269478101373742 -0.10971463798865334
v -0.46956450652689175 -0.11248217803733747 -0.3288694395345912
v -0.37115487413344933 -0.03566029399867618 -0.3540432074544877
v -0.2633744087514732 0.027519349976646276 -0.36771931044176026
v -0.15864037511640916 0.06741379913870767 -0.3733659352296051
v -0.046405450201011125 0.08743294373588648 -0.3720931927113388
v 0.07557447331422333 0.0861370830518001 -0.3593674110141421
v 0.17924533657594535 0.06692333008353252 -0.3354473041212757
v 0.29479575059424834 0.016588389711967785 -0.3163827811272322
v 0.3898596448205541 -0.039163199427363043 -0.27340837249482025
v 0.4842591317555385 -0.12112067945911112 -0.23391820912298808
v -0.44719041124303305 -0.15085203408168513 -0.43094592570878293
v -0.3520062987316922 -0.07944477819380301 -0.4602932405051046
v -0.2525440052611324 -0.027129476367778394 -0.4842158069862896
v -0.1459917856678486 0.015058079774337872 -0.486803936978448
v -0.0321392456355727 0.029305586412652528 -0.4981167680309263
v 0.079623901665224 0.026015734612767315 -0.4910811716373569
v 0.18798543722572558 0.0043503689644033075 -0.4696139309534524
v 0.30021147821642813 -0.04211522488722322 -0.44551064788444206
v 0.4033809837703737 -0.1037506664600319 -0.40155010952229475
v 0.5012578330320646 -0.18538631435190767 -0.35214703024301125
f 1 2 12 11
f 3 13 12 2
f 3 4 14 13
f 14 4 5 15
f 6 16 15 5
f 16 6 7 17
f 7 8 18 17
f 19 18 8 9
f 19 9 10 20
f 22 21 11 12
f 12 13 23 22
f 13 14 24 23
f 24 14 15 25
f 26 25 15 16
f 16 17 27 26
f 28 27 17 18
f 28 18 19 29
f 19 20 30 29
f 32 31 21 22
f 22 23 33 32
f 24 34 33 23
f 24 25 35 34
f 35 25 26 36
f 27 37 36 26
f 38 37 27 28
f 29 39 38 28
f 30 40 39 29
f 41 31 32 42
f 32 33 43 42
f 34 44 43 33
f 34 35 45 44
f 45 35 36 46
f 47 46 36 37
f 37 38 48 47
f 48 38 39 49
f 49 39 40 50
f 41 42 52 51
f 42 43 53 52
f 43 44 54 53
f 44 45 55 54
f 45 46 56 55
f 57 56 46 47
f 47 48 58 57
f 48 49 59 58
f 59 49 50 60
f 61 51 52 62
f 63 62 52 53
f 63 53 54 64
f 54 55 65 64
f 65 55 56 66
f 66 56 57 67
f 57 58 68 67
f 68 58 59 69
f 69 59 60 70
f 61 62 72 71
f 63 73 72 62
f 73 63 64 74
f 74 64 65 75
f 75 65 66 76
f 66 67 77 76
f 67 68 78 77
f 68 69 79 78
f 70 80 79 69
f 81 71 72 82
f 72 73 83 82
f 83 73 74 84
f 84 74 75 85
f 86 85 75 76
f 86 76 77 87
f 77 78 88 87
f 89 88 78 79
f 79 80 90 89
