v -3.479542 6.331365 10.252655
v -2.916481 7.353298 10.365582
v -2.89145 7.46039 9.534762
v -3.470573 6.410963 9.39485
v -2.381433 8.373296 10.516371
v -2.353827 8.485805 9.690083
v -1.923155 9.34238 10.668783
v -1.895843 9.455437 9.830902
v -1.508183 10.171694 10.808881
v -1.477003 10.294382 9.950901
v -1.074534 10.846 10.926263
v -1.04309 10.970427 10.057554
v -0.610078 11.357428 11.01513
v -0.5847 11.476057 10.139639
v -0.124538 11.717811 11.07534
v -0.108117 11.830371 10.195745
v 0.3633 11.945479 11.109224
v 0.37103 12.054086 10.230381
v 0.866014 12.06456 11.120301
v 0.872831 12.172012 10.252914
v 1.385839 12.078714 11.107953
v 1.372705 12.188273 10.229141
v 1.940598 11.980578 11.067326
v 1.897435 12.096972 10.186214
v 2.4365 11.886444 10.105504
v 2.508606 11.75648 10.993551
v 3.072724 11.398334 10.88459
v 2.981556 11.541281 9.997139
v 3.622804 10.909161 10.744848
v 3.513139 11.069861 9.849239
v 4.117517 10.371944 10.603136
v 4.022118 10.517879 9.691673
v 4.619596 9.810282 10.47161
v 4.536583 9.942735 9.551649
v 5.214089 9.23497 10.360586
v 5.126647 9.374762 9.396441
v 5.821686 8.873981 9.238445
v 5.886712 8.743471 10.287621
v 6.653464 8.363661 10.246434
v 6.618455 8.486891 9.118448
v 7.528531 8.101315 10.227853
v 7.535615 8.216111 9.058839
v 8.535407 7.943429 10.221941
v 8.535272 8.060777 9.040305
v 9.560039 7.965419 9.029573
v 9.571961 7.847776 10.202922
v -2.908382 7.59129 8.680523
v -3.484786 6.552476 8.515312
v -2.361413 8.632689 8.848377
v -1.911061 9.581467 9.009208
v -1.48793 10.426349 9.14257
v -1.05566 11.100857 9.242004
v -0.595089 11.61093 9.311674
v -0.126078 11.961783 9.353147
v 0.35744 12.189486 9.374374
v 0.825204 12.305347 9.357393
v 1.313061 12.321715 9.329221
v 1.811819 12.237749 9.266236
v 2.330931 12.03637 9.174797
v 2.856282 11.706034 9.041178
v 3.375601 11.246192 8.881063
v 3.886425 10.692598 8.698311
v 4.407916 10.110353 8.507895
v 4.998878 9.541958 8.337729
v 5.710469 9.028694 8.182077
v 6.546258 8.62293 8.051715
v 7.499276 8.345769 7.949357
v 8.513057 8.193826 7.879545
v 9.560857 8.09832 7.84913
v -2.965738 7.790569 7.76941
v -3.552353 6.742973 7.573829
v -2.428541 8.807426 7.952726
v -1.972293 9.769371 8.113783
v -1.555115 10.598072 8.257601
v -1.11697 11.27988 8.364584
v -0.658516 11.787249 8.435457
v -0.182054 12.144619 8.474237
v 0.287267 12.369691 8.478004
v 0.75739 12.484473 8.468673
v 1.233631 12.503803 8.424865
v 1.720015 12.422412 8.360978
v 2.226028 12.228114 8.259779
v 2.737752 11.906776 8.126813
v 3.250478 11.454864 7.948699
v 3.753524 10.911481 7.744215
v 4.283056 10.321448 7.532591
v 4.888892 9.741927 7.323467
v 5.61369 9.222457 7.136946
v 6.472007 8.808628 6.982746
v 7.435504 8.530404 6.866523
v 8.4824 8.373478 6.794727
v 9.563741 8.274424 6.765949
v -3.084678 8.038463 6.821224
v -3.675542 6.982412 6.626906
v -2.547962 9.044429 7.02415
v -2.093225 9.986103 7.215458
v -1.672097 10.819206 7.366952
v -1.234129 11.497522 7.480705
v -0.766953 12.015546 7.550306
v -0.290962 12.375585 7.580454
v 0.189409 12.605452 7.585769
v 0.663918 12.726787 7.557417
v 1.139688 12.746058 7.513702
v 1.629697 12.667074 7.437012
v 2.127616 12.476757 7.333422
v 2.636218 12.160404 7.185736
v 3.136543 11.720935 7.002892
v 3.641666 11.17708 6.784265
v 4.175663 10.58438 6.553094
v 4.795918 9.992095 6.332303
v 5.539537 9.459694 6.137851
v 6.412513 9.038726 5.981363
v 7.395982 8.752511 5.873205
v 8.46 8.591223 5.808393
v 9.571959 8.489576 5.777288
v -3.262804 8.327246 5.878829
v -3.85827 7.286654 5.649139
v -2.722511 9.332981 6.093417
v -2.272267 10.257509 6.293142
v -1.84928 11.082233 6.461831
v -1.405559 11.767445 6.58035
v -0.933538 12.291191 6.650013
v -0.440904 12.664621 6.679488
v 0.051265 12.90529 6.672107
v 0.544462 13.030428 6.64536
v 1.040406 13.054649 6.587472
v 1.538845 12.974234 6.509757
v 2.048038 12.782015 6.39551
v 2.553829 12.467231 6.249381
v 3.057313 12.026531 6.059166
v 3.560754 11.484762 5.839607
v 4.106742 10.878396 5.604198
v 4.741473 10.271507 5.381612
v 5.50166 9.724726 5.193064
v 6.388165 9.291858 5.054971
v 7.382178 8.997559 4.96467
v 8.455317 8.829573 4.919227
v 9.587939 8.720245 4.908896
v -3.489911 8.669786 4.9284
v -4.083924 7.645265 4.684117
v -2.949746 9.659063 5.161588
v -2.500764 10.569586 5.372623
v -2.077753 11.388745 5.547399
v -1.63063 12.076331 5.670531
v -1.145479 12.615436 5.740838
v -0.637847 13.00402 5.764205
v -0.116326 13.258606 5.75724
v 0.407084 13.396148 5.717772
v 0.932176 13.420458 5.659827
v 1.461234 13.337388 5.571135
v 1.98609 13.137493 5.45839
v 2.507515 12.813263 5.306871
v 3.013804 12.367293 5.124458
v 3.526989 11.812335 4.908996
v 4.082532 11.190297 4.685386
v 4.734582 10.559935 4.478876
v 5.507583 9.994256 4.318047
v 6.403813 9.546667 4.210463
v 7.398196 9.240612 4.157964
v 8.473479 9.062138 4.145724
v 9.614055 8.94614 4.154472
v -3.746331 9.041714 3.993978
v -4.334858 8.050642 3.728053
v -3.211908 10.016218 4.229225
v -2.767686 10.911878 4.442698
v -2.347 11.723844 4.619039
v -1.894821 12.419619 4.74309
v -1.398542 12.973259 4.811946
v -0.86297 13.383102 4.836811
v -0.308312 13.657143 4.823149
v 0.25908 13.803246 4.786681
v 0.830274 13.830982 4.720693
v 1.396695 13.737692 4.636305
v 1.956755 13.522495 4.520789
v 2.496126 13.180656 4.380699
v 3.019098 12.714502 4.206619
v 3.540378 12.14104 4.012747
v 4.110701 11.491498 3.811153
v 4.774705 10.835299 3.638437
v 5.559162 10.246188 3.516357
v 6.455026 9.781981 3.456976
v 7.445632 9.462682 3.447785
v 8.510043 9.273504 3.47427
v 9.64943 9.147499 3.514369
v -4.010671 9.42887 3.067317
v -4.582224 8.472986 2.803196
v -3.486169 10.37947 3.303976
v -3.052099 11.260862 3.507114
v -2.636345 12.070081 3.675173
v -2.182805 12.774107 3.792855
v -1.669631 13.349112 3.860616
v -1.105935 13.783085 3.882581
v -0.504676 14.076605 3.874269
v 0.115572 14.235857 3.835334
v 0.741001 14.259199 3.778529
v 1.360933 14.15308 3.695453
v 1.958464 13.913954 3.594697
v 2.53021 13.543392 3.465543
v 3.068339 13.049944 3.318124
v 3.604612 12.445364 3.15105
v 4.183792 11.765588 2.990708
v 4.859603 11.076892 2.863067
v 5.645329 10.464704 2.796012
v 6.537839 9.983665 2.787292
v 7.5139 9.651793 2.828792
v 8.563315 9.451763 2.896564
v 9.691072 9.317344 2.966477
v -4.254841 9.791614 2.173927
v -4.801762 8.876662 1.922043
v -3.751741 10.723234 2.382036
v -3.333519 11.591007 2.560884
v -2.9276 12.40091 2.7061
v -2.472077 13.119642 2.810995
v -1.943028 13.718918 2.871659
v -1.341829 14.180414 2.897326
v -0.690248 14.497021 2.891122
v -0.008458 14.663522 2.866463
v 0.681581 14.682913 2.818185
v 1.355922 14.554796 2.757504
v 2.00276 14.284769 2.674638
v 2.60335 13.878162 2.578465
v 3.164163 13.346311 2.462823
v 3.708362 12.708082 2.343432
v 4.296855 11.991925 2.231694
v 4.973669 11.275015 2.162492
v 5.758327 10.641711 2.148344
v 6.638011 10.14801 2.192926
v 7.599013 9.807284 2.275913
v 8.627774 9.598945 2.382113
v 9.736783 9.458639 2.477687
v -4.461426 10.096421 1.316247
v -4.973008 9.213927 1.112552
v -3.988288 11.004619 1.476377
v -3.591537 11.869354 1.602706
v -3.196721 12.686695 1.711573
v -2.740417 13.425854 1.791433
v -2.191156 14.054718 1.843497
v -1.55191 14.547266 1.867205
v -0.844185 14.88501 1.873933
v -0.096524 15.061357 1.86187
v 0.657664 15.069595 1.841787
v 1.394607 14.917429 1.806597
v 2.084112 14.610857 1.765026
v 2.719824 14.161337 1.708227
v 3.294147 13.58989 1.647379
v 3.847112 12.913042 1.582111
v 4.432797 12.1671 1.535806
v 5.107776 11.425151 1.524362
v 5.881166 10.778452 1.565718
v 6.749547 10.277125 1.649695
v 7.691363 9.931435 1.769556
v 8.700946 9.719898 1.899276
v 9.786218 9.576438 2.01553
v -4.622887 10.306869 0.514355
v -5.095833 9.453023 0.384282
v -4.186852 11.194337 0.590115
v -3.809414 12.062457 0.650056
v -3.425604 12.895869 0.702031
v -2.965497 13.663058 0.746022
v -2.395718 14.326578 0.776914
v -1.716352 14.851127 0.799447
v -0.952477 15.213567 0.812556
v -0.141963 15.396061 0.825547
v 0.680099 15.395744 0.832457
v 1.470565 15.217096 0.841773
v 2.20865 14.872599 0.844322
v 2.867949 14.382488 0.84761
v 3.458568 13.768563 0.845311
v 4.008447 13.060242 0.852786
v 4.588731 12.28745 0.875095
v 5.248686 11.531994 0.931556
v 6.010636 10.877104 1.019762
v 6.861707 10.37266 1.144317
v 7.788348 10.026469 1.285344
v 8.77772 9.813497 1.436873
v 9.838628 9.670053 1.56462
v -4.748939 10.407853 -0.237984
v -5.181794 9.580853 -0.256355
v -4.344471 11.276016 -0.258601
v -3.984511 12.151293 -0.289323
v -3.605945 13.008542 -0.306861
v -3.138761 13.80942 -0.314691
v -2.545755 14.50989 -0.31249
v -1.826498 15.069274 -0.303249
v -1.01094 15.45421 -0.281034
v -0.137934 15.646883 -0.250277
v 0.740774 15.637755 -0.2052
v 1.588895 15.43592 -0.153933
v 2.362326 15.058588 -0.091891
v 3.050599 14.527686 -0.028358
v 3.645613 13.880274 0.044896
v 4.194164 13.141363 0.125627
v 4.756432 12.356003 0.228569
v 5.399837 11.593199 0.350204
v 6.139188 10.938989 0.4945
v 6.975984 10.435285 0.647381
v 7.884851 10.089602 0.815619
v 8.857015 9.878417 0.975526
v 9.893615 9.735713 1.115581
v -5.247021 9.602394 -0.837497
v -4.847046 10.395882 -0.939478
v -4.467185 11.245507 -1.078553
v -4.115942 12.130766 -1.205224
v -3.736299 13.015549 -1.306262
v -3.256509 13.852126 -1.375289
v -2.637781 14.590186 -1.41499
v -1.881389 15.180952 -1.423221
v -1.016598 15.589615 -1.403569
v -0.093655 15.791101 -1.35279
v 0.841751 15.777927 -1.278281
v 1.731928 15.559032 -1.177997
v 2.54669 15.152074 -1.061736
v 3.251688 14.59164 -0.926956
v 3.857947 13.910351 -0.781522
v 4.394851 13.15515 -0.616004
v 4.941222 12.361007 -0.434379
v 5.555623 11.60673 -0.237746
v 6.27419 10.958016 -0.044768
v 7.087371 10.460217 0.150631
v 7.984351 10.116735 0.334681
v 8.936809 9.907495 0.515304
v 9.950898 9.766747 0.66477
v -4.92597 10.273983 -1.623876
v -5.302964 9.520044 -1.393174
v -4.557329 11.107432 -1.868337
v -4.206183 12.003881 -2.100568
v -3.817482 12.917503 -2.288775
v -3.319501 13.788757 -2.427489
v -2.673851 14.559444 -2.513871
v -1.881619 15.178147 -2.550269
v -0.97881 15.604766 -2.536214
v -0.010013 15.81624 -2.477674
v 0.963862 15.801946 -2.375064
v 1.89863 15.570491 -2.23677
v 2.739814 15.145726 -2.064006
v 3.470982 14.556289 -1.86626
v 4.07995 13.855221 -1.641482
v 4.613933 13.081587 -1.395888
v 5.135715 12.296437 -1.129951
v 5.725319 11.554848 -0.864182
v 6.410625 10.925239 -0.607697
v 7.205213 10.43547 -0.377346
v 8.08261 10.09803 -0.157787
v 9.023471 9.891255 0.036512
v 10.011142 9.754301 0.20971
v -5.354485 9.322601 -1.955707
v -4.983623 10.045015 -2.29893
v -4.615121 10.863796 -2.652194
v -4.253215 11.777266 -2.981084
v -3.847796 12.720063 -3.256454
v -3.327528 13.621253 -3.463037
v -2.654115 14.418021 -3.599524
v -1.833994 15.054387 -3.665864
v -0.899929 15.493664 -3.667499
v 0.095045 15.710872 -3.607326
v 1.103636 15.69701 -3.490844
v 2.063228 15.46116 -3.320785
v 2.937287 15.020673 -3.104268
v 3.683504 14.417281 -2.843818
v 4.308148 13.691663 -2.547996
v 4.83455 12.91458 -2.21934
v 5.342511 12.135004 -1.875154
v 5.899295 11.424276 -1.535897
v 6.559813 10.814909 -1.224936
v 7.325208 10.344991 -0.936881
v 8.189246 10.015064 -0.689331
v 9.116084 9.81553 -0.459384
v 10.079194 9.684158 -0.271864
v -5.016091 9.703625 -2.996875
v -5.399253 8.994756 -2.54572
v -4.635923 10.523054 -3.431563
v -4.253083 11.462811 -3.853135
v -3.826237 12.433633 -4.203683
v -3.281001 13.359509 -4.474164
v -2.583953 14.171055 -4.657224
v -1.743103 14.8144 -4.757098
v -0.795513 15.254504 -4.780156
v 0.216522 15.472694 -4.730721
v 1.235989 15.458899 -4.611991
v 2.220136 15.218968 -4.426768
v 3.110568 14.774424 -4.176803
v 3.883207 14.153393 -3.867444
v 4.518052 13.417746 -3.503367
v 5.053054 12.625496 -3.098741
v 5.545693 11.865349 -2.679511
v 6.085338 11.17732 -2.273297
v 6.71351 10.605725 -1.89075
v 7.460584 10.156048 -1.552987
v 8.303506 9.848352 -1.243949
v 9.219014 9.658049 -0.989043
v 10.15694 9.539972 -0.768022
v -5.020968 9.263865 -3.714393
v -5.432469 8.534114 -3.177943
v -4.618291 10.104167 -4.222594
v -4.211492 11.079941 -4.708753
v -3.760885 12.076948 -5.126918
v -3.191768 13.021221 -5.451631
v -2.476737 13.83549 -5.67879
v -1.626906 14.471131 -5.815032
v -0.675904 14.902427 -5.865827
v 0.331016 15.111918 -5.838637
v 1.355958 15.093993 -5.731965
v 2.342591 14.853205 -5.547179
v 3.255274 14.399956 -5.281886
v 4.044546 13.772079 -4.936502
v 4.706007 13.012467 -4.516179
v 5.249415 12.214502 -4.042546
v 5.747561 11.452432 -3.548661
v 6.270993 10.798216 -3.068088
v 6.88868 10.253283 -2.617993
v 7.609536 9.847878 -2.199124
v 8.441274 9.564152 -1.839339
v 9.335334 9.405776 -1.522328
v 10.247375 9.305778 -1.272077
v -5.454212 7.974993 -3.845973
v -5.004601 8.751432 -4.459203
v -4.573814 9.640631 -5.016694
v -4.145195 10.646172 -5.558362
v -3.670637 11.67559 -6.026858
v -3.08411 12.625467 -6.397481
v -2.355933 13.431454 -6.669789
v -1.505571 14.049073 -6.842387
v -0.565732 14.457946 -6.92977
v 0.430723 14.652918 -6.931071
v 1.439639 14.625543 -6.849549
v 2.43046 14.377941 -6.678649
v 3.348992 13.921157 -6.413344
v 4.166841 13.273289 -6.047496
v 4.851824 12.495217 -5.583844
v 5.424175 11.665625 -5.041528
v 5.932577 10.903077 -4.473084
v 6.46993 10.252013 -3.90886
v 7.077622 9.751338 -3.371793
v 7.797046 9.377257 -2.887153
v 8.60897 9.14899 -2.443847
v 9.485408 9.022291 -2.08392
v 10.357038 8.955924 -1.796485
v -4.984324 8.211098 -5.2142
v -5.475262 7.365895 -4.542052
v -4.52607 9.140783 -5.828288
v -4.074378 10.19568 -6.405066
v -3.585324 11.236863 -6.913293
v -2.981415 12.187164 -7.335036
v -2.247656 12.976809 -7.646163
v -1.403716 13.565093 -7.861665
v -0.478571 13.948984 -7.983232
v 0.493402 14.120762 -8.021373
v 1.489265 14.080763 -7.967708
v 2.467828 13.826715 -7.819047
v 3.400108 13.35746 -7.561936
v 4.23736 12.695131 -7.185332
v 4.960871 11.878399 -6.683408
v 5.564916 11.013836 -6.081857
v 6.110934 10.213066 -5.421222
v 6.667478 9.567881 -4.766881
v 7.303687 9.073442 -4.14568
v 8.018867 8.75718 -3.571979
v 8.825175 8.556279 -3.094455
v 9.69056 8.478863 -2.676269
v 10.500506 8.444 -2.375443
v -4.986099 7.651304 -5.978551
v -5.511374 6.761335 -5.240617
v -4.496011 8.643943 -6.638036
v -4.02911 9.709316 -7.268102
v -3.522896 10.759569 -7.832496
v -2.906489 11.712284 -8.289115
v -2.173088 12.476159 -8.642076
v -1.337835 13.037239 -8.892642
v -0.433497 13.389344 -9.054006
v 0.519032 13.541267 -9.12223
v 1.494858 13.487099 -9.098083
v 2.470622 13.22418 -8.968074
v 3.409811 12.747275 -8.716886
v 4.277154 12.061424 -8.326011
v 5.035865 11.2121 -7.785268
v 5.687024 10.294609 -7.105672
v 6.272174 9.452468 -6.362168
v 6.877597 8.770044 -5.611726
v 7.538611 8.288727 -4.912499
v 8.293489 7.958535 -4.301696
v 9.09678 7.810493 -3.762183
v 9.933253 7.73218 -3.361722
v 10.706563 7.698178 -3.074985
v -5.031439 7.144327 -6.681695
v -5.583295 6.204035 -5.915763
v -4.518857 8.159114 -7.416432
v -4.04454 9.219761 -8.098052
v -3.519509 10.286465 -8.726241
v -2.900134 11.208843 -9.250922
v -2.159153 11.950172 -9.665425
v -1.333372 12.47803 -9.964856
v -0.439658 12.806434 -10.162171
v 0.499348 12.93751 -10.265435
v 1.469152 12.871512 -10.264682
v 2.44957 12.598536 -10.150691
v 3.409072 12.107119 -9.901931
v 4.307631 11.396608 -9.497123
v 5.111107 10.498367 -8.922462
v 5.814421 9.507587 -8.188191
v 6.461238 8.59556 -7.327514
v 7.108762 7.896251 -6.468463
v 7.812938 7.403204 -5.693416
v 8.573428 7.110271 -5.026227
v 9.422154 6.93029 -4.483432
v 10.174045 6.87096 -4.11214
v 10.954667 6.842108 -3.817258
v -5.133747 6.609413 -7.419953
v -5.695862 5.668796 -6.601403
v -4.620089 7.596161 -8.234893
v -4.134129 8.647234 -9.032462
v -3.604352 9.689093 -9.756141
v -2.966632 10.613197 -10.354758
v -2.218533 11.344249 -10.810607
v -1.380626 11.868753 -11.137624
v -0.488286 12.189704 -11.34876
v 0.45352 12.319365 -11.45542
v 1.426019 12.253104 -11.453446
v 2.417926 11.980406 -11.329642
v 3.407619 11.481111 -11.056659
v 4.35233 10.748842 -10.602042
v 5.194197 9.831456 -9.952983
v 5.942475 8.807184 -9.109147
v 6.641807 7.833981 -8.149314
v 7.340039 7.073786 -7.230981
v 8.079041 6.54517 -6.431619
v 8.878095 6.209032 -5.765401
v 9.688603 6.030248 -5.25409
v 10.519368 5.95312 -4.854146
v 11.212949 5.980009 -4.54086
f 1 2 3 4 
f 2 5 6 3 
f 7 8 6 5 
f 9 10 8 7 
f 9 11 12 10 
f 11 13 14 12 
f 14 13 15 16 
f 15 17 18 16 
f 17 19 20 18 
f 21 22 20 19 
f 21 23 24 22 
f 25 24 23 26 
f 26 27 28 25 
f 27 29 30 28 
f 29 31 32 30 
f 31 33 34 32 
f 34 33 35 36 
f 37 36 35 38 
f 38 39 40 37 
f 41 42 40 39 
f 41 43 44 42 
f 45 44 43 46 
f 4 3 47 48 
f 49 47 3 6 
f 49 6 8 50 
f 8 10 51 50 
f 10 12 52 51 
f 12 14 53 52 
f 16 54 53 14 
f 16 18 55 54 
f 18 20 56 55 
f 20 22 57 56 
f 22 24 58 57 
f 24 25 59 58 
f 60 59 25 28 
f 28 30 61 60 
f 30 32 62 61 
f 32 34 63 62 
f 63 34 36 64 
f 65 64 36 37 
f 37 40 66 65 
f 42 67 66 40 
f 42 44 68 67 
f 68 44 45 69 
f 47 70 71 48 
f 72 70 47 49 
f 50 73 72 49 
f 51 74 73 50 
f 51 52 75 74 
f 52 53 76 75 
f 77 76 53 54 
f 54 55 78 77 
f 56 79 78 55 
f 56 57 80 79 
f 57 58 81 80 
f 58 59 82 81 
f 82 59 60 83 
f 60 61 84 83 
f 61 62 85 84 
f 62 63 86 85 
f 86 63 64 87 
f 87 64 65 88 
f 65 66 89 88 
f 67 90 89 66 
f 67 68 91 90 
f 91 68 69 92 
f 93 94 71 70 
f 70 72 95 93 
f 95 72 73 96 
f 73 74 97 96 
f 98 97 74 75 
f 99 98 75 76 
f 76 77 100 99 
f 77 78 101 100 
f 101 78 79 102 
f 102 79 80 103 
f 104 103 80 81 
f 105 104 81 82 
f 82 83 106 105 
f 83 84 107 106 
f 108 107 84 85 
f 85 86 109 108 
f 86 87 110 109 
f 87 88 111 110 
f 89 112 111 88 
f 89 90 113 112 
f 114 113 90 91 
f 114 91 92 115 
f 116 117 94 93 
f 93 95 118 116 
f 95 96 119 118 
f 96 97 120 119 
f 121 120 97 98 
f 121 98 99 122 
f 99 100 123 122 
f 100 101 124 123 
f 124 101 102 125 
f 126 125 102 103 
f 103 104 127 126 
f 104 105 128 127 
f 128 105 106 129 
f 106 107 130 129 
f 130 107 108 131 
f 108 109 132 131 
f 109 110 133 132 
f 133 110 111 134 
f 112 135 134 111 
f 112 113 136 135 
f 113 114 137 136 
f 138 137 114 115 
f 117 116 139 140 
f 118 141 139 116 
f 141 118 119 142 
f 119 120 143 142 
f 120 121 144 143 
f 144 121 122 145 
f 146 145 122 123 
f 146 123 124 147 
f 147 124 125 148 
f 125 126 149 148 
f 126 127 150 149 
f 127 128 151 150 
f 151 128 129 152 
f 129 130 153 152 
f 130 131 154 153 
f 131 132 155 154 
f 156 155 132 133 
f 133 134 157 156 
f 134 135 158 157 
f 135 136 159 158 
f 136 137 160 159 
f 160 137 138 161 
f 140 139 162 163 
f 164 162 139 141 
f 164 141 142 165 
f 142 143 166 165 
f 166 143 144 167 
f 168 167 144 145 
f 146 169 168 145 
f 147 170 169 146 
f 147 148 171 170 
f 171 148 149 172 
f 172 149 150 173 
f 173 150 151 174 
f 151 152 175 174 
f 175 152 153 176 
f 153 154 177 176 
f 154 155 178 177 
f 155 156 179 178 
f 156 157 180 179 
f 181 180 157 158 
f 158 159 182 181 
f 182 159 160 183 
f 184 183 160 161 
f 163 162 185 186 
f 185 162 164 187 
f 164 165 188 187 
f 166 189 188 165 
f 190 189 166 167 
f 190 167 168 191 
f 168 169 192 191 
f 192 169 170 193 
f 193 170 171 194 
f 195 194 171 172 
f 195 172 173 196 
f 173 174 197 196 
f 198 197 174 175 
f 175 176 199 198 
f 199 176 177 200 
f 201 200 177 178 
f 178 179 202 201 
f 203 202 179 180 
f 203 180 181 204 
f 181 182 205 204 
f 182 183 206 205 
f 183 184 207 206 
f 185 208 209 186 
f 185 187 210 208 
f 187 188 211 210 
f 188 189 212 211 
f 189 190 213 212 
f 190 191 214 213 
f 215 214 191 192 
f 192 193 216 215 
f 193 194 217 216 
f 194 195 218 217 
f 218 195 196 219 
f 220 219 196 197 
f 197 198 221 220 
f 199 222 221 198 
f 199 200 223 222 
f 223 200 201 224 
f 202 225 224 201 
f 202 203 226 225 
f 203 204 227 226 
f 228 227 204 205 
f 228 205 206 229 
f 206 207 230 229 
f 231 232 209 208 
f 208 210 233 231 
f 234 233 210 211 
f 234 211 212 235 
f 212 213 236 235 
f 236 213 214 237 
f 214 215 238 237 
f 215 216 239 238 
f 240 239 216 217 
f 217 218 241 240 
f 218 219 242 241 
f 219 220 243 242 
f 244 243 220 221 
f 221 222 245 244 
f 222 223 246 245 
f 223 224 247 246 
f 247 224 225 248 
f 225 226 249 248 
f 226 227 250 249 
f 227 228 251 250 
f 229 252 251 228 
f 229 230 253 252 
f 232 231 254 255 
f 231 233 256 254 
f 233 234 257 256 
f 234 235 258 257 
f 259 258 235 236 
f 259 236 237 260 
f 260 237 238 261 
f 261 238 239 262 
f 262 239 240 263 
f 263 240 241 264 
f 241 242 265 264 
f 242 243 266 265 
f 266 243 244 267 
f 267 244 245 268 
f 245 246 269 268 
f 246 247 270 269 
f 248 271 270 247 
f 249 272 271 248 
f 249 250 273 272 
f 250 251 274 273 
f 274 251 252 275 
f 252 253 276 275 
f 255 254 277 278 
f 254 256 279 277 
f 256 257 280 279 
f 257 258 281 280 
f 258 259 282 281 
f 259 260 283 282 
f 261 284 283 260 
f 261 262 285 284 
f 285 262 263 286 
f 264 287 286 263 
f 287 264 265 288 
f 265 266 289 288 
f 290 289 266 267 
f 290 267 268 291 
f 291 268 269 292 
f 293 292 269 270 
f 293 270 271 294 
f 271 272 295 294 
f 272 273 296 295 
f 296 273 274 297 
f 298 297 274 275 
f 298 275 276 299 
f 300 278 277 301 
f 277 279 302 301 
f 279 280 303 302 
f 303 280 281 304 
f 281 282 305 304 
f 306 305 282 283 
f 283 284 307 306 
f 284 285 308 307 
f 308 285 286 309 
f 310 309 286 287 
f 287 288 311 310 
f 312 311 288 289 
f 312 289 290 313 
f 290 291 314 313 
f 291 292 315 314 
f 292 293 316 315 
f 294 317 316 293 
f 294 295 318 317 
f 295 296 319 318 
f 296 297 320 319 
f 297 298 321 320 
f 298 299 322 321 
f 323 324 300 301 
f 301 302 325 323 
f 302 303 326 325 
f 303 304 327 326 
f 327 304 305 328 
f 329 328 305 306 
f 306 307 330 329 
f 308 331 330 307 
f 308 309 332 331 
f 332 309 310 333 
f 311 334 333 310 
f 335 334 311 312 
f 313 336 335 312 
f 314 337 336 313 
f 314 315 338 337 
f 315 316 339 338 
f 340 339 316 317 
f 317 318 341 340 
f 319 342 341 318 
f 319 320 343 342 
f 320 321 344 343 
f 321 322 345 344 
f 346 324 323 347 
f 323 325 348 347 
f 325 326 349 348 
f 326 327 350 349 
f 350 327 328 351 
f 351 328 329 352 
f 329 330 353 352 
f 331 354 353 330 
f 331 332 355 354 
f 355 332 333 356 
f 357 356 333 334 
f 334 335 358 357 
f 358 335 336 359 
f 359 336 337 360 
f 360 337 338 361 
f 362 361 338 339 
f 363 362 339 340 
f 340 341 364 363 
f 365 364 341 342 
f 342 343 366 365 
f 344 367 366 343 
f 367 344 345 368 
f 369 370 346 347 
f 347 348 371 369 
f 372 371 348 349 
f 349 350 373 372 
f 350 351 374 373 
f 351 352 375 374 
f 352 353 376 375 
f 353 354 377 376 
f 354 355 378 377 
f 355 356 379 378 
f 380 379 356 357 
f 357 358 381 380 
f 358 359 382 381 
f 382 359 360 383 
f 360 361 384 383 
f 361 362 385 384 
f 363 386 385 362 
f 363 364 387 386 
f 364 365 388 387 
f 365 366 389 388 
f 390 389 366 367 
f 367 368 391 390 
f 370 369 392 393 
f 371 394 392 369 
f 371 372 395 394 
f 372 373 396 395 
f 397 396 373 374 
f 397 374 375 398 
f 399 398 375 376 
f 399 376 377 400 
f 377 378 401 400 
f 401 378 379 402 
f 402 379 380 403 
f 380 381 404 403 
f 404 381 382 405 
f 405 382 383 406 
f 383 384 407 406 
f 384 385 408 407 
f 409 408 385 386 
f 386 387 410 409 
f 387 388 411 410 
f 389 412 411 388 
f 389 390 413 412 
f 390 391 414 413 
f 415 393 392 416 
f 392 394 417 416 
f 418 417 394 395 
f 395 396 419 418 
f 419 396 397 420 
f 397 398 421 420 
f 399 422 421 398 
f 422 399 400 423 
f 423 400 401 424 
f 424 401 402 425 
f 402 403 426 425 
f 403 404 427 426 
f 404 405 428 427 
f 406 429 428 405 
f 430 429 406 407 
f 407 408 431 430 
f 408 409 432 431 
f 409 410 433 432 
f 434 433 410 411 
f 411 412 435 434 
f 435 412 413 436 
f 437 436 413 414 
f 415 416 438 439 
f 438 416 417 440 
f 417 418 441 440 
f 419 442 441 418 
f 443 442 419 420 
f 443 420 421 444 
f 421 422 445 444 
f 445 422 423 446 
f 446 423 424 447 
f 448 447 424 425 
f 448 425 426 449 
f 426 427 450 449 
f 451 450 427 428 
f 428 429 452 451 
f 452 429 430 453 
f 454 453 430 431 
f 431 432 455 454 
f 456 455 432 433 
f 456 433 434 457 
f 434 435 458 457 
f 435 436 459 458 
f 436 437 460 459 
f 438 461 462 439 
f 438 440 463 461 
f 440 441 464 463 
f 441 442 465 464 
f 442 443 466 465 
f 443 444 467 466 
f 468 467 444 445 
f 445 446 469 468 
f 446 447 470 469 
f 447 448 471 470 
f 471 448 449 472 
f 473 472 449 450 
f 450 451 474 473 
f 452 475 474 451 
f 452 453 476 475 
f 476 453 454 477 
f 455 478 477 454 
f 455 456 479 478 
f 456 457 480 479 
f 458 481 480 457 
f 481 458 459 482 
f 459 460 483 482 
f 462 461 484 485 
f 484 461 463 486 
f 463 464 487 486 
f 464 465 488 487 
f 488 465 466 489 
f 466 467 490 489 
f 467 468 491 490 
f 468 469 492 491 
f 469 470 493 492 
f 470 471 494 493 
f 471 472 495 494 
f 495 472 473 496 
f 496 473 474 497 
f 474 475 498 497 
f 476 499 498 475 
f 476 477 500 499 
f 500 477 478 501 
f 501 478 479 502 
f 502 479 480 503 
f 480 481 504 503 
f 481 482 505 504 
f 506 505 482 483 
f 485 484 507 508 
f 507 484 486 509 
f 509 486 487 510 
f 487 488 511 510 
f 488 489 512 511 
f 512 489 490 513 
f 490 491 514 513 
f 515 514 491 492 
f 516 515 492 493 
f 493 494 517 516 
f 494 495 518 517 
f 495 496 519 518 
f 519 496 497 520 
f 497 498 521 520 
f 498 499 522 521 
f 522 499 500 523 
f 500 501 524 523 
f 501 502 525 524 
f 502 503 526 525 
f 527 526 503 504 
f 527 504 505 528 
f 505 506 529 528 
