v -0.335896892136166 -0.17649198217734444 0.4918512706568292
v -0.30043629835996605 -0.13841797852996776 0.4927401468210644
v -0.310291268239731 -0.12721948925258905 0.45852905793199344
v -0.34676391275329244 -0.16637214430124947 0.45758126598036114
v -0.2632242574668975 -0.10237093134381858 0.4932899623963852
v -0.273059311395474 -0.09097762220036479 0.4587798705827858
v -0.22760082915435537 -0.07144366655194379 0.49289603574077934
v -0.23684475026438234 -0.059520569638236716 0.4583425387031215
v -0.1949736512999652 -0.046863729041622254 0.4925711426417572
v -0.20390358746464152 -0.03457772641933624 0.45777078275236194
v -0.16527247055387226 -0.028122865136359684 0.4928865611919223
v -0.1742480709420837 -0.015090733903221375 0.4565762976332533
v -0.1393124256913166 -0.014293021385157728 0.4925947521357354
v -0.14676089513727103 -0.000522034806143461 0.4564070227053941
v -0.11567194036218557 -0.004140037559664481 0.4921265684053874
v -0.12326763356416463 0.009386406934123088 0.45631927491009744
v -0.09464583649984093 0.0026829036406209074 0.4917201549577709
v -0.10052890932836846 0.016533706475313582 0.4563885601483728
v -0.07469637233200982 0.007088949572293234 0.4914319653991245
v -0.07895040492783366 0.021340241029118086 0.4559625019097661
v -0.053416282471191096 0.009743748509436292 0.4910349697742061
v -0.056912519776592764 0.024258355935309596 0.4551102411534661
v -0.029673117291372036 0.010821347975559493 0.4897081614588376
v -0.03325477557834693 0.02550331769639117 0.45333180197655687
v -0.007508272929271674 0.024813687633208324 0.4506577006553404
v -0.0037121509879935806 0.00978709020274175 0.48789783864054703
v 0.024083946545592233 0.0067782685519965705 0.4846896509913775
v 0.021512181931240906 0.0214166402667437 0.44793502880448877
v 0.05621508505009594 0.0006523710497946325 0.48105684973671725
v 0.05288837742707968 0.015752925476165802 0.4435093940164607
v 0.0873059080364837 -0.007390557774440881 0.47683591245959805
v 0.08509154330930215 0.0076386499180461235 0.4385197840355277
v 0.11949730763899376 -0.018143569592206837 0.47276673074031933
v 0.11812684070246901 -0.0032651731486912114 0.4339493963713874
v 0.1528871398331191 -0.03181349308831119 0.46912790756693856
v 0.15200814660169795 -0.016259858222165403 0.4278309900358638
v 0.18750033805633504 -0.03210281223386611 0.42103412046528826
v 0.18657177630326058 -0.04770842802536753 0.4650640982675457
v 0.21949446417125443 -0.06562666922915328 0.4617181561986959
v 0.22195587305299527 -0.04983949874342904 0.4147215017565132
v 0.2542249042170748 -0.086886880404469 0.458469431539841
v 0.2580763130272902 -0.07107989079978289 0.40895739527269415
v 0.2922078464944182 -0.11201609802272876 0.45340585307532466
v 0.29567654127815846 -0.09561793586509318 0.4030330473148449
v 0.3319210090648561 -0.12124107107271995 0.39683483829471167
v 0.32950458263170845 -0.1382005872033964 0.44657528646014405
v -0.32029517064965723 -0.11592557217336512 0.42349260287356605
v -0.35680277273829814 -0.15447867445993335 0.4215039672322651
v -0.2820073649520377 -0.07940903217434585 0.42497219472708303
v -0.24634586035414066 -0.04866338639862246 0.4249485057016167
v -0.21224217617271268 -0.022745938315747824 0.424196501656389
v -0.18251270482726858 -0.003464624906066299 0.4234950923030298
v -0.15479390691325534 0.011809053990569076 0.42213768702108884
v -0.1298436169576619 0.022505460096456962 0.4216723832897279
v -0.10624171721465378 0.03029002534349892 0.42090168480283524
v -0.08448439072686682 0.035647094559357814 0.419248695453112
v -0.061361525808812635 0.03910943913300966 0.4173696301785792
v -0.037100706688747126 0.040523982150438176 0.41518270470036683
v -0.01096918067810959 0.039926320185146684 0.4121786754445803
v 0.017071018517446232 0.03737700267135911 0.4075997141339719
v 0.048955081075540925 0.03182305216554224 0.4025514324754085
v 0.08166667548630127 0.023879393509309888 0.39664604189337827
v 0.11577541255870434 0.013297705429417842 0.3900265646307479
v 0.1501458197315369 0.00016465565170187182 0.3836869601306826
v 0.18599438894617135 -0.015786564360054742 0.3766991284433041
v 0.22209112103231646 -0.03420504566243872 0.3696449741050279
v 0.25964649334514905 -0.055530963629006176 0.3614974323412911
v 0.29759594033614134 -0.07975143319297755 0.3540025209150187
v 0.33531534296093546 -0.1062718898463543 0.3471145748478953
v -0.3300876423727388 -0.10272370629739483 0.38508941217267806
v -0.3674088704896012 -0.14172671058269248 0.38237420766920777
v -0.29259778317940793 -0.06714371835851637 0.3868328137404892
v -0.2558944712324158 -0.03582140490182349 0.38738442296536907
v -0.2226676863592427 -0.01069809772721382 0.3869038445633277
v -0.19113478273315998 0.009510004206184565 0.38667785784231623
v -0.16320224903201622 0.024598574652001323 0.3859608287943758
v -0.13700067320136264 0.0360643214846742 0.384975427438955
v -0.11340387046042918 0.0443578815513503 0.38303410778145597
v -0.09002446066156 0.0499124918155917 0.38177153424355104
v -0.06610675604668893 0.05344191153551033 0.3799609882863124
v -0.041503757187145024 0.055184741452183016 0.37694108033575324
v -0.015335814740644422 0.05495743368810872 0.372942445959955
v 0.013007970996620821 0.05222738659870281 0.36872850765120385
v 0.04426361127037049 0.04720723325547694 0.36259151078600504
v 0.07774827116942493 0.039273795896960326 0.3559942707126984
v 0.11242236114505388 0.028838327242430642 0.3483319283759193
v 0.14770146275783674 0.015923006581143536 0.3401559855487379
v 0.1839491860460742 -3.199979471941533e-05 0.33257986482748286
v 0.22107124309417156 -0.018627177226249462 0.32429218853165115
v 0.25931142617748787 -0.04032866557080332 0.31597253272838416
v 0.2985511559861934 -0.06514600111756517 0.3075609813279785
v 0.3371775835579588 -0.09210903075720886 0.2998861728859389
v -0.3401824494377158 -0.08940803648960678 0.34511577244805525
v -0.37799628848503064 -0.1286384500470785 0.3418639268213664
v -0.30248722102551995 -0.05408973354948431 0.3476499671587525
v -0.2663200381014358 -0.023495400477544476 0.3486919640611405
v -0.23226395236123415 0.0017876397505920203 0.34911981310054063
v -0.2008053024781178 0.022177695892099513 0.3484606579907358
v -0.1717010889889865 0.03763145456610659 0.34833011202525427
v -0.14564635318836577 0.04927064441356982 0.3468437194932053
v -0.11999241865876344 0.05803481843676889 0.34538048767361895
v -0.09607793064812338 0.06397313784939278 0.3434705348715357
v -0.07156689590299636 0.06796450846975798 0.3406532630648299
v -0.04648285412180731 0.06979182338511856 0.33744429968216516
v -0.01994533813188104 0.06955898473106752 0.33339192911727644
v 0.00858008552025066 0.06728585884832211 0.32778946191883906
v 0.03990751867960825 0.06220742931247936 0.3217640955097462
v 0.07327565319413104 0.05461058493082719 0.31426534071689105
v 0.10856749767754133 0.04413468892636937 0.30602829565879786
v 0.14437836031526274 0.03086300048586788 0.2982583746646256
v 0.18173830620196374 0.01487038040424169 0.28905615847652805
v 0.22012864354870537 -0.004416522010924685 0.28068324399561173
v 0.25857737766193034 -0.026472455041924692 0.27309590502240894
v 0.29845326272943173 -0.05169228998715329 0.2645647498093197
v 0.3385623565145033 -0.079699986539926 0.2565989690965957
v -0.35016644796275626 -0.07591043798123759 0.30380153973093277
v -0.3880460789438122 -0.11472080542013816 0.299685142065533
v -0.31261116986034126 -0.04074324977018954 0.30636094712948625
v -0.27688999470241876 -0.01115032137314611 0.3085755721965745
v -0.2424561227364089 0.014276342990612648 0.3093169842964438
v -0.2106050542548146 0.034516036161487275 0.3095433271268319
v -0.18136165396766554 0.050392455227714406 0.3087026209430686
v -0.1538127046270365 0.0625141232096952 0.30762135490032033
v -0.1277960175013723 0.07158211786669713 0.30572982722968806
v -0.10280472084727486 0.0779174721153672 0.30343494124741
v -0.07724430893874838 0.08233054476664581 0.2998159630513262
v -0.05139739873515296 0.08412411842801328 0.2967480581315889
v -0.024536191766001508 0.08397089147207576 0.29238108689224035
v 0.00422309829017714 0.08159118146804663 0.2869629270951308
v 0.03572440755188681 0.07678373910232544 0.27996784883687886
v 0.06891127143481687 0.06921064815730738 0.27255117112691546
v 0.10528328151024144 0.05847535702150277 0.2638647798829474
v 0.1420365734359287 0.04487721817782076 0.25582246256619934
v 0.1802005239312685 0.02802203515535172 0.2481482400308794
v 0.21929866345366622 0.008148621742609247 0.24041253900179574
v 0.25793342243972955 -0.014164113258587898 0.23332559849731763
v 0.29868367238064836 -0.040186804143731006 0.22546946469862586
v 0.33913565614818797 -0.06862451745315111 0.21804305228427917
v -0.3602484896056132 -0.06244982952951145 0.2605054345672356
v -0.39762220824931493 -0.10073032004504173 0.2563930526946779
v -0.3225735181511297 -0.027978740769321702 0.2645809537345701
v -0.28695325323796567 0.001450649509732552 0.2669646106653041
v -0.2533688942959904 0.02605779255668383 0.2681165538394553
v -0.22092202734181585 0.04664828877875072 0.2684778447280607
v -0.19088988830236484 0.06293044174327088 0.2677347927224096
v -0.16319111145306547 0.07533379525194332 0.26618734921474013
v -0.13601355985477556 0.08474956030189146 0.2644233040077156
v -0.1096419978449143 0.09163556101377639 0.26147483661675697
v -0.08331996447198214 0.09582156636771431 0.2587906369052739
v -0.056267717132793355 0.09819361818887352 0.25407290763357887
v -0.028963882203669716 0.0980129325391297 0.2496672180420422
v 0.0006383457088546138 0.09562220990515297 0.24384255086033355
v 0.03221828959740279 0.09044289766868578 0.23794558356270312
v 0.06621364588433097 0.08258526976163257 0.2306385713513593
v 0.10273168197914452 0.0713653331911434 0.22338216450010623
v 0.14123659693967544 0.05688991437668509 0.21573073843807103
v 0.18004602462216066 0.03930436094943676 0.20945822810044984
v 0.21934455642140266 0.018973865886333093 0.20291099724483083
v 0.2587496084747011 -0.004050775955510474 0.1966174549794039
v 0.2985690148046483 -0.030078520678945318 0.1909990087942445
v 0.3397772165657623 -0.0593214973373835 0.18434787005998896
v -0.36972220205375234 -0.05005501002441381 0.21764737427639916
v -0.40627309404287126 -0.08686421397123927 0.21239951307197863
v -0.3323293782581407 -0.015447257189947047 0.22091269731142554
v -0.29760782722401513 0.012841843690099587 0.22409888010708867
v -0.2636803364431387 0.037521581480086115 0.22571555639707738
v -0.2316168787366587 0.058042429993952295 0.22573590718112962
v -0.2013026084673875 0.0745312795765285 0.2249463040481374
v -0.1724213868593257 0.0872248319959093 0.22405175209181274
v -0.14427805425907445 0.09707521962601474 0.22200409294882187
v -0.11633306252113779 0.1043050966793797 0.21910555975315746
v -0.089141119467471 0.10884064485010189 0.21566684779469947
v -0.06087658760237602 0.1109542657628121 0.21188580248078126
v -0.032542295431538464 0.11086919046870783 0.20690085248303544
v -0.0020445411522659446 0.10800323595648766 0.20222588567609606
v 0.030668729213571635 0.10259820270430528 0.1961688946781238
v 0.06499311678834596 0.094330422391365 0.1898969960202003
v 0.10251874240513753 0.08237797518340137 0.18391295606497385
v 0.14187435334257845 0.06716037748850213 0.17757652356020814
v 0.18130667596489886 0.04887988387941871 0.17267219564058536
v 0.22039973680016922 0.027937325934796822 0.16873886755513254
v 0.26006621684650844 0.004139952376609585 0.16462580274269104
v 0.29966179052307884 -0.022118164470109638 0.16037018316618684
v 0.3407192577527361 -0.05185246984123385 0.1557947361933374
v -0.3781346102319767 -0.0376452764324614 0.1730244689397564
v -0.41416780065485104 -0.07409541649610968 0.16814699308506115
v -0.3423950656716868 -0.004976947810664165 0.1770603220467139
v -0.3078806364136613 0.023563028873698665 0.1793119120182393
v -0.27439675548536085 0.04785223599895137 0.18114319886816166
v -0.2424361951513803 0.06817405820954898 0.1815900353242034
v -0.21123913165493657 0.08490064376073632 0.18154758590608
v -0.1818180438186158 0.09815486162287611 0.17975906410527084
v -0.15229216626821096 0.10853893774310928 0.1775122879912608
v -0.12319417221105348 0.11576443807287523 0.17555488721159573
v -0.09428998984631203 0.12047350914044316 0.17228459644607508
v -0.06458124434682598 0.12267870948624843 0.1683069088370703
v -0.03463957782137352 0.12210012398918905 0.1647979973794834
v -0.0029878872409137103 0.11901266657160152 0.16027567594535094
v 0.03036276914738757 0.1131778941683513 0.15524575172643057
v 0.06547783974798486 0.10421203743849915 0.15071729582173546
v 0.10441058011256434 0.09150100000917427 0.14564399166781244
v 0.14405062469434493 0.0754182474729186 0.14212551832100484
v 0.18402853871709512 0.05637290499169553 0.13906161248792834
v 0.2232593230028543 0.03463152264131701 0.13779621472002543
v 0.2617404045936549 0.010841800528552584 0.13636406794139458
v 0.30154824001974573 -0.01614067971254663 0.134198129573111
v 0.3419908109835138 -0.04569073161955456 0.1305692686994559
v -0.3863344838820889 -0.028267406788733324 0.1302852226796606
v -0.4203056691122566 -0.06250840764593521 0.12534359742641693
v -0.351060194666267 0.004365681621311236 0.1333185169951221
v -0.31757881662962034 0.032222219241910856 0.13506852828606522
v -0.2850530426934821 0.05632154657353096 0.13551961705508092
v -0.2532053676761035 0.076667117932711 0.1357913603963753
v -0.22170885225181772 0.09376509142885972 0.13521281459457488
v -0.19053018807052177 0.10757106527607338 0.13426519848939164
v -0.15975018885246742 0.11824850267435019 0.1325318130713419
v -0.12939732379326407 0.12583823200702718 0.13033234614750705
v -0.09854763582527729 0.13062268644744646 0.12782776807057808
v -0.06665695489371842 0.13259033666698397 0.12520408134102362
v -0.034858167892361576 0.13188816541326026 0.12173247269622438
v -0.0024585693752321135 0.1283762624692024 0.11849850924989372
v 0.03212895784201094 0.1217902886665901 0.11548351522885861
v 0.06789202425382675 0.11229411457394266 0.1123365042936182
v 0.10779406074508636 0.09854175743955318 0.11015119977103796
v 0.14815008676154148 0.08148509430383145 0.10933726994719783
v 0.18783416560782665 0.06189231871257728 0.10899240192907939
v 0.22660532797171143 0.03991586352946672 0.10962223816962809
v 0.2649828947909636 0.015651026057182705 0.11023160865395207
v 0.3036377421125426 -0.011103194816279215 0.11017199107242212
v 0.3432397802208878 -0.04067788427317332 0.10889984426824675
v -0.39325774968267124 -0.02058604684554376 0.08822697538952708
v -0.42549359092802785 -0.05380961562737193 0.08552963809515782
v -0.36001618914319083 0.01062581787812608 0.0897423361129334
v -0.3275682689171705 0.03813787343351096 0.08987780263048402
v -0.29515366328657694 0.06228978737725192 0.08998862034187213
v -0.2630450314586148 0.08307575238461569 0.08939918068282858
v -0.23103500617231373 0.10063467388209733 0.08822820330822811
v -0.19898608005041282 0.11490344268773517 0.08706157553234106
v -0.16651142344575015 0.12601636771159438 0.08606411154572602
v -0.1334156972353272 0.13405796413963098 0.08485340653934624
v -0.10128275481014012 0.1387925250333207 0.08347862709150305
v -0.06721260522960561 0.14063799922197007 0.08194832803113451
v -0.033809994486265406 0.1394934778191365 0.08029842622546762
v -6.836147745429365e-05 0.13540188798452152 0.07906790346123845
v 0.03581500133401053 0.12815792100659443 0.07789201761185637
v 0.07293549185855627 0.11781300494188808 0.07689063587785003
v 0.11214932602422968 0.1038083926602419 0.07694666778087268
v 0.15272071120961467 0.08621763669119192 0.07810407477719447
v 0.19261747402352755 0.06587652743826765 0.08055817955495488
v 0.2311811594467425 0.04360295741230926 0.08286887600215258
v 0.2686824387623792 0.01930319903179958 0.08581355531819605
v 0.3061168378453567 -0.007283109545054483 0.08839951122698332
v 0.3445185655260395 -0.03627107324551514 0.08829624388385159
v -0.4001604118950489 -0.01687034143424943 0.049473006407641344
v -0.4301038278967098 -0.04855421113975066 0.0497841548166937
v -0.3684855535968726 0.013762770484500994 0.047560004400567166
v -0.33671774945294436 0.041189617265347804 0.04571674839644499
v -0.3049718114219572 0.06536855225342808 0.04359630069589623
v -0.27230040676877465 0.08684073814361387 0.04159102180481447
v -0.23936933734673552 0.10494379292046752 0.0403624912928724
v -0.20549998960708915 0.1199711706124584 0.03961178874437346
v -0.17132783394598955 0.1316094946581676 0.039039203056217824
v -0.1361912056089778 0.14007090827173696 0.03827356015710292
v -0.10192296678142357 0.14489617591055645 0.03840450871382103
v -0.06685234819559491 0.14654386490573842 0.03851674459105618
v -0.030892514178388866 0.14498052745062878 0.038972722635289614
v 0.004763494013764071 0.14039290459168485 0.03920023949810433
v 0.04105542753091736 0.13268886071800443 0.040209889006666694
v 0.07857916537500695 0.12160996281252921 0.042888504542387226
v 0.11824981945095635 0.10698690799792239 0.045418537506329536
v 0.15849520749312948 0.08910256291333145 0.048754954607452716
v 0.19785912282466045 0.06864551170786287 0.05304030182084775
v 0.23571344234298097 0.04615000322186827 0.05827304581456141
v 0.2722379388260881 0.02207080721196789 0.06298846624700065
v 0.3088725073091055 -0.00428522446606848 0.06700003438999366
v 0.3465332831690368 -0.03322179258136612 0.06898106513524348
v -0.4065800532616932 -0.016262075112179933 0.013048307524363888
v -0.434712226693874 -0.046809104279668536 0.017072500564899732
v -0.37680707685627807 0.01309700308079718 0.008174534658516308
v -0.3454854848914058 0.04073171416790354 0.002794335813561687
v -0.31331724803475247 0.06557819284425626 -0.0016176412476966106
v -0.27998986867802744 0.08769107915336116 -0.005113134093229482
v -0.24591985268901154 0.10654536311110123 -0.007248084907232697
v -0.2104940521696808 0.12235591849060562 -0.00871373674397896
v -0.17458634455974625 0.13459529638423828 -0.009223780710152884
v -0.1369968440439262 0.14352229365257058 -0.008414892501393302
v -0.1011725491768619 0.1484505550697347 -0.0068400397459147805
v -0.06352630206052788 0.15009053566613378 -0.005426525206150338
v -0.026756451937747235 0.14830780609144995 -0.0032309499893410226
v 0.010299139477106943 0.14322808318834324 4.519270592741602e-06
v 0.04798888453986065 0.13488738925711244 0.003989282665859918
v 0.08593705527144337 0.12348201027167659 0.00805483409183936
v 0.12508111799670188 0.10859564009874537 0.013890903957703208
v 0.16510653271528627 0.0904081235462056 0.019807849006414566
v 0.2035843489557503 0.06994755732536076 0.026752056826458148
v 0.24051545671962685 0.04775085600425173 0.03316690287263836
v 0.27614763999648884 0.023869557715602945 0.03984637964870342
v 0.31202033432580634 -0.0022996483688531295 0.04563026878912763
v 0.34826670044736485 -0.030722707630344515 0.050266310946621186
v -0.4391413926478814 -0.047972470094769196 -0.01351730595519385
v -0.4133491222505463 -0.01946730263261727 -0.021285653195072224
v -0.3843375428152714 0.009528780255345955 -0.030042156379525422
v -0.35336019110427846 0.03706594723604265 -0.038025584270620215
v -0.32042386043792526 0.06269662183714134 -0.04568910977496646
v -0.2858525020509637 0.08573131732413886 -0.051056908377957545
v -0.2505300292631001 0.10535076084579299 -0.055244929093773876
v -0.21336611775696537 0.12195662517215489 -0.0568386040757872
v -0.17596035090589254 0.1347103217822413 -0.05661977824489076
v -0.13642656864339217 0.14409943163152608 -0.05561343099075066
v -0.09819573946320696 0.14934599635601695 -0.05383164014394734
v -0.059921674761568046 0.1509571722027253 -0.04992776186165923
v -0.020765046311000734 0.14897491373555924 -0.04521998881830947
v 0.017672759361034497 0.14360121448238486 -0.039942472809323344
v 0.05579648710657695 0.13502379912872547 -0.03384718592212927
v 0.09419301252965785 0.1232244400567536 -0.026173132643826775
v 0.13350012320528118 0.10805579263597682 -0.01794578866789055
v 0.17202582656508297 0.09021893660332866 -0.009180850158908283
v 0.2095063224496429 0.07009983432803557 -0.0009422135613114282
v 0.24560950849738358 0.04803038407228628 0.008120196335522861
v 0.28047229377669375 0.024383746620031843 0.016608429408017163
v 0.3152783180903001 -0.0013868808537568227 0.024687586165898213
v 0.35028831238760794 -0.02919654405104932 0.03127709979654726
v -0.4197675569471095 -0.025631958882605287 -0.055142665410540644
v -0.4443797616376224 -0.05296839354557442 -0.042966677888602776
v -0.3912558885251042 0.002878659105053219 -0.06715364331149026
v -0.359979864747842 0.0306133362331005 -0.07936319267164882
v -0.3262144395478018 0.05682172707975369 -0.08938319825603246
v -0.29045816081526665 0.08055843177592704 -0.09723992629543479
v -0.25290667473835043 0.10142589642986999 -0.10170792574976548
v -0.21424855266065643 0.11864773512568728 -0.10437806696687703
v -0.17530493123500443 0.1319111705024597 -0.10456536553389313
v -0.1348574667776152 0.1415437222399303 -0.10312870085106442
v -0.09477901178924211 0.14709089553175575 -0.10034333596066894
v -0.05418753914963913 0.1488158597419837 -0.09574008095303849
v -0.013773835636247265 0.14681386068603672 -0.08924014323120213
v 0.02540400547872969 0.1413605579375414 -0.08202787622880282
v 0.06512543031573238 0.13242753535422216 -0.07279543558533351
v 0.10406321238036428 0.1204224914279337 -0.06294109726197547
v 0.14233284264702462 0.10556354586181774 -0.05205747100902514
v 0.18011450012267327 0.0879283091151777 -0.04049224067569591
v 0.2162767605293354 0.06828615359501844 -0.029055921930726012
v 0.2512884013143215 0.04670460634395947 -0.01809253322354322
v 0.2851116923321895 0.023506045982271146 -0.007060397088212604
v 0.31885474676495673 -0.0017277011423180002 0.0032185577067060755
v 0.35256448333351104 -0.028955222726888902 0.013470153801247742
v -0.45020782621232375 -0.06160191054028422 -0.07248142875279256
v -0.42570947087440886 -0.034622298074916014 -0.0881865028934585
v -0.3980753854861972 -0.007402774805488077 -0.10446215291617084
v -0.36546276786700255 0.021210285784518532 -0.11995117085551747
v -0.33022008860602053 0.04826640058586131 -0.13280242149178337
v -0.292554716913063 0.07314513604002353 -0.14202897826136127
v -0.2540576835906316 0.09419664271572507 -0.14904908075514053
v -0.21370490833658679 0.11210737716372453 -0.15234426451230237
v -0.17283653702486088 0.12591872225167172 -0.153322775900356
v -0.13215384822094525 0.13569159721242743 -0.15125561302256474
v -0.09034013213862525 0.14164829095962517 -0.1470372587839699
v -0.04841776104503093 0.1435453737066014 -0.14129414182190883
v -0.006452187114042778 0.1415028136394191 -0.13410056419746724
v 0.03342343500399085 0.13617895368248994 -0.12423479800139359
v 0.07518079554505583 0.12683061439067103 -0.1137053867920046
v 0.11425187478348212 0.11491961499220178 -0.10127250457189589
v 0.15274341923011628 0.10008065396280254 -0.08735702666125904
v 0.18898539462298367 0.08321158102589755 -0.07336757669255023
v 0.22398743097643603 0.06419157891355869 -0.059638637566363555
v 0.2577673508336396 0.04330351533614224 -0.045811700913672156
v 0.29074350539144284 0.020587081268695753 -0.032079040925119415
v 0.3231704571873709 -0.003883085284810657 -0.017492690884436425
v 0.35550363137490065 -0.0301997025211974 -0.0045302657838849365
v -0.43211910987020674 -0.04773672603736716 -0.12225112298928136
v -0.45692726815035645 -0.07446006051212035 -0.1025461608488285
v -0.40358602943838207 -0.02014232740662397 -0.1417754695023814
v -0.3696794455625818 0.009087408624548429 -0.16035155051591093
v -0.33241198087721985 0.037406495878325334 -0.175242255243895
v -0.2933558760414133 0.06265976447691335 -0.18722275003527655
v -0.25333737154472585 0.0845657820458873 -0.19439416621994438
v -0.21229868166180407 0.1024484701581266 -0.19924536198522122
v -0.1697384447611833 0.11677759748382772 -0.20052698110903494
v -0.12826816627122742 0.1265197744345939 -0.19947225038049707
v -0.08520818292490495 0.13261546945148428 -0.19532659487918724
v -0.04246879418086053 0.13464525664395108 -0.18896355597246592
v -3.580121845010729e-05 0.13275731605204485 -0.18066378539425867
v 0.042848695055621014 0.12696775672626479 -0.17048007500472953
v 0.08488235062641096 0.11799956370128219 -0.15687753915827124
v 0.12567246802280793 0.1058093351724351 -0.14201940594701706
v 0.16393644337729069 0.09134465916429108 -0.12557843529926171
v 0.19988043565506985 0.07484836443772243 -0.10901675327411468
v 0.23326520801761827 0.056958243678300394 -0.09194933153327928
v 0.26568730690893716 0.03704140835226531 -0.0756652299376827
v 0.29776579604005027 0.015060726295561587 -0.058014940898083546
v 0.32914449633899395 -0.008580435355656403 -0.040881043829946145
v 0.35973497714772273 -0.03351594023943985 -0.024076035140906546
v -0.43830207851019104 -0.0642747446132647 -0.1571404794767167
v -0.46431632963301206 -0.09174173640948635 -0.1342491471124966
v -0.40818825708399586 -0.03559528478136144 -0.17930301094565576
v -0.3723908848601209 -0.005139477025413289 -0.20022100091555456
v -0.33376928900500297 0.02352767685785726 -0.21785200581974976
v -0.2929102981402521 0.04979497314876923 -0.23081050586663918
v -0.2511553225293664 0.07210479285894322 -0.24006497075180985
v -0.2093757936849814 0.09021216314547073 -0.24528119861270894
v -0.1668846045514162 0.10413099863696333 -0.2478857168337878
v -0.12374606581076844 0.11410253990193531 -0.24738778919378515
v -0.08115730078189531 0.1198623293639505 -0.24431043882883446
v -0.03741151955933011 0.12177529220040247 -0.23848585998953245
v 0.007148980919441779 0.11987597671262087 -0.22950193054089615
v 0.05117027344354721 0.1141354058740954 -0.2182118726053317
v 0.09534103008105818 0.10488616453449302 -0.20318950582309211
v 0.13779674130577196 0.09266487883099753 -0.1854531863661033
v 0.17694671546470517 0.0782354485322839 -0.16666274348069274
v 0.21186530181677418 0.06282675334245495 -0.14669391398517384
v 0.24546596843737625 0.04517583079907749 -0.1268862079161418
v 0.27622878077768026 0.02681694096623818 -0.10635159002619218
v 0.30656292861582196 0.006331517970713961 -0.08620163561856471
v 0.33658607397628076 -0.015959284138901582 -0.06490975655049283
v 0.3656342060560987 -0.0394248714311368 -0.04433546429409366
v -0.4718485800791056 -0.11301654354170283 -0.16788238046396314
v -0.4442060460608558 -0.08427415358752842 -0.19351759650268252
v -0.41202447353304383 -0.05369873072912525 -0.2173823197025368
v -0.3743273085174271 -0.021844517695377375 -0.23992486498639734
v -0.3338360167466002 0.007981544366243577 -0.2589457049790576
v -0.2915482417994105 0.03460542847871837 -0.2737703635113657
v -0.24841196463034643 0.05719207509438756 -0.284506200966966
v -0.20642931370521905 0.07469924511288806 -0.2915843655269094
v -0.16357006140891692 0.08829979982602666 -0.29541053398550027
v -0.12063900762353313 0.09796572521015254 -0.29567506261256987
v -0.07728366460463278 0.10356050993597735 -0.2933658928558645
v -0.03263705171705356 0.1052320000456651 -0.2883245660022335
v 0.01287845224588546 0.10296293073581216 -0.2802398268654525
v 0.05934007595149781 0.09706471978773469 -0.2678936696888284
v 0.10553213522848212 0.08744250763488608 -0.2521221387339752
v 0.15081289396385222 0.07458770957663591 -0.2326490532236718
v 0.19150949467309958 0.060293435337950986 -0.2104120756377974
v 0.22777404100677817 0.044872597293797126 -0.18720193074860866
v 0.2595328744639885 0.02911436150257116 -0.16377398891137515
v 0.29022397860623683 0.011392349314554996 -0.13983167848827754
v 0.3191469424192603 -0.007300381075272122 -0.11472086131880187
v 0.3470191585721411 -0.027474251838358527 -0.09050668434656516
v 0.3735379775027644 -0.04843087402255362 -0.06666964251550823
v -0.4490930608298037 -0.10580398677613477 -0.22975210654729666
v -0.47959221530361124 -0.13708178043936603 -0.2004299307086776
v -0.4151588072183188 -0.07378421680494558 -0.2554205002403762
v -0.3753909415123498 -0.04034969109609093 -0.2795255251605117
v -0.3333803806205994 -0.009490585337924653 -0.2993631563661458
v -0.2899973414594911 0.01707731514966376 -0.31618751599851963
v -0.2463646369259869 0.03921077037969841 -0.32864336630155183
v -0.2039189084616348 0.05635653440943747 -0.33706802701761057
v -0.16110903526421627 0.06934170825394839 -0.34230267153136446
v -0.11796925799592534 0.07816202576873432 -0.3447325906502803
v -0.07366595409377323 0.08321539537766351 -0.3440123759473896
v -0.02907523631470989 0.08471238484568505 -0.33946959205281296
v 0.01822039982031987 0.08215317234983935 -0.33166132695085837
v 0.06664568518357161 0.07564955645146265 -0.31981316249973385
v 0.11608550776123616 0.06534256737285339 -0.30306081188992523
v 0.16408837662605025 0.052268775403150086 -0.280913512832736
v 0.2076422131368673 0.037552468665850186 -0.2554140171812826
v 0.24479861507337258 0.022589161400053608 -0.22884221559068996
v 0.2779614849004019 0.00689209384012079 -0.2015133176399772
v 0.3076721914260779 -0.009106611323936356 -0.17320335495116787
v 0.33552109484781106 -0.026539483939295217 -0.1461291213217114
v 0.3620877654919817 -0.04492522827836683 -0.11792673346342739
v 0.3859248945665457 -0.06335374032370057 -0.09346184745375725
v -0.4540152756644961 -0.12880466666204043 -0.26458703091395913
v -0.4864762452976525 -0.161843555772244 -0.2328637792517897
v -0.4179385954289466 -0.09506554066317993 -0.2925223106342087
v -0.37679702360202205 -0.06089064337347065 -0.31826563453224127
v -0.333152888596134 -0.029968758226371305 -0.34111405040505083
v -0.28927759671315434 -0.003293617557471359 -0.35846689153695543
v -0.2449958455761166 0.01851415890130501 -0.3724044924549123
v -0.2024090743357184 0.034757671258036006 -0.3827890758450466
v -0.15928784503785273 0.04687363312100104 -0.39004324347141867
v -0.11603135333355115 0.05513709686280321 -0.3937037357322921
v -0.07177237651803894 0.059643736960231626 -0.3941632454526268
v -0.02542233481476295 0.060457861632693184 -0.3910777040861511
v 0.022730240100813252 0.05787644184197748 -0.3831502979404333
v 0.07392677168840509 0.05092221971009821 -0.3708858095726263
v 0.12576724878161596 0.04026901885854639 -0.3530569508679075
v 0.17760067194852777 0.026367524897949315 -0.3287312421467182
v 0.22448521443339764 0.010889457987018507 -0.30044410617290224
v 0.26441441718119996 -0.0045878184334666285 -0.27028483623409394
v 0.29836277843372255 -0.019629925122745813 -0.23910923421148692
v 0.32934825045183175 -0.03611914125648502 -0.2089487482417879
v 0.3562513619847251 -0.05203371159653733 -0.17891836499759664
v 0.38162217665021975 -0.06952126593990608 -0.15165258866483003
v 0.4039618448402931 -0.08673626918962461 -0.12842583912205482
v -0.4590078493200903 -0.1513966873895795 -0.2960106633728968
v -0.49290968361977927 -0.18604164817283422 -0.263224011361044
v -0.4208942817753522 -0.1168168976622181 -0.3276203394155282
v -0.3793821305111191 -0.08325760468700705 -0.3553011168127923
v -0.3344523230756477 -0.05220206836110639 -0.38022448935637554
v -0.28940130349385873 -0.02664235596290615 -0.40136766445637195
v -0.2450314744722042 -0.005978560379538576 -0.41748191303801474
v -0.20217570223531225 0.009292419404973133 -0.42989365041807076
v -0.15903128568640465 0.020822210192108864 -0.43825172560705505
v -0.11484541400874818 0.02825688931992326 -0.44388353421685867
v -0.07018802027166583 0.03242633980328328 -0.445095856760473
v -0.022331037802519178 0.03285873980058336 -0.44273693328379465
v 0.02804185858348939 0.02940277101445173 -0.43595055900958457
v 0.08075369244656165 0.022248766803215515 -0.423393638778621
v 0.13590514900217732 0.01100859916357232 -0.404345782752841
v 0.19224755080111228 -0.004343143910851402 -0.3785176827832839
v 0.24342414942798804 -0.02038056136002081 -0.345790153845277
v 0.2861260666718925 -0.03578708982971488 -0.31074389372497174
v 0.3211796651961391 -0.05072007306799155 -0.2769244504206828
v 0.35130144679727016 -0.0657945093231874 -0.2446100287910279
v 0.37992300350960667 -0.0831713816347356 -0.21430028047980754
v 0.40223635076643965 -0.09834952463082625 -0.1894510292402246
v 0.4249192177884366 -0.11555012275202874 -0.1646295012728657
v -0.46460160945731704 -0.17574179252304542 -0.32837914333564994
v -0.49938705294126995 -0.21038297932302966 -0.2929373737997613
v -0.42650236884119325 -0.14241011558787867 -0.3623573780210725
v -0.38386904968922403 -0.11053357520177862 -0.39553395627682164
v -0.33868483957182377 -0.08139255625168283 -0.42430886657353195
v -0.29195523996780764 -0.05576563482144102 -0.4477823323652814
v -0.24749071773543888 -0.036450607814938814 -0.4663120683233052
v -0.20339905350369533 -0.021076121893453124 -0.47966444239426287
v -0.159194208864493 -0.009943688733411234 -0.48937335304012497
v -0.11432591262743573 -0.0019914094522443266 -0.49443502326245836
v -0.06809007211058091 0.0021442580948881564 -0.4960179596552013
v -0.019495813090694897 0.0028314641638965544 -0.4932324607654932
v 0.0325977071584702 -0.00019873457248094232 -0.48532060012150946
v 0.0884390900309855 -0.0069033275887467795 -0.47053156783011113
v 0.14640967037503344 -0.017835034589767033 -0.4489553600050384
v 0.2048278997057359 -0.03215565196194183 -0.4191800877831058
v 0.26051902284632056 -0.04934580075243467 -0.3830839937378071
v 0.3053819923696792 -0.06542921248538916 -0.34609420612663516
v 0.34268196852370014 -0.08204807117457596 -0.31201376398355546
v 0.3736629896589575 -0.09806542285125855 -0.28030033826943257
v 0.4007956635858207 -0.11453637048117994 -0.25161818554787724
v 0.4254478507534907 -0.13159316834188092 -0.22523643534842172
v 0.44454171722709235 -0.1453495715442999 -0.2015864650119284
f 1 2 3 4
f 2 5 6 3
f 7 8 6 5
f 9 10 8 7
f 9 11 12 10
f 11 13 14 12
f 14 13 15 16
f 15 17 18 16
f 17 19 20 18
f 21 22 20 19
f 21 23 24 22
f 25 24 23 26
f 26 27 28 25
f 27 29 30 28
f 29 31 32 30
f 31 33 34 32
f 34 33 35 36
f 37 36 35 38
f 38 39 40 37
f 41 42 40 39
f 41 43 44 42
f 45 44 43 46
f 4 3 47 48
f 49 47 3 6
f 49 6 8 50
f 8 10 51 50
f 10 12 52 51
f 12 14 53 52
f 16 54 53 14
f 16 18 55 54
f 18 20 56 55
f 20 22 57 56
f 22 24 58 57
f 24 25 59 58
f 60 59 25 28
f 28 30 61 60
f 30 32 62 61
f 32 34 63 62
f 63 34 36 64
f 65 64 36 37
f 37 40 66 65
f 42 67 66 40
f 42 44 68 67
f 68 44 45 69
f 47 70 71 48
f 72 70 47 49
f 50 73 72 49
f 51 74 73 50
f 51 52 75 74
f 52 53 76 75
f 77 76 53 54
f 54 55 78 77
f 56 79 78 55
f 56 57 80 79
f 57 58 81 80
f 58 59 82 81
f 82 59 60 83
f 60 61 84 83
f 61 62 85 84
f 62 63 86 85
f 86 63 64 87
f 87 64 65 88
f 65 66 89 88
f 67 90 89 66
f 67 68 91 90
f 91 68 69 92
f 93 94 71 70
f 70 72 95 93
f 95 72 73 96
f 73 74 97 96
f 98 97 74 75
f 99 98 75 76
f 76 77 100 99
f 77 78 101 100
f 101 78 79 102
f 102 79 80 103
f 104 103 80 81
f 105 104 81 82
f 82 83 106 105
f 83 84 107 106
f 108 107 84 85
f 85 86 109 108
f 86 87 110 109
f 87 88 111 110
f 89 112 111 88
f 89 90 113 112
f 114 113 90 91
f 114 91 92 115
f 116 117 94 93
f 93 95 118 116
f 95 96 119 118
f 96 97 120 119
f 121 120 97 98
f 121 98 99 122
f 99 100 123 122
f 100 101 124 123
f 124 101 102 125
f 126 125 102 103
f 103 104 127 126
f 104 105 128 127
f 128 105 106 129
f 106 107 130 129
f 130 107 108 131
f 108 109 132 131
f 109 110 133 132
f 133 110 111 134
f 112 135 134 111
f 112 113 136 135
f 113 114 137 136
f 138 137 114 115
f 117 116 139 140
f 118 141 139 116
f 141 118 119 142
f 119 120 143 142
f 120 121 144 143
f 144 121 122 145
f 146 145 122 123
f 146 123 124 147
f 147 124 125 148
f 125 126 149 148
f 126 127 150 149
f 127 128 151 150
f 151 128 129 152
f 129 130 153 152
f 130 131 154 153
f 131 132 155 154
f 156 155 132 133
f 133 134 157 156
f 134 135 158 157
f 135 136 159 158
f 136 137 160 159
f 160 137 138 161
f 140 139 162 163
f 164 162 139 141
f 164 141 142 165
f 142 143 166 165
f 166 143 144 167
f 168 167 144 145
f 146 169 168 145
f 147 170 169 146
f 147 148 171 170
f 171 148 149 172
f 172 149 150 173
f 173 150 151 174
f 151 152 175 174
f 175 152 153 176
f 153 154 177 176
f 154 155 178 177
f 155 156 179 178
f 156 157 180 179
f 181 180 157 158
f 158 159 182 181
f 182 159 160 183
f 184 183 160 161
f 163 162 185 186
f 185 162 164 187
f 164 165 188 187
f 166 189 188 165
f 190 189 166 167
f 190 167 168 191
f 168 169 192 191
f 192 169 170 193
f 193 170 171 194
f 195 194 171 172
f 195 172 173 196
f 173 174 197 196
f 198 197 174 175
f 175 176 199 198
f 199 176 177 200
f 201 200 177 178
f 178 179 202 201
f 203 202 179 180
f 203 180 181 204
f 181 182 205 204
f 182 183 206 205
f 183 184 207 206
f 185 208 209 186
f 185 187 210 208
f 187 188 211 210
f 188 189 212 211
f 189 190 213 212
f 190 191 214 213
f 215 214 191 192
f 192 193 216 215
f 193 194 217 216
f 194 195 218 217
f 218 195 196 219
f 220 219 196 197
f 197 198 221 220
f 199 222 221 198
f 199 200 223 222
f 223 200 201 224
f 202 225 224 201
f 202 203 226 225
f 203 204 227 226
f 228 227 204 205
f 228 205 206 229
f 206 207 230 229
f 231 232 209 208
f 208 210 233 231
f 234 233 210 211
f 234 211 212 235
f 212 213 236 235
f 236 213 214 237
f 214 215 238 237
f 215 216 239 238
f 240 239 216 217
f 217 218 241 240
f 218 219 242 241
f 219 220 243 242
f 244 243 220 221
f 221 222 245 244
f 222 223 246 245
f 223 224 247 246
f 247 224 225 248
f 225 226 249 248
f 226 227 250 249
f 227 228 251 250
f 229 252 251 228
f 229 230 253 252
f 232 231 254 255
f 231 233 256 254
f 233 234 257 256
f 234 235 258 257
f 259 258 235 236
f 259 236 237 260
f 260 237 238 261
f 261 238 239 262
f 262 239 240 263
f 263 240 241 264
f 241 242 265 264
f 242 243 266 265
f 266 243 244 267
f 267 244 245 268
f 245 246 269 268
f 246 247 270 269
f 248 271 270 247
f 249 272 271 248
f 249 250 273 272
f 250 251 274 273
f 274 251 252 275
f 252 253 276 275
f 255 254 277 278
f 254 256 279 277
f 256 257 280 279
f 257 258 281 280
f 258 259 282 281
f 259 260 283 282
f 261 284 283 260
f 261 262 285 284
f 285 262 263 286
f 264 287 286 263
f 287 264 265 288
f 265 266 289 288
f 290 289 266 267
f 290 267 268 291
f 291 268 269 292
f 293 292 269 270
f 293 270 271 294
f 271 272 295 294
f 272 273 296 295
f 296 273 274 297
f 298 297 274 275
f 298 275 276 299
f 300 278 277 301
f 277 279 302 301
f 279 280 303 302
f 303 280 281 304
f 281 282 305 304
f 306 305 282 283
f 283 284 307 306
f 284 285 308 307
f 308 285 286 309
f 310 309 286 287
f 287 288 311 310
f 312 311 288 289
f 312 289 290 313
f 290 291 314 313
f 291 292 315 314
f 292 293 316 315
f 294 317 316 293
f 294 295 318 317
f 295 296 319 318
f 296 297 320 319
f 297 298 321 320
f 298 299 322 321
f 323 324 300 301
f 301 302 325 323
f 302 303 326 325
f 303 304 327 326
f 327 304 305 328
f 329 328 305 306
f 306 307 330 329
f 308 331 330 307
f 308 309 332 331
f 332 309 310 333
f 311 334 333 310
f 335 334 311 312
f 313 336 335 312
f 314 337 336 313
f 314 315 338 337
f 315 316 339 338
f 340 339 316 317
f 317 318 341 340
f 319 342 341 318
f 319 320 343 342
f 320 321 344 343
f 321 322 345 344
f 346 324 323 347
f 323 325 348 347
f 325 326 349 348
f 326 327 350 349
f 350 327 328 351
f 351 328 329 352
f 329 330 353 352
f 331 354 353 330
f 331 332 355 354
f 355 332 333 356
f 357 356 333 334
f 334 335 358 357
f 358 335 336 359
f 359 336 337 360
f 360 337 338 361
f 362 361 338 339
f 363 362 339 340
f 340 341 364 363
f 365 364 341 342
f 342 343 366 365
f 344 367 366 343
f 367 344 345 368
f 369 370 346 347
f 347 348 371 369
f 372 371 348 349
f 349 350 373 372
f 350 351 374 373
f 351 352 375 374
f 352 353 376 375
f 353 354 377 376
f 354 355 378 377
f 355 356 379 378
f 380 379 356 357
f 357 358 381 380
f 358 359 382 381
f 382 359 360 383
f 360 361 384 383
f 361 362 385 384
f 363 386 385 362
f 363 364 387 386
f 364 365 388 387
f 365 366 389 388
f 390 389 366 367
f 367 368 391 390
f 370 369 392 393
f 371 394 392 369
f 371 372 395 394
f 372 373 396 395
f 397 396 373 374
f 397 374 375 398
f 399 398 375 376
f 399 376 377 400
f 377 378 401 400
f 401 378 379 402
f 402 379 380 403
f 380 381 404 403
f 404 381 382 405
f 405 382 383 406
f 383 384 407 406
f 384 385 408 407
f 409 408 385 386
f 386 387 410 409
f 387 388 411 410
f 389 412 411 388
f 389 390 413 412
f 390 391 414 413
f 415 393 392 416
f 392 394 417 416
f 418 417 394 395
f 395 396 419 418
f 419 396 397 420
f 397 398 421 420
f 399 422 421 398
f 422 399 400 423
f 423 400 401 424
f 424 401 402 425
f 402 403 426 425
f 403 404 427 426
f 404 405 428 427
f 406 429 428 405
f 430 429 406 407
f 407 408 431 430
f 408 409 432 431
f 409 410 433 432
f 434 433 410 411
f 411 412 435 434
f 435 412 413 436
f 437 436 413 414
f 415 416 438 439
f 438 416 417 440
f 417 418 441 440
f 419 442 441 418
f 443 442 419 420
f 443 420 421 444
f 421 422 445 444
f 445 422 423 446
f 446 423 424 447
f 448 447 424 425
f 448 425 426 449
f 426 427 450 449
f 451 450 427 428
f 428 429 452 451
f 452 429 430 453
f 454 453 430 431
f 431 432 455 454
f 456 455 432 433
f 456 433 434 457
f 434 435 458 457
f 435 436 459 458
f 436 437 460 459
f 438 461 462 439
f 438 440 463 461
f 440 441 464 463
f 441 442 465 464
f 442 443 466 465
f 443 444 467 466
f 468 467 444 445
f 445 446 469 468
f 446 447 470 469
f 447 448 471 470
f 471 448 449 472
f 473 472 449 450
f 450 451 474 473
f 452 475 474 451
f 452 453 476 475
f 476 453 454 477
f 455 478 477 454
f 455 456 479 478
f 456 457 480 479
f 458 481 480 457
f 481 458 459 482
f 459 460 483 482
f 462 461 484 485
f 484 461 463 486
f 463 464 487 486
f 464 465 488 487
f 488 465 466 489
f 466 467 490 489
f 467 468 491 490
f 468 469 492 491
f 469 470 493 492
f 470 471 494 493
f 471 472 495 494
f 495 472 473 496
f 496 473 474 497
f 474 475 498 497
f 476 499 498 475
f 476 477 500 499
f 500 477 478 501
f 501 478 479 502
f 502 479 480 503
f 480 481 504 503
f 481 482 505 504
f 506 505 482 483
f 485 484 507 508
f 507 484 486 509
f 509 486 487 510
f 487 488 511 510
f 488 489 512 511
f 512 489 490 513
f 490 491 514 513
f 515 514 491 492
f 516 515 492 493
f 493 494 517 516
f 494 495 518 517
f 495 496 519 518
f 519 496 497 520
f 497 498 521 520
f 498 499 522 521
f 522 499 500 523
f 500 501 524 523
f 501 502 525 524
f 502 503 526 525
f 527 526 503 504
f 527 504 505 528
f 505 506 529 528
