v -9.375106536155737e-06 -9.562689251811144e-06 0.3632338332597052
v 0.05903258579471475 -0.012307580656650675 0.3758992525084489
v 0.04679050906444094 0.04761117968490533 0.4074252013023148
v -0.012748076302600886 0.05941963411676496 0.37592963537492724
v 0.12180444610890183 -0.01882009513537685 0.40639678509346455
v 0.11152298634265806 0.04247422027169197 0.4566244837408086
v 0.19129070993706218 -0.014622960723547514 0.4394156573817633
v 0.18561789645295126 0.050275605525903315 0.5045460059652668
v 0.2679671868450368 0.0024417133472041993 0.45393457755716005
v 0.27014036519134316 0.0739883920530107 0.528412916155802
v 0.34740061674297523 0.029115856211818437 0.433397731782684
v 0.3590704493465273 0.10895145282930949 0.5083617580305592
v 0.42087215771083797 0.05699265658533293 0.3715728345719626
v 0.4407708902535319 0.14397755714060417 0.4375872077128075
v 0.4784082503894874 0.07538407759345885 0.2751756679884999
v 0.5023307042578032 0.16553020220041093 0.32418023715288
v 0.5148230288105045 0.07748924597467188 0.15877532775882391
v 0.5361730909955652 0.16455139551573236 0.18728051848166882
v 0.5326808507261043 0.0636845605276608 0.03840794193522597
v 0.5455831979047897 0.14233711971691737 0.04453542113939547
v 0.5429410570929605 0.042719597523426335 -0.07291583030604262
v 0.5451348680348922 0.11139599545542432 -0.08950779683269329
v 0.04129445575740956 0.11263322083557654 0.45671219966061755
v -0.019631700195020023 0.12248982259181335 0.40651342316501726
v 0.10927025382012204 0.11071229879445751 0.5216500260421092
v 0.1900974520704195 0.12477889039337096 0.582444462043352
v 0.28358801543936524 0.15675039369913882 0.6127551692138204
v 0.38346270559133844 0.20186533515052738 0.5900310491958497
v 0.47336279562492567 0.24429597591106117 0.5067237855629869
v 0.5373003245562069 0.26755469926293796 0.3732407516915929
v 0.5656804050620388 0.26068614469713564 0.21160897801044906
v 0.562043480998122 0.22549268812459858 0.04396493899982233
v 0.5449494302993428 0.17862205885696833 -0.11818060457132623
v 0.04889334486681227 0.1868420666951636 0.5047648210325003
v -0.015676284400988397 0.19212519800596858 0.4396592315637472
v 0.12318258481360135 0.1916069364181551 0.5825792860133496
v 0.21189767001879597 0.213515119444348 0.6526527662942607
v 0.3172889684729557 0.25703123558304986 0.6860066535069254
v 0.4270076708460474 0.31156975903708906 0.6595867061033677
v 0.5241705075754857 0.36080990497028154 0.5620584350652168
v 0.587359712348264 0.38293096891009887 0.40822012226084947
v 0.6060279022807161 0.36622499359841765 0.22327676561337287
v 0.583579273061679 0.3126207067707195 0.030901730610996037
v 0.5419703391161245 0.24238167273358302 -0.15915931314466514
v 0.07260570687369994 0.27127731250496945 0.5287803589472746
v 0.0013236042609760905 0.2687757107095368 0.4543193298182369
v 0.1552133931375914 0.2849513370189763 0.6130472391249909
v 0.2555404666428505 0.31869202149334613 0.6861706917716137
v 0.37067370987605297 0.3719140757928845 0.720933584417212
v 0.49077436918912465 0.43656786619424554 0.6866100017280256
v 0.5912525536336716 0.48900325257349936 0.5799174255526042
v 0.6499350517538534 0.506570647882005 0.40902986947393966
v 0.6545146845895715 0.47608122226376604 0.20690839799471133
v 0.609146710828293 0.40052345199417017 -0.0018678707078540828
v 0.5356776165576105 0.30043695820568916 -0.2123696999852614
v 0.10775182259463739 0.3599664882825603 0.5088598617550361
v 0.028101519923589037 0.3480484072098737 0.4339032121165703
v 0.20058777578476777 0.3845067149299799 0.5904675107585292
v 0.3103841334049343 0.42804182036023075 0.6599078442377555
v 0.43565904600428546 0.49161610605490114 0.686776961422183
v 0.5606807437044047 0.5611999547567956 0.6503001391428166
v 0.660784145265938 0.6131325631244221 0.5329972963144074
v 0.712309835026391 0.6238493158815577 0.35805954345555735
v 0.7002309657793003 0.5773805474963325 0.14953163277573145
v 0.6318444649453052 0.4803914627845673 -0.06299681038330567
v 0.5254087919738205 0.35031189424464276 -0.277353045889668
v 0.14307245264375004 0.4413652550790147 0.4381599539602192
v 0.05619499222193749 0.4213010235568978 0.3721428054613787
v 0.2433758351819084 0.47403552779591634 0.5072513226893648
v 0.36001695597663846 0.5247894124085087 0.5624910987695864
v 0.4884807549129558 0.5916765260853707 0.5802125629647172
v 0.6129580807493817 0.6609221828083517 0.5331375979646595
v 0.7100455080806496 0.709892717319417 0.41938356158380624
v 0.75 0.7091699556687685 0.24612679924146058
v 0.726344528267289 0.6520985893829118 0.046993840555488386
v 0.6401982194763814 0.5392709382867014 -0.15443948821229989
v 0.5102537670494015 0.3893104944417126 -0.353448763160492
v 0.1649357643391914 0.5026581965012863 0.3247418089325725
v 0.074835734411581 0.4786411613539092 0.2757270147650506
v 0.2669855865434284 0.5376546209150687 0.37377383953396187
v 0.38249542029412853 0.5876404617202419 0.40868126990254255
v 0.5063722097853183 0.6500400041075298 0.40938058708170183
v 0.6239394419806785 0.7121769099855482 0.35827711691526654
v 0.709507234700973 0.749651108285656 0.24621838605531599
v 0.7450969649220556 0.7446224517405414 0.08830807530335028
v 0.7117774775413892 0.6784337422961296 -0.09047533775498176
v 0.6230489902785052 0.5648910348194953 -0.2704483021163176
v 0.4886434785343831 0.4143691287484192 -0.4413793920588049
v 0.16421280184026685 0.5363231063988021 0.18773348612084853
v 0.07716392654435647 0.5149248771453699 0.15921569673341823
v 0.260385219202887 0.5658300187687236 0.21204711939507323
v 0.3660355754152167 0.6061083146268523 0.2236676163584664
v 0.47607220235028025 0.6544582279650817 0.20722007800119302
v 0.5775794968431763 0.7000022908876087 0.14974482409123702
v 0.6524718750333225 0.7259629165428914 0.04710887184083312
v 0.678883861541577 0.7113272122244684 -0.09043584368034673
v 0.6499313999670171 0.6495294843078094 -0.24443498117698648
v 0.5729447585440979 0.5487112819909308 -0.39638710956251544
v 0.4580870061098289 0.42084933404311087 -0.5389456736331886
v 0.14218347078577834 0.545641005690409 0.044792178271858586
v 0.06353485096157147 0.5327171129693891 0.03865542352912478
v 0.22536226455773867 0.5620969796752744 0.04421672970218802
v 0.3125541712145614 0.5835914700297123 0.031130149877609148
v 0.40056000638040196 0.6090792258075574 -0.0016817391328057978
v 0.4805458238141394 0.6316780165013048 -0.06286629552177485
v 0.5395203918454918 0.639947560827935 -0.15436577689500836
v 0.5651797450867764 0.6227619598331688 -0.270419106080561
v 0.5489686234092878 0.5726884031081867 -0.3963817208945651
v 0.4793176913832097 0.4792017836690242 -0.5146599765282618
v 0.41612914393206196 0.404025223427274 -0.6390283147865572
v 0.11139592241968758 0.5451349410706289 -0.08950779683269329
v 0.042719524487689606 0.5429411301286973 -0.07291583030604262
v 0.1786219858212316 0.5449495033350795 -0.11818060457132623
v 0.24238159969784628 0.5419704121518611 -0.15915931314466514
v 0.30043688516995243 0.5356776895933473 -0.2123696999852614
v 0.350311821208906 0.5254088650095572 -0.277353045889668
v 0.3893104214059759 0.5102538400851382 -0.353448763160492
v 0.41436905571268245 0.48864355157011985 -0.4413793920588049
v 0.42084926100737413 0.4580870791455656 -0.5389456736331886
v 0.4040251503915373 0.4161292169677987 -0.6390283147865572
v 0.35944786151606317 0.3594479345517999 -0.7209327079883714
v -0.07147370773123686 0.07140009227334979 0.36792769398766406
v -0.059051305766984544 0.012288566259067204 0.3758993255441856
v -0.07864757450022497 0.13299425133281698 0.3793078303414893
v -0.07670613854655281 0.19909972742576149 0.3950037944499754
v -0.06431773015301327 0.2695699743464409 0.39762008061100335
v -0.04389053384303188 0.3410731656916477 0.37304348216669375
v -0.02197442415703735 0.4070185930970225 0.315925884259489
v -0.006366687789108921 0.460544841240028 0.23119639572534492
v -0.0027576956150524414 0.4977784233054893 0.13060139061990347
v -0.01105380811739628 0.5211579295069781 0.027116945698075816
v -0.025698831339352225 0.5386497328279715 -0.06786347366436019
v -0.1327611121317179 0.07819007864536821 0.37922267067246584
v -0.12182308848070135 0.018801331798138376 0.4063965659862544
v -0.13908631733414106 0.13893274143873877 0.3703268449034032
v -0.1377446508504695 0.202472846408621 0.36759063406266984
v -0.12799554856922749 0.2683569785719478 0.35621670574646636
v -0.11193412276362748 0.33382564694690414 0.32445404812986883
v -0.09436094850245334 0.3941801156701046 0.2680434361541796
v -0.0812571778913424 0.4444520009381684 0.19052440072839028
v -0.07689669791314016 0.48222874977766705 0.1010162934938159
v -0.0817508538242802 0.5095183702162992 0.009965817571044661
v -0.09242324650082133 0.5324114949290557 -0.07361861668269638
v -0.19869363047062621 0.07597878477395756 0.3947943279570429
v -0.19130900538911225 0.014604745154334494 0.4394146348814491
v -0.20243702237975653 0.13730150651787956 0.36746727670333823
v -0.19999832261257983 0.19974485208826942 0.3471564034982949
v -0.191019674318069 0.26275995792362516 0.3215716197442084
v -0.17726136656387942 0.3241782469290542 0.2815912731740567
v -0.16236362828101483 0.3806125224834429 0.22354732650007733
v -0.15074918415430288 0.4286928243995452 0.15016773752475363
v -0.14575709112488716 0.4669644268732364 0.06835383560074401
v -0.14819151830146532 0.49721685152579687 -0.013741436499005668
v -0.1561802037025126 0.524343383164318 -0.08937242509467014
v -0.2691353934539822 0.06347005456889415 0.3972730878258142
v -0.2679847701986538 -0.0024591121144084366 0.4539326786280052
v -0.26825197144146884 0.12739160693276635 0.35595691763092907
v -0.26291961404410996 0.19058609766699025 0.3214340934519518
v -0.25294015704923156 0.2526052151606024 0.28423107684231064
v -0.23972331798820043 0.3118563147501367 0.23701898724654835
v -0.22596740215438868 0.36600110254748164 0.17715652376380808
v -0.21491430157069194 0.4128613424815625 0.10661375235655891
v -0.209160290606275 0.4516945532528145 0.03060516900201681
v -0.20968446808876334 0.4842332886078712 -0.044680251005324745
v -0.21581744323212154 0.5145541112278763 -0.1142552258652069
v -0.340723799245015 0.04307383454075202 0.3725797052384785
v -0.3474171958552122 -0.02913222991104588 0.4333952485676353
v -0.33374256879637737 0.1113024001588089 0.3240764533709912
v -0.3243139473278926 0.17676318980366582 0.28133170416572956
v -0.3121421401058171 0.23931068433462813 0.2368928910470895
v -0.2982422525759826 0.2978845783142972 0.1854935165933055
v -0.2845447653315523 0.3510005847241082 0.12523563763192627
v -0.27333807059351906 0.3973279559230303 0.05766450776274935
v -0.2666194766541511 0.4366884481955815 -0.013254908938799997
v -0.26547537183832554 0.47079106126330106 -0.08286521483632375
v -0.27015685300890924 0.5032708567788192 -0.14736177755544616
v -0.40680375847744055 0.021297380595213012 0.3153999539193192
v -0.42088764128702405 -0.0570080077842462 0.3715704974283874
v -0.3941600308425047 0.09380582212652701 0.2675986485175133
v -0.380755526455954 0.16189808023618393 0.22321085086097692
v -0.3662578231620764 0.2255632223873425 0.17694289423388215
v -0.35131252035566846 0.28418752928428725 0.1251409102813916
v -0.33717824288774345 0.3368677314530494 0.06667492660273637
v -0.32546422366347155 0.38293882025179704 0.002967642831486446
v -0.31764114679545236 0.4224924920479907 -0.0630173334253259
v -0.31484804111580883 0.4572797786296558 -0.12762921957273995
v -0.3180848023781994 0.49080069857221464 -0.18770759495217887
v -0.46045340049764605 0.005877444212443721 0.2306873731582274
v -0.47842296709043786 -0.07539872125867257 0.2751740612022919
v -0.4444883727350583 0.08083518653400196 0.1900856750578723
v -0.4288389689087356 0.15037721314715322 0.14982074473956455
v -0.41308461272873637 0.21457864758362968 0.10637090853194225
v -0.3975874153777523 0.273034990545037 0.05752420611249714
v -0.3831934958657634 0.3251992134927583 0.0029124643323893383
v -0.370960302106969 0.370743349451022 -0.05620291659937235
v -0.3618640297584596 0.4098310167290303 -0.11738161187046907
v -0.3573513341754516 0.4441636923674393 -0.17768519294410512
v -0.35881825694760966 0.47732063871602004 -0.23419496006186807
v -0.49776264758635635 0.0024507075840637677 0.1301957136202544
v -0.5148374898863763 -0.07750364314427416 0.15877470695506174
v -0.4822888581889932 0.0766210153953977 0.10066353088542539
v -0.46709070566203703 0.14550383057831984 0.06806888667390434
v -0.45186724625230507 0.20892391044435868 0.03039723625955557
v -0.4368816642370923 0.26640146498002154 -0.01338604460409299
v -0.42267939049827463 0.31744844200409866 -0.06308321165985349
v -0.4099895773134642 0.3617055787276308 -0.11740277397518567
v -0.39985396991346384 0.39973798916354164 -0.17411763457114462
v -0.3927402526384038 0.4318684912681638 -0.23148359050108894
v -0.39187905174878956 0.4628816196366024 -0.28566619255112413
v -0.52117038210009 0.010903144521995953 0.026889695003250332
v -0.532695494391318 -0.06369911289820361 0.03840797845309433
v -0.5095672676420379 0.0816119398530258 0.009767452510094634
v -0.49729773860422183 0.14805954272519997 -0.013902955030777016
v -0.4843366341753396 0.20955753197833216 -0.044799481845531265
v -0.47090353629786036 0.2653556662658303 -0.0829417928062818
v -0.45738746982345946 0.3147405690292153 -0.12766917012072954
v -0.4442550600740845 0.3572616462907511 -0.17769974531464794
v -0.4319365605747932 0.3926729136891417 -0.23148598242146673
v -0.42213750184963 0.4220969304978783 -0.2860932690216342
v -0.4173227304595199 0.44726300037331 -0.34085681558052866
v -0.5386646321182638 0.02568394574326059 -0.06786343714649182
v -0.5429560294189895 -0.04273441008378124 -0.07291583030604262
v -0.532426394219348 0.09240834721052907 -0.07361861668269638
v -0.5243582824546104 0.15616530441222032 -0.08937242509467014
v -0.5145689740003002 0.21580263523650017 -0.11425520760627271
v -0.5032858656227166 0.27014188068288025 -0.14736179581438036
v -0.4908155978625069 0.3180699030879071 -0.18770759495217887
v -0.47733553800631234 0.3588033576573174 -0.23419496006186807
v -0.46289651892689465 0.3918641524584973 -0.28566619255112413
v -0.44727789966360226 0.41730783116922765 -0.34085681558052866
v -0.43291268319614706 0.43289778390585476 -0.39833918134534846
v -0.04680982245207164 -0.04763070761501266 0.40742498219510465
v 0.012729367742164958 -0.05943866449091584 0.375929708410664
v -0.11154263295583758 -0.04249387144960502 0.45662324213328426
v -0.1856374335125257 -0.05029494630193528 0.504543011500061
v -0.27015906233994524 -0.0740068016233994 0.528408095797178
v -0.3590877588161316 -0.10896847015596683 0.5083557691001476
v -0.4407866294547965 -0.1439930954935928 0.4375815109253428
v -0.5023452748872803 -0.16554466327628284 0.3241758550086764
v -0.5361872964463585 -0.16456550967185482 0.18727799874875176
v -0.54559769549853 -0.14235149862758548 0.04453454471055475
v -0.5451499133966579 -0.11141083083944694 -0.08950783335056164
v -0.04131408867638844 -0.11265290396662442 0.45671088501735646
v 0.019613082929255003 -0.1225086384234876 0.4065132040578071
v -0.10929063079066882 -0.11073252056406375 0.521646593362483
v -0.19011777426416374 -0.12479886566736574 0.5824378888270465
v -0.2836072603559927 -0.15676923691921435 0.6127455284965725
v -0.3834800150609427 -0.20188227944144801 0.5900197286566571
v -0.47337795054029647 -0.24431089346028761 0.5067127571667412
v -0.5373139457211064 -0.26756817435636404 0.37323198740318564
v -0.5656936610482547 -0.2606992911297465 0.21160339077658946
v -0.5620574308238367 -0.22550652839670832 0.04396241926690525
v -0.5449644026253718 -0.17863683033472133 -0.11818053153558951
v -0.048912849973251876 -0.18686147594219873 0.5047618265672945
v 0.015658033455090398 -0.19214349345801865 0.43965828209916974
v -0.12320287961894431 -0.19162694821001824 0.5825727127970443
v -0.2119178096231984 -0.21353482083433006 0.6526415187908048
v -0.3173074830322159 -0.25704931192788977 0.6859910238592658
v -0.4270236656723906 -0.3115853156490119 0.6595685932406594
v -0.5241836905259649 -0.3608228322956822 0.562040979524139
v -0.587371069405325 -0.3829422164135548 0.4082059533279245
v -0.6060391497841721 -0.36623616806613685 0.22326723444973
v -0.5835920908334745 -0.31263341498891 0.030897092841713884
v -0.5419853114421535 -0.24239649898813856 -0.15915933140359934
v -0.07262439489283491 -0.2712957722874272 0.5287755385886506
v -0.0013411676438838096 -0.2687931845095487 0.45431743088908205
v -0.15523265631315308 -0.2849702167569202 0.6130375984077431
v -0.25555901771997913 -0.318710097838186 0.6861550621239542
v -0.3706900698810798 -0.37192996106562254 0.7209123310178246
v -0.49078729651452524 -0.43658042834096256 0.6865858999349057
v -0.5912621578330511 -0.48901263766566877 0.5798940541168516
v -0.6499427205062097 -0.506578280116493 0.40901080714665394
v -0.654522864592085 -0.47608936574841104 0.20689532459783724
v -0.609157666188802 -0.4005343343189425 -0.0018745534777645865
v -0.5356925888836395 -0.30045183923704727 -0.21236984605673484
v -0.10776914119370874 -0.359983542127086 0.5088538728246245
v -0.028118108165293115 -0.3480648037327689 0.4339007289015216
v -0.2006051035133062 -0.38452365922090054 0.5904560441478631
v -0.3104001282312775 -0.42805737697215357 0.6598897313750473
v -0.4356719733296861 -0.49162866820161816 0.6867528596290632
v -0.5606895810285486 -0.5612084999379926 0.6502726046700705
v -0.6607892577675089 -0.6131376025902562 0.5329710034491857
v -0.7123131946702804 -0.6238526755254471 0.35803785184174947
v -0.7002356400664508 -0.5773852583013513 0.14951673348543917
v -0.6318533022694491 -0.48040022707297453 -0.06300451565353034
v -0.5254237642998495 -0.350326793534935 -0.27735320109060857
v -0.14308825575128428 -0.4413807751730691 0.4381541841370178
v -0.05621055339859385 -0.42131636106161047 0.3721404683178034
v -0.24339106313301595 -0.4740504270862086 0.507240294293119
v -0.36003017544498606 -0.524802303216041 0.5624736432285087
v -0.48849035911233535 -0.5916858746596717 0.580189118493228
v -0.6129631932509526 -0.6609272222741858 0.5331113050994379
v -0.7100467496881739 -0.7098939589269414 0.4193580721116886
v -0.75 -0.7091699556687685 0.24610605709223016
v -0.7263464271964438 -0.6521004883120667 0.04697967162256339
v -0.6402053769785807 -0.5392780592710322 -0.1544468648217093
v -0.5102688124111673 -0.3893252841783998 -0.35344853492381473
v -0.1649504262633393 -0.5026726210592899 0.32473742678836887
v -0.07485054697193592 -0.47865573198338623 0.2757254079788426
v -0.2669992990029989 -0.5376680594906263 0.3737650752455547
v -0.3825068503869263 -0.587651636187961 0.4086670279338808
v -0.5063799515734113 -0.6500475998241494 0.4093615247544161
v -0.6239428746603047 -0.7121802696294376 0.35825542530145865
v -0.709507234700973 -0.749651108285656 0.2461976439060856
v -0.7450957963502679 -0.7446213562044905 0.08829127708390311
v -0.7117787191489136 -0.6784351299751274 -0.0904867678477795
v -0.6230556365305474 -0.5648977175894059 -0.27045393499751263
v -0.48865841434254376 -0.41438395500297476 -0.4413796157307486
v -0.16422708032679695 -0.536337165778122 0.18773096638793146
v -0.07717847891489929 -0.5149391921497685 0.15921507592965606
v -0.26039854822483965 -0.5658430921655977 0.21204153216121363
v -0.3660468959544093 -0.6061194160588349 0.22365804867695518
v -0.47608041887066205 -0.6544663349318584 0.20720696808645056
v -0.5775842076481952 -0.7000068921390225 0.14972992480094474
v -0.6524737009267407 -0.7259648154720463 0.04709466639003976
v -0.6788851031491013 -0.7113285268677295 -0.09044727377314447
v -0.6499348326466432 -0.6495329169874355 -0.24444246734000097
v -0.5729526829215327 -0.5487192063683657 -0.39639076363171855
v -0.4581021975430681 -0.4208643428870082 -0.5389454910438467
v -0.142198004897387 -0.5456553937305442 0.04479130184301786
v -0.0635495448388542 -0.5327316470809977 0.03865546004699314
v -0.22537626916025602 -0.5621108199473841 0.04421417345140258
v -0.3125670255042253 -0.5836041417300345 0.03112547559045863
v -0.40057099825877934 -0.6090900716144613 -0.0016884584205846646
v -0.4805546611382834 -0.6316867807897121 -0.06287400079199953
v -0.5395275128298227 -0.6399547183301343 -0.15437317176335194
v -0.5651864278566869 -0.622768606085211 -0.2704247389617561
v -0.5489765477867226 -0.5726962909677532 -0.3963853749637682
v -0.47932952317255945 -0.47921354242263725 -0.5146618663279496
v -0.4161440797402226 -0.4040399766460928 -0.6390283147865572
v -0.11141090387518368 -0.5451498403609212 -0.08950783335056164
v -0.04273448311951797 -0.5429559563832528 -0.07291583030604262
v -0.17863690337045804 -0.544964329589635 -0.11818053153558951
v -0.24239657202387527 -0.5419852384064167 -0.15915933140359934
v -0.300451912272784 -0.5356925158479028 -0.21236984605673484
v -0.35032686657067175 -0.5254236912641127 -0.27735320109060857
v -0.3893253572141365 -0.5102687393754305 -0.35344853492381473
v -0.4143840280387115 -0.488658341306807 -0.4413796157307486
v -0.4208644159227449 -0.45810212450733134 -0.5389454910438467
v -0.40404004968182955 -0.41614400670448587 -0.6390283147865572
v -0.35946334509224925 -0.3594632720565125 -0.720933584417212
v 0.07145555835066025 -0.07141853836160685 0.36792769398766406
v 0.0786299820171409 -0.13301205379364414 0.37930790337722603
v 0.07668909383149419 -0.1991168543060239 0.39500364837850194
v 0.06430130624171683 -0.2695863526104019 0.39761956936084625
v 0.043874808335967894 -0.34108875882143885 0.37304267877358976
v 0.021959335430302946 -0.40703349238731473 0.3159252269378584
v 0.006352028147327785 -0.4605593023158999 0.23119617661813474
v 0.0027431489504265555 -0.4977927748277562 0.13060160972711365
v 0.011039108534196622 -0.5211724636185867 0.02711731087675945
v 0.025683872707523862 -0.538664559082527 -0.06786343714649182
v 0.13274350138969965 -0.07820784458832701 0.3792225976367291
v 0.1390695465030952 -0.13894962182338974 0.3703268449034032
v 0.13772853734105414 -0.20248898730643763 0.36759063406266984
v 0.12797999195730467 -0.26837246214813393 0.3562166327107296
v 0.11191904088399339 -0.3338406192729331 0.32445390205839536
v 0.0943462318015029 -0.3941946497817132 0.2680434361541796
v 0.08124267116813504 -0.44446631594256686 0.19052461983560046
v 0.07688217293099861 -0.48224310129993386 0.10101669519036789
v 0.08173615538226393 -0.5095329043279079 0.009966146231859931
v 0.09240827417479233 -0.5324263211836113 -0.07361861668269638
v 0.19867655836716633 -0.07599585231268391 0.39479447402851636
v 0.20242089974087407 -0.13731762002729492 0.36746727670333823
v 0.1999828755542621 -0.1997602443697846 0.3471564034982949
v 0.1910046654741716 -0.2627748572139174 0.3215716197442084
v 0.17724666812186315 -0.3241928175585312 0.2815912731740567
v 0.16234909416940618 -0.3806268740057097 0.22354743605368244
v 0.1507346956900297 -0.42870713940394367 0.15016799314983217
v 0.14574253875434434 -0.46697881491337156 0.06835416426155928
v 0.14817680160051486 -0.4972314221552739 -0.013741180873927124
v 0.15616523137648358 -0.5243582094188737 -0.08937242509467014
v 0.2691189421542845 -0.06348638262078614 0.3972735990759713
v 0.268236414829546 -0.12740706312055117 0.3559569906666658
v 0.26290460520021264 -0.19060097869834833 0.3214340934519518
v 0.2529254586072153 -0.25261976753114523 0.28423107684231064
v 0.2397087656176576 -0.3118707027902719 0.2370190237644167
v 0.2259529045606484 -0.36601541755188005 0.17715663331741316
v 0.21489976745908332 -0.4128757305216977 0.10661389842803236
v 0.20914566519999545 -0.45170905084655477 0.030605351591358625
v 0.20966967835207617 -0.4842479322730849 -0.044680104933851286
v 0.21580256220076346 -0.5145689009645635 -0.11425520760627271
v 0.3407080965616187 -0.04308940484687546 0.3725805086315825
v 0.3337274869167433 -0.11131734509643663 0.3240765264067279
v 0.32429926714481055 -0.1767777604331428 0.28133170416572956
v 0.31212760599420847 -0.2393250723747633 0.23689285452922113
v 0.29822771846437396 -0.297898929836564 0.1854935165933055
v 0.2845301947020753 -0.3510149727642434 0.125235710667663
v 0.27332342692830536 -0.39734245351677056 0.057664580798486076
v 0.26660472343533226 -0.4367030188250585 -0.013254799385194907
v 0.2654605273248358 -0.47080577796425155 -0.08286514180058702
v 0.2701418076471435 -0.5032857925869798 -0.14736179581438036
v 0.4067887131156748 -0.021312307273906556 0.3154006112409497
v 0.394145387177291 -0.09382038362653693 0.2675986485175133
v 0.3807410288622137 -0.1619124682763191 0.2232107413073718
v 0.3662433255683361 -0.2255775739096093 0.17694282119814542
v 0.35129794972619144 -0.28420193558335666 0.1251409102813916
v 0.33716356270466136 -0.33688222904678966 0.06667492660273637
v 0.3254495069625211 -0.3829534273991424 0.0029676793493548094
v 0.31762628402302845 -0.4225071722310728 -0.06301729690745754
v 0.3148331418255165 -0.45729456836634297 -0.12762920131380578
v 0.3180698300521704 -0.49081552482677016 -0.18770759495217887
v 0.4604387933503007 -0.005891961206301562 0.23068762878330593
v 0.4444739116591864 -0.08084956544467005 0.1900854924685305
v 0.42882450783286363 -0.15039156466942005 0.14982052563235437
v 0.4130701151349961 -0.21459303562376486 0.1063707624604688
v 0.3975727717125385 -0.2730494881387772 0.057524133076760416
v 0.3831787426469446 -0.32521378412223534 0.002912427814520975
v 0.3709454393345451 -0.3707580296341041 -0.05620288008150399
v 0.36184913046816736 -0.40984576994784905 -0.11738161187046907
v 0.357336398367291 -0.44417848210412647 -0.17768519294410512
v 0.3588032846215807 -0.4773354649705756 -0.23419496006186807
v 0.4977481499926161 -0.002465123583191916 0.13019553103091258
v 0.4822743971131213 -0.07663541256499998 0.10066316570674175
v 0.4670761715504284 -0.14551825513632338 0.06806859453095744
v 0.4518526391049597 -0.20893840803809893 0.030397090188082114
v 0.43686691101827346 -0.2664160721273669 -0.013386117639829718
v 0.42266456424371907 -0.3174631587050491 -0.06308321165985349
v 0.4099747145410403 -0.3617203319464496 -0.11740277397518567
v 0.3998390341053032 -0.39975277890022887 -0.17411763457114462
v 0.3927252803123748 -0.43188328100485096 -0.23148359050108894
v 0.3918640794227606 -0.46289644589115797 -0.28566619255112413
v 0.5211557019170079 -0.01091771286910618 0.0268893298245667
v 0.5095525874589557 -0.08162650135303572 0.009767087331411
v 0.49728302190327134 -0.14807413161361116 -0.013903174137987197
v 0.48432184443865245 -0.20957219390248005 -0.044799591399136356
v 0.47088867352543645 -0.2653703647078466 -0.08294184758308436
v 0.4573725340152988 -0.31475532224803415 -0.12766917012072954
v 0.4442401242659239 -0.35727647254530664 -0.17769974531464794
v 0.4319215882487642 -0.39268770342582887 -0.23148598242146673
v 0.4221225660414694 -0.42211175675243384 -0.2860932690216342
v 0.4173077581334909 -0.4472778266278655 -0.34085681558052866
v 0.5386496597922348 -0.025698758303615496 -0.06786347366436019
v 0.532411421893319 -0.09242317346508461 -0.07361861668269638
v 0.5243433101285814 -0.15618013066677586 -0.08937242509467014
v 0.5145540381921396 -0.2158173701963848 -0.1142552258652069
v 0.5032707837430824 -0.2701567799731725 -0.14736177755544616
v 0.4908006255364779 -0.3180847293424627 -0.18770759495217887
v 0.4773205656802833 -0.3588181839118729 -0.23419496006186807
v 0.46288154660086567 -0.3918789787130529 -0.28566619255112413
v 0.4472629273375733 -0.41732265742378316 -0.34085681558052866
v 0.4328977108701181 -0.4329126101604103 -0.39833918134534846
f 1 2 3 4
f 2 5 6 3
f 7 8 6 5
f 7 9 10 8
f 9 11 12 10
f 14 12 11 13
f 13 15 16 14
f 17 18 16 15
f 19 20 18 17
f 19 21 22 20
f 23 24 4 3
f 6 25 23 3
f 6 8 26 25
f 8 10 27 26
f 27 10 12 28
f 28 12 14 29
f 14 16 30 29
f 18 31 30 16
f 18 20 32 31
f 33 32 20 22
f 24 23 34 35
f 25 36 34 23
f 25 26 37 36
f 26 27 38 37
f 27 28 39 38
f 40 39 28 29
f 29 30 41 40
f 41 30 31 42
f 31 32 43 42
f 44 43 32 33
f 35 34 45 46
f 34 36 47 45
f 47 36 37 48
f 37 38 49 48
f 50 49 38 39
f 39 40 51 50
f 40 41 52 51
f 53 52 41 42
f 42 43 54 53
f 54 43 44 55
f 46 45 56 57
f 58 56 45 47
f 48 59 58 47
f 49 60 59 48
f 49 50 61 60
f 50 51 62 61
f 51 52 63 62
f 53 64 63 52
f 53 54 65 64
f 54 55 66 65
f 57 56 67 68
f 67 56 58 69
f 58 59 70 69
f 59 60 71 70
f 60 61 72 71
f 72 61 62 73
f 62 63 74 73
f 63 64 75 74
f 64 65 76 75
f 76 65 66 77
f 78 79 68 67
f 67 69 80 78
f 80 69 70 81
f 70 71 82 81
f 82 71 72 83
f 83 72 73 84
f 73 74 85 84
f 85 74 75 86
f 75 76 87 86
f 77 88 87 76
f 79 78 89 90
f 78 80 91 89
f 92 91 80 81
f 81 82 93 92
f 82 83 94 93
f 83 84 95 94
f 84 85 96 95
f 85 86 97 96
f 86 87 98 97
f 87 88 99 98
f 100 101 90 89
f 89 91 102 100
f 91 92 103 102
f 93 104 103 92
f 93 94 105 104
f 95 106 105 94
f 95 96 107 106
f 96 97 108 107
f 108 97 98 109
f 109 98 99 110
f 112 101 100 111
f 102 113 111 100
f 102 103 114 113
f 103 104 115 114
f 116 115 104 105
f 116 105 106 117
f 117 106 107 118
f 118 107 108 119
f 119 108 109 120
f 120 109 110 121
f 1 4 122 123
f 122 4 24 124
f 124 24 35 125
f 35 46 126 125
f 126 46 57 127
f 127 57 68 128
f 129 128 68 79
f 90 130 129 79
f 90 101 131 130
f 101 112 132 131
f 134 123 122 133
f 122 124 135 133
f 136 135 124 125
f 125 126 137 136
f 126 127 138 137
f 127 128 139 138
f 139 128 129 140
f 129 130 141 140
f 131 142 141 130
f 131 132 143 142
f 134 133 144 145
f 133 135 146 144
f 135 136 147 146
f 137 148 147 136
f 149 148 137 138
f 138 139 150 149
f 151 150 139 140
f 140 141 152 151
f 142 153 152 141
f 153 142 143 154
f 145 144 155 156
f 144 146 157 155
f 157 146 147 158
f 159 158 147 148
f 159 148 149 160
f 149 150 161 160
f 150 151 162 161
f 162 151 152 163
f 152 153 164 163
f 165 164 153 154
f 156 155 166 167
f 155 157 168 166
f 168 157 158 169
f 170 169 158 159
f 159 160 171 170
f 161 172 171 160
f 161 162 173 172
f 162 163 174 173
f 163 164 175 174
f 176 175 164 165
f 167 166 177 178
f 177 166 168 179
f 168 169 180 179
f 181 180 169 170
f 170 171 182 181
f 171 172 183 182
f 183 172 173 184
f 173 174 185 184
f 186 185 174 175
f 175 176 187 186
f 178 177 188 189
f 190 188 177 179
f 179 180 191 190
f 191 180 181 192
f 181 182 193 192
f 182 183 194 193
f 184 195 194 183
f 185 196 195 184
f 185 186 197 196
f 186 187 198 197
f 200 189 188 199
f 199 188 190 201
f 190 191 202 201
f 192 203 202 191
f 192 193 204 203
f 193 194 205 204
f 195 206 205 194
f 195 196 207 206
f 196 197 208 207
f 208 197 198 209
f 211 200 199 210
f 199 201 212 210
f 202 213 212 201
f 202 203 214 213
f 214 203 204 215
f 215 204 205 216
f 217 216 205 206
f 206 207 218 217
f 219 218 207 208
f 219 208 209 220
f 221 222 211 210
f 221 210 212 223
f 212 213 224 223
f 224 213 214 225
f 214 215 226 225
f 227 226 215 216
f 217 228 227 216
f 217 218 229 228
f 218 219 230 229
f 219 220 231 230
f 123 232 233 1
f 234 232 123 134
f 134 145 235 234
f 235 145 156 236
f 156 167 237 236
f 167 178 238 237
f 239 238 178 189
f 239 189 200 240
f 200 211 241 240
f 241 211 222 242
f 233 232 243 244
f 245 243 232 234
f 234 235 246 245
f 236 247 246 235
f 247 236 237 248
f 237 238 249 248
f 238 239 250 249
f 250 239 240 251
f 252 251 240 241
f 252 241 242 253
f 255 244 243 254
f 243 245 256 254
f 245 246 257 256
f 246 247 258 257
f 258 247 248 259
f 248 249 260 259
f 249 250 261 260
f 250 251 262 261
f 263 262 251 252
f 252 253 264 263
f 254 265 266 255
f 254 256 267 265
f 256 257 268 267
f 257 258 269 268
f 270 269 258 259
f 259 260 271 270
f 271 260 261 272
f 261 262 273 272
f 274 273 262 263
f 263 264 275 274
f 266 265 276 277
f 276 265 267 278
f 267 268 279 278
f 280 279 268 269
f 269 270 281 280
f 270 271 282 281
f 283 282 271 272
f 272 273 284 283
f 284 273 274 285
f 274 275 286 285
f 277 276 287 288
f 278 289 287 276
f 279 290 289 278
f 279 280 291 290
f 280 281 292 291
f 281 282 293 292
f 283 294 293 282
f 283 284 295 294
f 284 285 296 295
f 285 286 297 296
f 299 288 287 298
f 287 289 300 298
f 289 290 301 300
f 290 291 302 301
f 302 291 292 303
f 292 293 304 303
f 293 294 305 304
f 294 295 306 305
f 306 295 296 307
f 297 308 307 296
f 299 298 309 310
f 298 300 311 309
f 312 311 300 301
f 301 302 313 312
f 313 302 303 314
f 303 304 315 314
f 315 304 305 316
f 305 306 317 316
f 306 307 318 317
f 319 318 307 308
f 310 309 320 321
f 309 311 322 320
f 311 312 323 322
f 312 313 324 323
f 313 314 325 324
f 326 325 314 315
f 326 315 316 327
f 316 317 328 327
f 317 318 329 328
f 318 319 330 329
f 321 320 331 332
f 320 322 333 331
f 334 333 322 323
f 324 335 334 323
f 324 325 336 335
f 336 325 326 337
f 338 337 326 327
f 327 328 339 338
f 340 339 328 329
f 340 329 330 341
f 2 1 233 342
f 343 342 233 244
f 343 244 255 344
f 255 266 345 344
f 266 277 346 345
f 346 277 288 347
f 348 347 288 299
f 299 310 349 348
f 310 321 350 349
f 332 351 350 321
f 2 342 352 5
f 342 343 353 352
f 343 344 354 353
f 354 344 345 355
f 345 346 356 355
f 346 347 357 356
f 358 357 347 348
f 348 349 359 358
f 349 350 360 359
f 350 351 361 360
f 352 362 7 5
f 352 353 363 362
f 363 353 354 364
f 365 364 354 355
f 366 365 355 356
f 356 357 367 366
f 368 367 357 358
f 358 359 369 368
f 360 370 369 359
f 370 360 361 371
f 7 362 372 9
f 362 363 373 372
f 373 363 364 374
f 375 374 364 365
f 375 365 366 376
f 366 367 377 376
f 367 368 378 377
f 378 368 369 379
f 369 370 380 379
f 381 380 370 371
f 9 372 382 11
f 372 373 383 382
f 383 373 374 384
f 385 384 374 375
f 375 376 386 385
f 376 377 387 386
f 377 378 388 387
f 378 379 389 388
f 389 379 380 390
f 390 380 381 391
f 11 382 392 13
f 392 382 383 393
f 394 393 383 384
f 384 385 395 394
f 385 386 396 395
f 386 387 397 396
f 387 388 398 397
f 399 398 388 389
f 389 390 400 399
f 400 390 391 401
f 13 392 402 15
f 402 392 393 403
f 403 393 394 404
f 404 394 395 405
f 406 405 395 396
f 397 407 406 396
f 397 398 408 407
f 398 399 409 408
f 409 399 400 410
f 401 411 410 400
f 15 402 412 17
f 402 403 413 412
f 403 404 414 413
f 414 404 405 415
f 405 406 416 415
f 407 417 416 406
f 407 408 418 417
f 418 408 409 419
f 409 410 420 419
f 421 420 410 411
f 17 412 422 19
f 412 413 423 422
f 413 414 424 423
f 414 415 425 424
f 415 416 426 425
f 417 427 426 416
f 428 427 417 418
f 418 419 429 428
f 429 419 420 430
f 431 430 420 421
f 21 19 422 432
f 432 422 423 433
f 423 424 434 433
f 424 425 435 434
f 435 425 426 436
f 426 427 437 436
f 437 427 428 438
f 428 429 439 438
f 429 430 440 439
f 440 430 431 441
