v 0.22672267237179572 -0.38104854532918686 -0.31446747939501396
v 0.18862124665728294 -0.41538600369733797 -0.29962405859298424
v 0.11475490331679834 -0.4215801214758239 -0.3266293136279277
v 0.14347063769152285 -0.43804707443871355 -0.2744182437110631
v -0.2670934839133776 -0.25225751262610663 -0.2867452907178313
v -0.2291903448726775 -0.2923634886170986 -0.30180642171548816
v -0.18417865434323916 -0.32911430567712846 -0.27420681786247486
v -0.08805642214403085 -0.39829734875513056 -0.2664645529006278
v -0.11148476695171329 -0.37560038106913285 -0.23108614732036878
v -0.06664243593255915 -0.39657932583208405 -0.21118642758062336
v -0.026490752105229807 -0.42256109629080274 -0.24437059503229638
v -0.05349552048699906 -0.41401491217195396 -0.29525263841997895
v -0.11655337644389797 -0.38296809900458934 -0.3254442480626976
v -0.4574545073220518 0.34844744503752567 0.27235411079979066
v -0.41392906254324696 0.38286744004976775 0.2133241577135619
v -0.47570377719853035 0.3377968221519204 0.19399465301162538
v 0.04712532721868462 -0.41544504312555985 -0.3509915211731642
v -0.0028948870832234148 -0.42256682867797996 -0.3264801885271979
v -0.07729219913657373 -0.3939874946312055 -0.3578285289694183
v -0.1260634618605521 -0.3685422895485072 -0.37572813071178557
v 0.482358972261789 -0.10053552242417582 -0.03456352896930468
v 0.48265132570685243 -0.018458609908770886 -0.009318649347092544
v 0.4954104445506366 -0.05367231730107079 -0.06036705397109318
v 0.49353733529126953 -0.003997073486519631 -0.08693836999354637
v 0.4887244852600678 0.03303640745200822 -0.03130946173687986
v 0.4675447335014669 0.0655025190822737 0.01797799741930553
v -0.09828696995261019 0.454646616052862 0.051208839962616125
v -0.03581563923151037 0.4673119492409709 0.07105708019052083
v -0.13239867149235304 0.4701488814282571 0.10626138159975934
v 0.003981245694504662 0.4425797055716391 0.016348330121326412
v -0.19247522261763186 0.44989931698170516 0.08632563844282819
v -0.15534256630132404 0.42774561180983733 0.03322178575079247
v -0.06310522881072617 0.42486148158793013 0.0013602749879639666
v -0.12304159264720352 0.39601826735667567 -0.008684604549197224
v 0.3570640009458636 -0.30540814905310953 -0.2562473706139655
v 0.28913075351268747 -0.35387004514011483 -0.2855108001179646
v 0.3948429481507595 -0.26904137228475317 -0.23001185427005771
v 0.387931496038686 -0.23720092077764127 -0.2514904291726493
v 0.3599570452283001 -0.26793348245750176 -0.2745815039696717
v -0.3350909973196361 -0.19139702947357257 -0.3491042978397319
v -0.3160013848196449 -0.205772143010665 -0.3087493877972649
v -0.16588444196275906 -0.35028403120504453 -0.35133543160294745
v -0.2144187849480297 -0.3105294504160689 -0.37365617694051767
v 0.06939765615030964 -0.43656268880196647 -0.30003009126159147
v 0.020786193793125015 -0.43781776339030065 -0.27208687283748223
v 0.0955539885640804 -0.44642853909466884 -0.24688365060537196
v 0.2168236737664932 -0.4275293135910122 -0.24463700918160838
v 0.16911776974853282 -0.4422388207436293 -0.21945476999900188
v 0.0750880501656274 -0.427532719292051 -0.1695295907568932
v 0.1402138876031038 -0.42259281528348974 -0.1485868997264936
v 0.1202178955648903 -0.44155671190047974 -0.1943573319531092
v 0.21303197057387893 -0.4015282177359795 -0.12020871531266665
v 0.19254781508421584 -0.42902297595675914 -0.17042761983246096
v 0.2719605073404378 -0.370294965317027 -0.09277138206730273
v 0.25720143866084266 -0.39646173637951787 -0.26612347399268477
v 0.3261775918661588 -0.3590439546663597 -0.10901441748313895
v 0.3197213547415767 -0.3808590792940543 -0.15550759406325312
v 0.26478829962444744 -0.39903162855353635 -0.13622300045165758
v 0.37630330410084745 -0.3325421178168957 -0.12705318556662787
v 0.3879590458104002 -0.2904087955361555 -0.07491778013984504
v 0.31711581049067783 -0.3372210713551606 -0.076027487282965
v 0.4323134033181889 -0.24827995670194955 -0.1742261693429875
v 0.4373262608713616 -0.199449294161143 -0.19427256010756774
v 0.4702716815639546 -0.1675129350710592 -0.14195700993034693
v 0.45900015513725034 -0.21425271043853605 -0.11610314316005318
v 0.4120621458393617 -0.29522834736238485 -0.14876607756509078
v 0.3878588893970884 -0.3100924173519534 -0.203916921508545
v 0.3618825687252156 -0.3496561892370034 -0.17783658697644775
v 0.43048200149356364 -0.2569826344370368 -0.09307705299369318
v 0.4687528648669241 -0.11225373020151212 -0.16385301886536918
v 0.4900377831832573 -0.08423799699551322 -0.11624533027003682
v 0.48573367940515155 -0.1338598738224178 -0.08900480364346668
v 0.4650284556571811 -0.17862220102177725 -0.06285183599057965
v 0.43176397965973823 -0.21106749263987926 -0.040723162442375296
v 0.4371504118787763 -0.13859008497501188 -0.20491337905488763
v 0.45424196431074687 -0.06400748160131042 -0.18346163066633592
v 0.4799932203843672 -0.0371096779828178 -0.14079951012855157
v 0.454962655462154 0.008011279026714379 -0.16210344527118103
v 0.45473725928754194 -0.14089281949143984 -0.01469423818749599
v 0.4553147724476456 0.012218659588233058 0.036718665680590595
v 0.43066819895421316 -0.10811999642825516 0.02617653423993185
v 0.4633660177723192 -0.06834557133946247 0.00981999094940807
v 0.3996429379674693 0.12528143127334343 -0.15588131039897155
v 0.42011739706935314 0.049135826400439404 -0.18012051369616794
v 0.4349972445709983 0.08853463352748334 0.06043421066343106
v 0.3983911571166487 0.16480632166480072 0.08558765579953578
v 0.2866724392452029 0.2835537124759693 0.14546920746393463
v 0.3510162733712039 0.22760354697857485 0.11278698621439619
v 0.28603152840900337 0.26775803079205834 -0.11347982936398865
v 0.26835194857361017 0.32108713308256526 -0.07068145122752087
v 0.2034629041718036 0.3308030642204203 -0.08632392235126897
v 0.14641931983277223 0.32542096824812716 -0.09786008360298895
v 0.17767307622292794 0.42232289079975693 0.0900868425917445
v 0.2253056373384625 0.38404458606231406 0.11291285074746141
v 0.14306443984358727 0.42205057086745507 0.140605001633528
v 0.2172526486469516 0.40233633108277145 0.03207011015737011
v 0.12951245124355973 0.4433159047681155 0.06418337196725749
v 0.09949994458671535 0.44970343791829986 0.11599234455609045
v 0.1804777304629999 0.38217628076556337 0.16117994903011057
v 0.10876481913463892 0.40715452967887755 0.18676226160664017
v 0.1383104851245876 0.36284858866977066 0.20751862639615193
v 0.26462291414536254 0.333654377302434 0.131046961679871
v 0.21239198173044171 0.3314465311454023 0.17689000178786862
v -0.2309861744322843 0.4563060908070161 0.1463247662224589
v -0.17040570536549468 0.46839590885921073 0.16708564964893907
v -0.2609438214382251 0.4468545052554276 0.20044121171020454
v -0.1998724343800689 0.45165401478643685 0.21954870434337317
v -0.2914894812885786 0.4208327953066234 0.25598884915203357
v -0.2272678246360662 0.42037195065200783 0.27086361349603594
v -0.14000322802342569 0.441964318349152 0.23755508389256536
v -0.10500977060416308 0.46586231597712213 0.18575483273506363
v -0.04393001085352097 0.44815867861704406 0.20594946872028005
v -0.07375206391405048 0.47538092757883343 0.12927309617444938
v -0.004426929762387018 0.4652099311122248 0.15123915350094064
v -0.07436509825276577 0.4194015080545429 0.25248665965335165
v -0.1657473381035599 0.409175087475691 0.2813060308297974
v -0.09817294737532392 0.3854932482355439 0.290113540404685
v -0.1963953257058525 0.36353945690077283 0.327895180173699
v -0.30820989640603136 0.3773159503266965 0.06204222854916723
v -0.40186578911451704 0.3385040976160028 0.09057149784859632
v -0.3635870359844672 0.32418473203196446 0.050740679198883934
v -0.4384692353252066 0.344332931915145 0.13693130345373103
v -0.3189852269729277 0.3807629948609112 0.31072994994121783
v -0.3825712808533311 0.37596545493686123 0.29255644814782067
v -0.35226360927027633 0.40956588667723626 0.23406187063655334
v -0.41407813412117994 0.32981334402947154 0.34584828639827686
v -0.34547869820311267 0.3321597747794617 0.3620717898112539
v -0.3022649428511117 -0.22722073051531638 -0.37154580340342624
v -0.28646944267179164 -0.23890486766784153 -0.3273126888697767
v 0.32567160601170553 0.30351161729706094 -0.05183974693906794
v 0.3308895235709701 0.261774081044696 -0.0964665992212367
v 0.3755256372350869 0.24552952567692474 -0.07568514146200796
v 0.3686254001239677 0.28145698501272814 -0.027718649271333926
v 0.4187241572569845 0.21009966048199885 -0.05327855638352408
v 0.4168613732743932 0.1683643250328477 -0.10506471309316247
v 0.31995932262086096 0.21499099554234918 -0.14259463844651193
v 0.3702602749820321 0.19728852389183618 -0.12667541906533053
v 0.40236361842241536 0.24678390959661792 -0.00311208296217085
v 0.34770143331138365 0.30927477846986634 0.025576994303980954
v 0.4496081563609094 0.16662333425973103 -0.03075966908288724
v 0.3756760968274537 0.26779864255641017 0.050838960962402535
v 0.42751087391779913 0.19749325241336932 0.021024553279445073
v 0.39268470215190726 0.2191052797575469 0.06965252614303329
v -0.18817816206240154 0.3578308965467061 -0.01440484489873712
v -0.25747342132055373 0.3372434129061508 0.00032419218104697093
v -0.3178179791333646 0.30685166529762375 0.010598154508954257
v 0.18487732039336013 0.38046093892090177 -0.04145546688131502
v 0.2436998300144258 0.3700220454009554 -0.02079207575669487
v 0.16079126767278704 0.417992761787427 0.0074643124976024895
v 0.10422735624879129 0.4184593059381606 -0.012886071212804877
v 0.07638171500745423 0.44880231653758684 0.03758459080118257
v -0.08661187782165178 0.3537281005727672 -0.050039482175511824
v -0.02584187259339048 0.38349997272223185 -0.043630752953466745
v 0.039198739013064546 0.40601587450059395 -0.030553783632827833
v 0.07123060969748383 0.35804363329327 -0.07373846297572338
v -0.1985924789277517 -0.32358802709589385 -0.32163606459268596
v -0.15074321375979985 -0.361455982166302 -0.3001874899441349
v 0.3373982515327229 0.27951929618515964 0.09786276940545215
v 0.2669440818726788 0.3729116964287601 0.05737684999152926
v 0.03908861593562461 0.46540328481696397 0.09361144632639695
v 0.35384261742369116 -0.2876639767147964 -0.04858253940447574
v 0.006784245189379238 -0.4194028168948623 -0.19350303635217533
v 0.05038584513226144 -0.43941902559661455 -0.2176180688732538
v 0.4401199815105968 0.14115615496562312 0.040101729047484484
v -0.3180714891779606 -0.21217811440921547 -0.4081584733711734
v -0.2621199889324365 -0.26748863905649634 -0.3980280849743241
v -0.35296493652496874 -0.17560710941550173 -0.38952092545645256
v -0.2533676428730653 0.4174776149474849 0.07191148649258434
v -0.2133349817834418 0.3908315693038357 0.021383186277327212
v 0.46653329949659106 0.11608597802547208 -0.004746184978554661
v 0.3289501839677864 -0.3560310869810517 -0.2361061528771788
v 0.28847661816995984 -0.3975023963512183 -0.21616282438980802
v 0.06475533902918786 0.44032734532245515 0.16818562262263057
v 0.017127985740927894 0.4190901739808705 0.21990628752789826
v 0.07586550764847223 0.3840420110130182 0.2248596149166679
v -0.256488353344123 0.3751561237985764 0.32294578476279207
v -0.27727587933146075 0.32369014507617344 0.3707600199458822
v -0.019233668927543662 0.3875002399768679 0.2640086243212839
v 0.44118969368651956 0.08919419995191886 -0.13679609749122118
v 0.47428126271758936 0.045477958100261284 -0.11334600152988995
v 0.4549475521502135 0.12981469545035546 -0.08087270698006743
v 0.3102091937087854 0.3281969629367203 0.07985558385327256
v 0.3029758157329622 0.34426484045783895 0.002081310584266788
v 0.24369238280208944 -0.42152245701982355 -0.19423904611115103
v 0.38992136499662816 -0.2336203853698152 -0.023648844871976268
v 0.4166688830858399 -0.17274730823425644 0.0019833246321710285
v 0.4268228292747109 -0.022804689692950287 -0.20142590122292198
v -0.3229216930249646 0.4274283450182019 0.17929285958397626
v -0.37836133904783514 0.3945614472715005 0.15714400569968448
v -0.3461464354741562 0.3918482192190501 0.10891354764159943
v -0.29155605614932417 0.42961500242762724 0.12643579795987034
v -0.2536215776373463 -0.27445581209882713 -0.3516486616793931
v 0.1301153199198599 0.37579859858096065 -0.05770866624315523
v 0.47935338878555833 0.08382164773417847 -0.05677203247378206
f 2 3 4
f 8 9 10
f 11 8 10
f 8 12 13
f 12 8 11
f 21 22 23
f 24 23 25
f 22 25 23
f 25 22 26
f 27 28 29
f 27 30 28
f 29 31 27
f 32 27 31
f 27 33 30
f 32 33 27
f 33 32 34
f 37 38 39
f 39 35 37
f 17 18 44
f 45 18 12
f 44 18 45
f 46 44 45
f 2 4 47
f 48 47 4
f 46 48 4
f 49 50 51
f 52 53 50
f 53 51 50
f 55 1 2
f 36 1 55
f 56 57 58
f 57 56 59
f 54 56 58
f 56 60 59
f 54 61 56
f 60 56 61
f 62 63 37
f 64 63 62
f 64 62 65
f 65 62 66
f 67 62 37
f 62 67 66
f 66 67 68
f 69 65 66
f 63 64 70
f 64 71 70
f 72 71 64
f 73 65 69
f 69 74 73
f 76 75 70
f 71 77 70
f 76 70 77
f 78 76 77
f 65 73 72
f 65 72 64
f 21 72 73
f 23 72 21
f 71 72 23
f 21 73 79
f 89 90 91
f 93 94 95
f 96 93 97
f 95 98 93
f 98 97 93
f 99 95 94
f 100 95 99
f 99 101 100
f 99 94 102
f 103 99 102
f 101 99 103
f 104 105 106
f 106 107 108
f 107 109 108
f 110 109 107
f 105 107 106
f 111 107 105
f 107 111 110
f 110 111 112
f 113 111 105
f 114 112 111
f 111 113 114
f 115 116 110
f 115 110 112
f 116 117 118
f 119 120 121
f 123 124 108
f 108 124 125
f 126 124 123
f 14 125 124
f 123 127 126
f 128 40 129
f 6 129 5
f 129 41 5
f 40 41 129
f 130 131 132
f 130 132 133
f 134 133 132
f 134 132 135
f 136 137 131
f 137 132 131
f 132 137 135
f 133 138 139
f 138 133 134
f 140 138 134
f 139 138 141
f 142 141 138
f 142 143 141
f 147 148 149
f 147 149 150
f 151 150 149
f 97 151 149
f 96 149 148
f 96 97 149
f 152 34 144
f 153 33 34
f 152 153 34
f 30 33 154
f 33 153 154
f 154 153 155
f 13 20 42
f 156 42 43
f 13 42 157
f 42 156 157
f 148 147 90
f 141 143 158
f 158 143 88
f 94 93 159
f 96 159 93
f 160 151 97
f 28 151 160
f 28 30 151
f 150 151 30
f 97 98 160
f 11 10 162
f 11 162 163
f 26 85 164
f 164 85 86
f 26 80 85
f 40 128 167
f 128 165 167
f 166 165 128
f 80 22 82
f 80 26 22
f 168 32 31
f 169 34 32
f 168 169 32
f 88 143 86
f 143 164 86
f 142 164 143
f 170 26 164
f 170 164 142
f 13 157 8
f 157 9 8
f 9 157 7
f 7 157 156
f 36 171 35
f 171 36 55
f 172 171 55
f 171 172 68
f 131 89 136
f 95 100 173
f 173 100 174
f 101 175 100
f 174 100 175
f 116 118 176
f 177 176 118
f 13 19 20
f 173 112 114
f 173 174 112
f 115 112 174
f 174 178 115
f 25 26 170
f 84 78 179
f 180 78 77
f 179 78 180
f 181 179 180
f 69 59 60
f 59 69 66
f 60 74 69
f 63 75 38
f 22 21 82
f 140 142 138
f 140 170 142
f 160 98 114
f 98 173 114
f 173 98 95
f 116 115 117
f 94 159 182
f 139 182 159
f 183 139 159
f 183 159 96
f 169 144 34
f 7 156 6
f 19 12 18
f 12 11 45
f 12 19 13
f 163 45 11
f 44 46 4
f 44 4 3
f 53 184 48
f 184 47 48
f 55 2 47
f 47 172 55
f 47 184 172
f 46 51 48
f 163 51 46
f 163 49 51
f 51 53 48
f 52 58 53
f 54 58 52
f 172 184 57
f 58 57 184
f 58 184 53
f 57 68 172
f 57 59 68
f 67 35 171
f 68 67 171
f 74 185 186
f 186 79 74
f 73 74 79
f 185 74 60
f 70 75 63
f 63 38 37
f 186 81 79
f 21 79 82
f 79 81 82
f 76 78 187
f 84 187 78
f 179 83 84
f 110 116 109
f 109 116 176
f 94 182 102
f 102 182 158
f 141 158 182
f 182 139 141
f 87 103 102
f 175 178 174
f 160 113 28
f 113 29 28
f 123 108 109
f 109 176 123
f 117 115 178
f 15 125 14
f 125 15 188
f 188 15 189
f 176 177 127
f 190 120 119
f 120 190 122
f 168 190 119
f 122 190 189
f 190 168 191
f 191 189 190
f 189 15 16
f 16 122 189
f 133 139 183
f 183 130 133
f 131 130 90
f 77 24 180
f 71 24 77
f 150 30 154
f 192 156 43
f 137 83 135
f 147 91 90
f 90 89 131
f 148 90 130
f 92 91 193
f 91 147 193
f 130 183 148
f 92 193 155
f 158 88 87
f 192 128 129
f 192 166 128
f 163 162 49
f 24 25 194
f 25 170 194
f 140 194 170
f 104 29 105
f 31 29 104
f 154 155 193
f 193 150 154
f 163 46 45
f 68 59 66
f 161 185 60
f 192 6 156
f 3 17 44
f 71 23 24
f 113 105 29
f 104 106 188
f 191 31 104
f 188 191 104
f 123 176 127
f 119 169 168
f 145 169 119
f 145 144 169
f 189 191 188
f 183 96 148
f 31 191 168
f 37 35 67
f 135 83 179
f 194 181 180
f 140 181 194
f 179 181 135
f 181 140 134
f 134 135 181
f 121 145 119
f 121 146 145
f 125 106 108
f 129 6 192
f 158 87 102
f 125 188 106
f 114 113 160
f 193 147 150
f 194 180 24
f 166 192 43
f 60 61 161
