# Blender v3.0.1 OBJ File: ''
# www.blender.org
mtllib seashell.out.mtl
o obj1
v -0.108160 -0.001670 -0.654474
v -0.134490 -0.035497 -0.639519
v -0.199680 -0.041171 -0.655607
v -0.167560 -0.061711 -0.616912
v -0.450698 0.145938 -0.599306
v -0.461676 0.099343 -0.611665
v -0.432493 0.056963 -0.592606
v -0.369323 -0.027150 -0.588803
v -0.371493 0.008295 -0.562958
v -0.336264 -0.013816 -0.550452
v -0.312651 -0.051137 -0.577124
v -0.343489 -0.048049 -0.617317
v -0.396276 -0.009689 -0.637438
v -0.733130 0.605385 -0.240519
v -0.693817 0.638997 -0.287959
v -0.744201 0.596467 -0.305927
v -0.260604 -0.031055 -0.666689
v -0.299432 -0.045622 -0.642851
v -0.359932 -0.010411 -0.662989
v -0.393988 0.022041 -0.674638
v 0.121932 0.259717 -0.452746
v 0.117694 0.332519 -0.434992
v 0.131170 0.300435 -0.477316
v 0.128550 0.342552 -0.502873
v 0.120249 0.377138 -0.456161
v 0.098653 0.406064 -0.415976
v -0.415656 0.720771 -0.414399
v -0.362660 0.734057 -0.394123
v -0.448580 0.732137 -0.366805
v -0.324606 0.714054 -0.439978
v -0.498737 0.710168 -0.386983
v -0.463940 0.694908 -0.432935
v -0.381235 0.696001 -0.456309
v -0.432422 0.669721 -0.468739
v 0.007946 0.067648 -0.620510
v -0.050534 0.022076 -0.638728
v 0.042664 0.099468 -0.604943
v 0.032424 0.125312 -0.623491
v 0.004298 0.099389 -0.636584
v -0.466978 0.228846 -0.642957
v -0.455855 0.205809 -0.612634
v -0.426527 0.035808 -0.653425
v -0.445344 0.087786 -0.670429
v -0.234800 -0.061386 -0.631215
v -0.275602 -0.073237 -0.603870
v -0.206063 -0.072492 -0.590266
v -0.100558 -0.052380 -0.600522
v -0.136920 -0.073144 -0.574392
v -0.214480 -0.047448 -0.528094
v -0.157064 -0.041871 -0.516116
v -0.178671 -0.066484 -0.549457
v -0.092984 -0.020927 -0.498776
v -0.113513 -0.051946 -0.536733
v -0.041909 0.009792 -0.482473
v -0.069973 -0.019917 -0.622634
v 0.006414 0.015170 -0.496790
v -0.003266 -0.003891 -0.535876
v -0.048673 -0.021698 -0.514333
v 0.048899 0.039740 -0.515734
v 0.054561 0.084024 -0.475929
v -0.003200 0.037717 -0.471103
v 0.083297 0.120191 -0.563612
v 0.081470 0.162988 -0.583014
v 0.114721 0.194792 -0.543202
v 0.110359 0.152814 -0.517753
v 0.071986 0.077543 -0.539089
v 0.045892 0.062172 -0.583963
v 0.029913 0.025194 -0.558983
v 0.088900 0.115078 -0.493606
v 0.108124 0.241383 -0.563619
v 0.124894 0.269844 -0.524329
v 0.123525 0.227638 -0.499318
v 0.109955 0.189011 -0.474382
v 0.082948 0.160359 -0.453225
v 0.077232 0.215423 -0.594093
v 0.088651 0.281705 -0.579315
v 0.111425 0.309277 -0.545573
v 0.085430 0.345094 -0.565336
v 0.096636 0.224934 -0.434927
v 0.087554 0.359968 -0.399326
v 0.070799 0.255101 -0.404369
v 0.099537 0.289477 -0.419555
v 0.031968 0.444317 -0.563863
v 0.051428 0.377732 -0.581189
v 0.065912 0.425705 -0.382694
v 0.030241 0.491555 -0.364177
v -0.076598 0.587415 -0.319467
v -0.015687 0.543775 -0.344401
v -0.067980 0.568952 -0.537610
v -0.086135 0.617420 -0.502938
v -0.141542 0.623924 -0.519028
v -0.190715 0.617760 -0.532666
v -0.173125 0.706989 -0.369393
v -0.131142 0.675344 -0.347891
v -0.206706 0.702448 -0.327468
v -0.136669 0.689546 -0.418227
v -0.215290 0.723612 -0.393557
v -0.244052 0.728797 -0.349017
v -0.173393 0.669290 -0.308331
v -0.237765 0.689123 -0.287583
v -0.213348 0.647090 -0.274763
v -0.097885 0.630339 -0.333197
v -0.146116 0.624210 -0.297092
v -0.535855 0.715384 -0.336670
v -0.484114 0.729517 -0.315226
v -0.563182 0.704541 -0.291062
v -0.511472 0.712579 -0.270479
v -0.589836 0.674713 -0.245920
v -0.534590 0.677617 -0.230368
v -0.458661 0.702623 -0.254029
v -0.428015 0.726847 -0.297195
v -0.373749 0.714682 -0.277312
v -0.398144 0.739284 -0.344710
v -0.337937 0.732567 -0.323336
v -0.401387 0.685915 -0.239561
v -0.481435 0.669956 -0.219539
v -0.421455 0.651264 -0.211562
v -0.507765 0.624618 -0.184031
v -0.594427 0.641835 -0.413907
v -0.675420 0.601245 -0.392944
v -0.638998 0.591316 -0.425997
v -0.708107 0.602637 -0.353752
v -0.614401 0.634790 -0.201513
v -0.668241 0.628301 -0.220388
v -0.642011 0.664832 -0.267252
v -0.696085 0.583749 -0.178664
v -0.636145 0.585479 -0.164067
v -0.478822 0.188512 -0.665959
v -0.471318 0.168407 -0.628499
v -0.035553 0.605071 -0.485317
v -0.028811 0.567247 -0.522358
v 0.009499 0.554225 -0.501922
v 0.003648 0.589714 -0.463585
v 0.051300 0.528841 -0.482426
v 0.046460 0.486014 -0.522404
v -0.038224 0.521239 -0.557937
v 0.005312 0.507790 -0.541638
v 0.035206 0.561742 -0.440791
v -0.015661 0.615594 -0.418465
v 0.083415 0.494029 -0.461467
v 0.010948 0.582289 -0.394523
v 0.057716 0.520371 -0.418539
v 0.024660 0.538905 -0.378200
v -0.486902 0.633634 -0.478438
v -0.545648 0.610491 -0.466105
v -0.595321 0.577649 -0.457502
v -0.161122 0.667894 -0.482584
v -0.110614 0.660988 -0.461617
v -0.185905 0.699772 -0.440886
v -0.234512 0.698168 -0.461459
v -0.262092 0.723408 -0.418240
v -0.396357 0.634540 -0.503660
v -0.345104 0.662610 -0.494745
v -0.289586 0.684485 -0.479952
v -0.258144 0.644463 -0.516047
v -0.455116 0.061467 -0.629573
v -0.419321 0.017291 -0.613017
v -0.028641 0.588074 -0.357634
v -0.091191 0.668140 -0.393840
v -0.297561 0.735255 -0.371797
v 0.024038 0.086602 -0.454659
v -0.273675 -0.039811 -0.542073
v -0.242886 -0.069678 -0.560163
v 0.071223 0.472169 -0.399966
v -0.460014 0.210762 -0.692156
v -0.457270 0.142140 -0.688807
v -0.461811 0.252553 -0.673963
v -0.549636 0.679497 -0.402944
v -0.511930 0.659385 -0.446109
v 0.097987 0.450713 -0.436508
v -0.007228 0.020006 -0.604777
v -0.035713 -0.021138 -0.584749
v -0.276803 0.715342 -0.306150
v -0.320209 0.690969 -0.265004
v -0.268311 0.663164 -0.260819
v -0.559611 0.632279 -0.189327
v -0.576747 0.580401 -0.154797
v -0.352292 0.658102 -0.231211
v 0.070159 0.416251 -0.546491
v 0.102459 0.382087 -0.525644
v 0.083062 0.457028 -0.501851
v -0.053273 0.630375 -0.373692
v -0.057625 0.642094 -0.440490
v -0.071054 -0.046458 -0.561403
v 0.048241 0.139090 -0.438365
v 0.064120 0.196468 -0.420774
v 0.060759 0.314150 -0.596102
v -0.617352 0.686886 -0.313186
v -0.660698 0.651619 -0.334494
v -0.630998 0.652795 -0.375114
v -0.586364 0.688388 -0.357520
v -0.470066 0.127184 -0.652224
v -0.208261 0.662785 -0.499905
v 0.109543 0.420168 -0.479902
vn -0.2490 0.7529 0.6092
vn -0.1596 0.7892 0.5931
vn -0.2134 0.7784 0.5904
vn 0.5544 0.5122 -0.6560
vn 0.5965 0.5031 -0.6254
vn 0.5031 0.5741 -0.6460
vn 0.4140 0.6879 -0.5961
vn 0.4316 0.6605 -0.6143
vn 0.5983 0.8001 -0.0443
vn 0.4211 0.8701 -0.2562
vn -0.9475 0.0226 -0.3188
vn -0.9892 -0.1161 -0.0899
vn -0.9642 -0.0665 -0.2566
vn -0.9099 -0.1341 -0.3925
vn 0.1189 -0.9440 0.3077
vn 0.0570 -0.8969 0.4386
vn 0.2391 -0.8940 0.3789
vn 0.2648 -0.8372 0.4785
vn 0.0983 -0.8193 0.5649
vn 0.1817 -0.7739 0.6066
vn 0.2003 -0.7096 0.6755
vn -0.6096 0.2884 0.7384
vn -0.6402 0.2432 0.7287
vn -0.6089 0.2920 0.7376
vn -0.6075 0.2990 0.7359
vn -0.6020 0.3360 0.7244
vn -0.6068 0.3025 0.7350
vn 0.0634 0.7808 0.6215
vn 0.1277 0.8053 0.5789
vn 0.0814 0.7860 0.6129
vn 0.2243 0.8546 0.4683
vn 0.1992 0.8391 0.5061
vn 0.1100 0.8415 0.5289
vn 0.1420 0.8321 0.5362
vn -0.0675 0.9502 0.3044
vn -0.0607 0.9518 0.3007
vn -0.0702 0.9492 0.3067
vn -0.2657 0.7600 0.5931
vn -0.2468 0.7924 0.5578
vn -0.2215 0.8899 0.3989
vn -0.0597 0.9524 0.2991
vn -0.0595 0.9523 0.2993
vn 0.0870 0.7730 -0.6284
vn 0.0056 0.7968 -0.6042
vn 0.0518 0.7871 -0.6146
vn -0.1332 0.7864 -0.6032
vn -0.0986 0.7960 -0.5972
vn -0.0696 0.8007 -0.5950
vn -0.0746 0.8248 -0.5605
vn -0.0576 0.8150 -0.5766
vn -0.3347 0.5866 0.7375
vn -0.3543 0.5622 0.7472
vn -0.3107 0.6589 0.6851
vn -0.4530 0.4783 0.7523
vn -0.3925 0.5119 0.7641
vn -0.4110 0.4859 0.7714
vn -0.4660 0.8352 -0.2919
vn -0.5648 0.7882 -0.2445
vn -0.2639 0.7062 -0.6570
vn -0.2710 0.7128 -0.6469
vn -0.5873 0.5813 -0.5632
vn -0.2679 0.6838 -0.6788
vn -0.3490 0.6251 -0.6982
vn -0.2788 0.6676 -0.6903
vn -0.4977 0.5510 -0.6699
vn -0.4577 0.5653 -0.6863
vn -0.7500 0.2463 0.6139
vn -0.8253 0.2035 0.5267
vn -0.9002 0.2904 0.3246
vn -0.8890 0.3814 0.2533
vn -0.7509 0.2732 0.6012
vn -0.8395 0.4205 0.3441
vn -0.7974 0.5342 0.2807
vn -0.8830 0.4661 -0.0563
vn -0.8108 0.1348 0.5695
vn -0.9274 0.0320 0.3727
vn -0.9873 0.1035 0.1206
vn -0.9002 0.3302 -0.2840
vn -0.7804 0.3559 -0.5141
vn -0.7001 -0.0915 0.7081
vn -0.6917 0.0003 0.7221
vn -0.6820 -0.0452 0.7299
vn -0.8974 -0.0721 0.4352
vn -0.7437 -0.1332 0.6551
vn -0.7701 -0.1286 0.6249
vn -0.7406 -0.1804 0.6473
vn -0.7287 -0.1590 0.6661
vn -0.9583 0.2150 -0.1884
vn -0.9585 0.2179 -0.1839
vn -0.9583 0.2153 -0.1877
vn -0.9848 0.1528 0.0832
vn -0.9585 0.2184 -0.1832
vn -0.9809 0.1429 -0.1320
vn -0.9935 0.0800 0.0806
vn -0.7887 0.2981 -0.5377
vn -0.2953 -0.6116 0.7340
vn -0.2844 -0.6260 0.7262
vn -0.2535 -0.6395 0.7258
vn -0.4043 -0.8165 -0.4122
vn -0.3865 -0.9214 0.0406
vn -0.3710 -0.8435 -0.3885
vn -0.3174 -0.9435 -0.0951
vn -0.4041 -0.7267 -0.5555
vn -0.4088 -0.7282 -0.5501
vn -0.4097 -0.7285 -0.5490
vn -0.4032 -0.7263 -0.5566
vn -0.3988 -0.4715 -0.7865
vn -0.3921 -0.4643 -0.7942
vn -0.5092 -0.5830 -0.6331
vn -0.4757 -0.4718 -0.7423
vn -0.4870 -0.4771 -0.7316
vn -0.4871 -0.4768 -0.7317
vn -0.4005 -0.4529 -0.7965
vn -0.4155 -0.4487 -0.7912
vn -0.4399 -0.4584 -0.7722
vn 0.2849 -0.9569 -0.0568
vn 0.2941 -0.8681 -0.3999
vn 0.2033 -0.7931 -0.5741
vn 0.0540 -0.7679 -0.6382
vn 0.2334 -0.9480 -0.2162
vn 0.0585 -0.9450 -0.3219
vn -0.0098 -0.8691 -0.4946
vn -0.0104 -0.8689 -0.4948
vn -0.0123 -0.8683 -0.4958
vn -0.0128 -0.8681 -0.4962
vn 0.0295 -0.9714 -0.2357
vn -0.0582 -0.9144 -0.4006
vn -0.0147 -0.9650 -0.2618
vn -0.0321 -0.7150 -0.6984
vn -0.0645 -0.7704 -0.6343
vn -0.0758 -0.5872 -0.8059
vn -0.0934 -0.5840 -0.8063
vn -0.0517 -0.5865 -0.8083
vn 0.4616 -0.5699 0.6798
vn 0.4828 -0.5959 0.6418
vn 0.4506 -0.5456 0.7065
vn 0.2868 -0.7859 -0.5479
vn 0.3119 -0.7914 -0.5258
vn 0.3409 -0.8244 -0.4518
vn 0.3389 -0.8106 -0.4776
vn 0.2746 -0.7231 -0.6338
vn 0.3182 -0.7718 -0.5505
vn 0.2988 -0.7451 -0.5962
vn 0.4371 -0.8271 -0.3533
vn 0.4135 -0.8157 -0.4044
vn 0.3762 -0.8056 -0.4578
vn 0.1980 -0.6467 -0.7366
vn 0.1687 -0.6335 -0.7551
vn 0.2241 -0.6739 -0.7040
vn 0.9561 -0.1313 -0.2620
vn 0.9524 -0.1612 -0.2586
vn 0.8822 0.0670 -0.4662
vn 0.8045 -0.0322 -0.5931
vn 0.8009 -0.0411 -0.5974
vn 0.7896 -0.0678 -0.6099
vn 0.8146 -0.0940 -0.5724
vn 0.7935 -0.0589 -0.6058
vn 0.9170 -0.1819 -0.3549
vn 0.8578 -0.1456 -0.4929
vn 0.8760 -0.1708 -0.4511
vn -0.5189 -0.6435 0.5627
vn -0.5462 -0.6546 0.5226
vn -0.6079 -0.6268 0.4874
vn -0.5980 -0.5098 0.6185
vn -0.4080 -0.5048 0.7607
vn -0.4816 -0.4974 0.7216
vn -0.4345 -0.4937 0.7533
vn -0.5300 -0.5107 0.6769
vn -0.5328 -0.5218 0.6662
vn -0.5700 -0.5038 0.6491
vn -0.5488 -0.5018 0.6686
vn -0.7009 -0.7055 0.1047
vn -0.7322 -0.6428 0.2249
vn -0.7746 -0.6064 0.1797
vn -0.7431 -0.6623 -0.0955
vn -0.8174 -0.5451 -0.1865
vn -0.7872 -0.4190 -0.4525
vn -0.3043 -0.8354 0.4578
vn -0.1930 -0.8315 0.5209
vn -0.1505 -0.8925 0.4252
vn -0.1809 -0.9189 0.3506
vn -0.3463 -0.8656 0.3618
vn -0.3118 -0.9122 0.2659
vn 0.2174 -0.5663 0.7950
vn 0.2278 -0.5583 0.7977
vn 0.2631 -0.5718 0.7771
vn 0.1435 -0.6587 0.7386
vn 0.1634 -0.6636 0.7301
vn 0.1966 -0.5818 0.7892
vn 0.1550 -0.6222 0.7673
vn 0.1861 -0.5895 0.7861
vn 0.0652 -0.7741 0.6297
vn 0.0919 -0.7073 0.7009
vn 0.1079 -0.6809 0.7244
vn 0.0517 -0.6461 0.7615
vn 0.0877 -0.6503 0.7546
vn 0.0286 -0.6423 0.7659
vn 0.6012 0.5894 0.5397
vn 0.5615 0.6122 0.5567
vn 0.6790 0.5883 0.4391
vn 0.7740 0.4317 0.4632
vn 0.7637 0.5073 0.3993
vn 0.7982 0.3995 0.4508
vn 0.8064 0.5788 0.1214
vn 0.7808 0.5818 0.2278
vn 0.7426 0.6205 0.2522
vn 0.7332 0.6582 0.1708
vn -0.3415 -0.7407 0.5786
vn -0.6460 -0.4391 -0.6244
vn -0.6194 -0.3854 -0.6839
vn -0.6147 -0.3691 -0.6970
vn -0.4789 -0.8299 -0.2863
vn -0.4275 -0.9040 0.0037
vn -0.0909 -0.9794 0.1804
vn -0.0535 -0.9766 0.2083
vn -0.0015 -0.9170 0.3988
vn -0.0382 -0.8733 0.4856
vn -0.1323 -0.9908 0.0299
vn 0.3682 0.6834 -0.6303
vn 0.4089 0.6586 -0.6318
vn 0.3441 0.6891 -0.6378
vn 0.3387 0.7177 -0.6085
vn 0.3293 0.7061 -0.6268
vn -0.7483 -0.1543 -0.6451
vn -0.7372 -0.1445 -0.6601
vn -0.6939 -0.1799 -0.6972
vn -0.7101 -0.1573 -0.6863
vn -0.6868 -0.2143 -0.6946
vn -0.7312 -0.0690 -0.6786
vn -0.7409 -0.0412 -0.6703
vn -0.7289 -0.1019 -0.6770
vn 0.9625 -0.2275 -0.1478
vn 0.9645 -0.2611 -0.0389
vn 0.9650 -0.2445 0.0947
vn 0.8632 -0.1699 0.4754
vn 0.8500 -0.1126 0.5146
vn 0.9139 -0.1985 0.3541
vn 0.8216 0.1343 0.5540
vn 0.8110 0.0034 0.5851
vn 0.7853 0.0615 0.6160
vn -0.7433 0.0276 -0.6684
vn -0.7354 0.0684 -0.6742
vn -0.7293 0.1058 -0.6759
vn -0.7641 -0.0263 -0.6445
vn -0.7779 -0.0392 -0.6272
vn 0.3217 -0.7986 0.5088
vn 0.2853 -0.6475 0.7066
vn 0.3450 -0.6986 0.6269
vn -0.6229 -0.3202 -0.7138
vn -0.6352 -0.2872 -0.7169
vn -0.6573 -0.2680 -0.7044
vn -0.7030 -0.2769 -0.6551
vn -0.6911 -0.2628 -0.6733
vn -0.7904 -0.4002 -0.4638
vn -0.8447 -0.2339 -0.4813
vn -0.8378 -0.3842 -0.3880
vn 0.6931 0.7092 -0.1295
vn 0.6826 0.4574 -0.5700
vn 0.6601 0.4752 -0.5818
vn 0.6528 0.4983 -0.5706
vn 0.6681 0.5036 -0.5478
vn 0.7142 0.4761 -0.5131
vn 0.7672 0.4599 -0.4471
vn 0.7762 0.4725 -0.4175
vn -0.5220 0.4425 0.7292
vn -0.5491 0.4145 0.7257
vn -0.5730 0.3921 0.7197
vn -0.5177 0.5045 0.6910
vn -0.5061 0.4873 0.7116
vn -0.5581 0.6422 0.5254
vn -0.6270 0.6460 0.4353
vn -0.3266 -0.5355 0.7788
vn -0.3166 -0.5667 0.7607
vn -0.3541 -0.5257 0.7735
vn -0.3024 -0.8081 -0.5054
vn -0.1861 -0.7467 -0.6386
vn -0.1926 -0.7417 -0.6425
vn -0.1911 -0.7429 -0.6416
vn -0.3633 -0.4536 -0.8138
vn -0.3071 -0.4885 -0.8168
vn -0.3410 -0.4498 -0.8255
vn -0.2316 -0.5528 -0.8005
vn -0.2521 -0.5395 -0.8034
vn -0.0099 -0.6130 -0.7900
vn -0.0187 -0.5994 -0.8002
vn 0.0220 -0.5590 -0.8289
vn 0.0030 -0.5548 -0.8320
vn -0.0123 -0.5703 -0.8213
vn 0.4349 0.6717 0.5997
vn 0.3993 0.7115 0.5782
vn 0.4783 0.6534 0.5867
vn -0.1257 -0.8878 -0.4428
vn -0.1846 -0.7478 -0.6377
vn -0.1655 -0.7222 -0.6715
vn -0.2060 -0.5965 -0.7757
vn -0.2072 -0.5855 -0.7838
vn -0.9146 -0.1801 -0.3619
vn -0.6241 -0.3193 0.7131
vn -0.6361 -0.3222 0.7011
vn -0.7815 -0.2524 0.5705
vn -0.7279 -0.3172 0.6079
vn -0.7471 -0.3689 0.5529
vn -0.7122 0.5175 -0.4744
vn -0.8712 0.4850 -0.0762
vn -0.6891 0.4298 -0.5835
vn -0.6776 0.0992 0.7287
vn -0.6891 0.0725 0.7210
vn -0.6741 0.1484 0.7236
vn -0.7777 0.1058 -0.6196
vn -0.7507 0.1245 -0.6488
vn -0.8266 -0.5382 -0.1645
vn -0.8647 -0.4353 -0.2506
vn -0.0705 -0.9910 -0.1136
vn -0.0710 -0.9909 -0.1141
vn -0.0709 -0.9909 -0.1140
vn -0.1445 -0.9072 -0.3952
vn -0.2989 -0.8212 -0.4861
vn -0.0803 -0.5979 -0.7975
vn -0.0956 -0.5894 -0.8021
vn -0.5533 -0.7495 -0.3636
vn -0.6073 -0.7498 -0.2626
vn -0.5562 -0.8287 0.0625
vn -0.4811 -0.8658 0.1372
vn 0.2874 -0.6283 0.7230
vn 0.2928 -0.6064 0.7393
vn 0.7877 0.4023 -0.4666
vn 0.8156 0.3567 -0.4557
vn 0.8811 0.2627 -0.3933
vn 0.3193 0.7695 0.5531
vn 0.2755 0.7882 0.5503
vn 0.2249 0.8061 0.5474
vn 0.3774 0.8994 -0.2204
vn 0.3719 0.7776 0.5070
vn 0.3672 0.7636 0.5310
vn 0.3136 0.8983 -0.3079
vn -0.1099 0.8373 0.5357
vn -0.1077 0.8179 0.5652
vn -0.3046 0.8954 -0.3248
vn -0.3019 0.8982 -0.3196
vn -0.3013 0.8987 -0.3186
vn -0.3980 0.9027 0.1635
vn -0.3329 0.7246 0.6034
vn -0.3085 0.7254 0.6153
vn -0.4740 0.7551 0.4530
vn -0.4665 0.8561 0.2223
vn 0.0502 0.9827 -0.1784
vn -0.0281 0.9915 -0.1271
vn 0.0613 0.7940 -0.6048
vn 0.0918 0.7765 -0.6234
vn -0.1152 0.8945 -0.4319
vn -0.1753 0.7919 -0.5849
vn -0.1829 0.8074 -0.5609
vn -0.2384 0.7083 -0.6644
vn -0.2199 0.7168 -0.6618
vn -0.1939 0.7471 -0.6358
vn -0.5495 0.8325 0.0710
vn -0.4505 0.8604 -0.2384
vn -0.3049 0.8949 -0.3258
vn -0.6042 0.7872 0.1233
vn -0.6477 0.7614 0.0283
vn -0.5987 0.4166 0.6841
vn -0.5978 0.3930 0.6987
vn -0.6551 0.5964 0.4638
vn -0.5510 0.3802 -0.7428
vn -0.5421 0.3998 -0.7391
vn -0.5654 0.3561 -0.7440
vn -0.5928 0.3324 -0.7336
vn -0.6060 0.3331 -0.7223
vn -0.7708 0.3196 -0.5512
vn -0.5478 0.4201 -0.7235
vn -0.5626 0.4209 -0.7116
vn -0.7343 0.0830 0.6737
vn -0.7175 0.0644 0.6936
vn -0.7110 0.2018 0.6737
vn -0.6903 0.1996 0.6955
vn -0.5792 0.3060 -0.7556
vn -0.5940 0.2617 -0.7607
vn -0.5787 0.2802 -0.7659
vn -0.7264 0.1900 -0.6605
vn -0.7245 0.1665 -0.6688
vn -0.6379 0.2054 -0.7422
vn -0.6237 0.2243 -0.7488
vn -0.6814 0.1745 -0.7108
vn -0.6894 -0.1656 0.7052
vn -0.6612 -0.1934 0.7248
vn -0.6476 -0.2115 0.7320
vn -0.6084 -0.2907 0.7384
vn -0.6192 -0.2473 0.7453
vn -0.6045 -0.2649 0.7512
vn -0.5926 -0.3606 0.7202
vn -0.5933 -0.3926 0.7027
vn -0.6024 -0.3386 0.7228
vn 0.0317 -0.7360 -0.6762
vn 0.0493 -0.6851 -0.7268
vn -0.5405 -0.5939 -0.5959
vn -0.5575 -0.5580 -0.6147
vn -0.6051 -0.5652 -0.5607
vn -0.6322 -0.7167 -0.2944
vn -0.5109 -0.4632 -0.7241
vn -0.2574 -0.5483 -0.7956
vn -0.2253 -0.5724 -0.7884
vn -0.2423 -0.5704 -0.7848
vn -0.0143 -0.9954 0.0950
vn 0.0715 -0.9852 0.1555
vn 0.2067 -0.7817 -0.5884
vn 0.1237 -0.7026 -0.7008
vn -0.1436 -0.5682 -0.8103
vn -0.1761 -0.5550 -0.8130
vn -0.1922 -0.5648 -0.8026
vn 0.5241 -0.8472 -0.0874
vn 0.4974 -0.8469 -0.1878
vn 0.4791 -0.8432 -0.2440
vn 0.4887 -0.8594 -0.1503
vn 0.5185 -0.8523 -0.0689
vn 0.5645 -0.8047 0.1835
vn 0.5566 -0.8249 0.0987
vn 0.0789 -0.5703 -0.8177
vn 0.0599 -0.5667 -0.8217
vn 0.1091 -0.5955 -0.7959
vn 0.4734 -0.6233 0.6224
vn 0.4882 -0.6219 0.6123
vn 0.5354 -0.6410 0.5499
vn 0.5659 -0.6590 0.4954
vn 0.5737 -0.6794 0.4574
vn 0.4270 -0.6810 0.5949
vn 0.5778 -0.7062 0.4092
vn 0.5751 -0.7138 0.3998
vn 0.4184 -0.7659 0.4882
vn 0.4996 -0.7957 0.3423
vn 0.5874 -0.7827 0.2057
vn 0.5689 -0.8150 0.1100
vn 0.5912 -0.7686 0.2444
vn 0.5959 -0.7363 0.3205
vn 0.5889 -0.7088 0.3883
vn 0.5968 -0.7183 0.3577
vn -0.5944 -0.7806 0.1933
vn -0.5130 -0.7686 0.3822
vn -0.3837 -0.6801 0.6247
vn -0.8201 -0.2428 0.5181
vn -0.9022 -0.0797 0.4240
vn 0.0000 -0.8039 0.5947
vn 0.8434 0.3354 0.4197
vn 0.8438 0.3362 0.4184
vn 0.8315 0.3486 0.4326
vn -0.5468 -0.4869 0.6812
vn -0.5799 -0.4492 0.6796
vn -0.5661 -0.4739 0.6745
vn -0.2765 -0.6833 0.6758
vn -0.2496 -0.6683 0.7007
vn -0.3062 -0.6271 0.7163
vn -0.3062 -0.6122 0.7290
vn -0.3751 -0.7401 0.5581
vn -0.1130 -0.6130 0.7819
vn -0.1802 -0.6356 0.7507
vn -0.1375 -0.6172 0.7747
vn -0.2057 -0.6639 0.7190
vn -0.1889 -0.6751 0.7131
vn -0.4498 -0.7847 0.4266
vn -0.0640 -0.6033 0.7949
vn -0.0395 -0.5979 0.8006
vn -0.0170 -0.6184 0.7857
vn -0.5718 -0.3838 -0.7251
vn -0.5910 -0.3684 -0.7177
vn -0.5533 -0.4172 -0.7210
vn 0.9845 0.1089 -0.1373
vn 0.9843 0.1095 -0.1384
vn 0.9855 0.1061 -0.1324
vn 0.8905 0.2167 0.4001
vn 0.8709 0.2115 0.4437
vn 0.2507 0.6774 -0.6916
vn 0.2855 0.6864 -0.6688
vn 0.1870 0.7198 -0.6685
vn -0.9710 -0.2391 0.0045
vn -0.9598 -0.2736 -0.0630
vn -0.9441 -0.3290 -0.0198
vn 0.2219 -0.9696 0.1036
vn 0.2788 -0.9122 0.3002
vn 0.0044 -0.6678 0.7443
vn 0.0050 -0.6531 0.7572
vn -0.0369 -0.7477 0.6630
vn 0.0061 0.9963 -0.0857
vn -0.7979 0.5827 0.1543
vn -0.4785 0.4673 -0.7434
vn -0.5082 0.4373 -0.7420
vn -0.4829 0.4550 -0.7482
vn 0.9776 0.2000 -0.0649
vn 0.9632 0.1837 -0.1964
vn -0.0481 0.7821 0.6213
vn 0.0273 0.7695 0.6381
vn 0.0093 0.7633 0.6459
vn -0.9922 0.0134 0.1238
vn 0.1249 -0.9915 0.0357
vn 0.3216 -0.9463 -0.0323
vn 0.3321 -0.8812 0.3364
vn 0.3806 -0.8942 0.2357
vn 0.1394 -0.6371 -0.7581
vn 0.1393 -0.6284 -0.7654
vn 0.3917 -0.6542 0.6470
vn 0.4047 -0.5504 0.7302
vn 0.4012 -0.5699 0.7171
vn 0.3920 -0.5459 0.7405
vn 0.3371 -0.5730 0.7470
vn 0.3758 -0.5609 0.7377
vn 0.4979 -0.8057 0.3207
vn -0.4255 -0.8519 0.3052
vn 0.3545 -0.8211 0.4474
vn -0.6264 0.3403 0.7013
vn -0.6115 0.3548 0.7072
vn -0.6179 -0.4358 0.6544
vn -0.6057 -0.4301 0.6694
vn -0.8366 -0.3503 0.4212
vn -0.8454 -0.3901 0.3648
vn -0.6775 -0.4349 0.5931
vn -0.7779 -0.4599 0.4282
vn -0.6822 -0.4563 0.5714
vn 0.4310 -0.5334 0.7278
vn 0.4155 -0.5385 0.7331
vn 0.4229 -0.5461 0.7231
vn 0.4347 -0.4821 0.7607
vn 0.4291 -0.4405 0.7886
vn 0.4191 -0.4872 0.7661
vn 0.3207 -0.8663 -0.3831
vn 0.9639 0.1356 -0.2291
vn -0.5397 -0.4872 -0.6865
vn -0.5370 -0.4687 -0.7014
vn 0.3836 -0.8959 -0.2242
vn -0.0703 -0.9910 -0.1135
vn -0.1423 -0.7748 0.6159
vn -0.8527 -0.3289 0.4059
vn 0.8471 0.2683 0.4586
vn -0.4648 0.5039 -0.7281
vn -0.4413 0.5417 -0.7154
vn -0.4695 0.4918 -0.7333
usemtl Default_OBJ
s 1
f 2//1 3//2 4//3
f 8//4 9//5 10//6
f 11//7 8//7 10//8
f 8//9 12//9 13//9
f 12//10 8//10 11//10
f 21//11 22//11 23//11
f 24//12 23//12 25//12
f 22//13 25//13 23//13
f 25//14 22//14 26//14
f 27//15 28//15 29//15
f 27//16 30//16 28//16
f 29//17 31//17 27//17
f 32//18 27//18 31//18
f 27//19 33//19 30//19
f 32//20 33//20 27//20
f 33//21 32//21 34//21
f 37//22 38//23 39//24
f 39//25 35//26 37//27
f 17//28 18//29 44//30
f 45//31 18//32 12//31
f 44//33 18//34 45//33
f 46//35 44//36 45//37
f 2//38 4//39 47//39
f 48//40 47//40 4//40
f 46//35 48//41 4//42
f 49//43 50//44 51//45
f 52//46 53//47 50//48
f 53//49 51//49 50//50
f 55//51 1//52 2//53
f 36//54 1//55 55//56
f 56//57 57//57 58//57
f 57//58 56//58 59//58
f 54//59 56//60 58//60
f 56//61 60//61 59//61
f 54//62 61//63 56//64
f 60//65 56//65 61//66
f 62//67 63//67 37//67
f 64//68 63//68 62//68
f 64//69 62//69 65//69
f 65//70 62//70 66//70
f 67//71 62//71 37//71
f 62//72 67//72 66//72
f 66//73 67//73 68//73
f 69//74 65//74 66//74
f 63//75 64//75 70//75
f 64//76 71//76 70//76
f 72//77 71//77 64//77
f 73//78 65//78 69//78
f 69//79 74//79 73//79
f 76//80 75//81 70//82
f 71//83 77//83 70//83
f 76//84 70//85 77//85
f 78//86 76//87 77//86
f 65//88 73//89 72//90
f 65//91 72//91 64//91
f 21//92 72//90 73//89
f 23//93 72//93 21//93
f 71//94 72//94 23//94
f 21//95 73//95 79//95
f 89//96 90//97 91//98
f 93//99 94//99 95//99
f 96//100 93//100 97//100
f 95//101 98//101 93//101
f 98//102 97//102 93//102
f 99//103 95//104 94//105
f 100//106 95//104 99//103
f 99//107 101//108 100//107
f 99//109 94//109 102//109
f 103//110 99//111 102//112
f 101//113 99//114 103//115
f 104//116 105//116 106//116
f 106//117 107//117 108//117
f 107//118 109//118 108//118
f 110//119 109//119 107//119
f 105//120 107//120 106//120
f 111//121 107//121 105//121
f 107//122 111//123 110//124
f 110//124 111//123 112//125
f 113//126 111//126 105//126
f 114//127 112//127 111//127
f 111//128 113//128 114//128
f 115//129 116//129 110//129
f 115//130 110//130 112//130
f 116//131 117//132 118//133
f 119//134 120//135 121//136
f 123//137 124//138 108//137
f 108//139 124//140 125//139
f 126//141 124//142 123//143
f 14//144 125//145 124//146
f 123//147 127//148 126//149
f 128//150 40//151 129//150
f 6//152 129//153 5//154
f 129//155 41//156 5//157
f 40//158 41//159 129//160
f 130//161 131//161 132//161
f 130//162 132//162 133//162
f 134//163 133//163 132//163
f 134//164 132//164 135//164
f 136//165 137//166 131//167
f 137//168 132//169 131//169
f 132//170 137//171 135//170
f 133//172 138//172 139//172
f 138//173 133//173 134//173
f 140//174 138//174 134//174
f 139//175 138//175 141//175
f 142//176 141//176 138//176
f 142//177 143//177 141//177
f 147//178 148//178 149//178
f 147//179 149//179 150//179
f 151//180 150//180 149//180
f 97//181 151//181 149//181
f 96//182 149//182 148//182
f 96//183 97//183 149//183
f 152//184 34//185 144//186
f 153//187 33//188 34//188
f 152//189 153//190 34//191
f 30//192 33//192 154//192
f 33//193 153//194 154//193
f 154//195 153//196 155//197
f 13//198 20//199 42//200
f 156//201 42//202 43//203
f 13//204 42//205 157//204
f 42//206 156//207 157//207
f 148//208 147//208 90//208
f 141//209 143//209 158//209
f 158//210 143//210 88//211
f 94//212 93//212 159//212
f 96//213 159//213 93//213
f 160//214 151//214 97//214
f 28//215 151//215 160//215
f 28//216 30//216 151//216
f 150//217 151//217 30//217
f 97//218 98//218 160//218
f 11//219 10//220 162//221
f 11//222 162//223 163//222
f 26//224 85//225 164//224
f 164//226 85//227 86//228
f 26//229 80//230 85//231
f 40//232 128//233 167//234
f 128//235 165//236 167//237
f 166//238 165//239 128//240
f 80//241 22//242 82//243
f 80//244 26//245 22//245
f 168//246 32//246 31//246
f 169//247 34//247 32//247
f 168//248 169//248 32//248
f 88//249 143//250 86//251
f 143//252 164//252 86//253
f 142//254 164//254 143//254
f 170//255 26//255 164//255
f 170//256 164//256 142//256
f 13//257 157//257 8//257
f 157//258 9//259 8//258
f 9//260 157//261 7//262
f 7//263 157//264 156//264
f 36//265 171//266 35//267
f 171//268 36//269 55//268
f 172//270 171//270 55//270
f 171//271 172//271 68//271
f 131//272 89//273 136//274
f 95//275 100//275 173//275
f 173//276 100//277 174//278
f 101//279 175//280 100//281
f 174//282 100//282 175//283
f 116//284 118//285 176//284
f 177//286 176//287 118//288
f 13//289 19//290 20//291
f 173//292 112//292 114//292
f 173//276 174//278 112//293
f 115//294 112//294 174//294
f 174//295 178//296 115//295
f 25//297 26//297 170//297
f 84//298 78//299 179//299
f 180//300 78//300 77//300
f 179//301 78//301 180//301
f 181//302 179//302 180//302
f 69//303 59//303 60//303
f 59//304 69//304 66//304
f 60//305 74//305 69//305
f 63//306 75//307 38//308
f 22//309 21//309 82//310
f 140//311 142//311 138//311
f 140//312 170//312 142//312
f 160//313 98//314 114//315
f 98//316 173//316 114//316
f 173//317 98//317 95//317
f 116//318 115//318 117//319
f 94//320 159//320 182//320
f 139//321 182//321 159//321
f 183//322 139//322 159//322
f 183//323 159//323 96//323
f 169//324 144//325 34//324
f 7//326 156//327 6//328
f 19//329 12//330 18//331
f 12//332 11//332 45//332
f 12//333 19//334 13//333
f 163//335 45//335 11//335
f 44//36 46//35 4//42
f 44//336 4//336 3//337
f 53//338 184//339 48//340
f 184//341 47//341 48//341
f 55//342 2//343 47//342
f 47//344 172//344 55//344
f 47//345 184//345 172//345
f 46//346 51//346 48//346
f 163//347 51//347 46//347
f 163//348 49//349 51//348
f 51//350 53//350 48//350
f 52//351 58//352 53//352
f 54//353 58//354 52//355
f 172//356 184//356 57//356
f 58//357 57//357 184//357
f 58//358 184//339 53//338
f 57//359 68//359 172//359
f 57//360 59//360 68//360
f 67//361 35//362 171//361
f 68//363 67//363 171//363
f 74//364 185//365 186//366
f 186//367 79//368 74//368
f 73//369 74//369 79//369
f 185//370 74//371 60//371
f 70//372 75//373 63//372
f 63//374 38//375 37//374
f 186//376 81//377 79//378
f 21//379 79//379 82//380
f 79//381 81//382 82//383
f 76//384 78//385 187//386
f 84//387 187//388 78//389
f 179//390 83//391 84//392
f 110//393 116//393 109//393
f 109//394 116//394 176//394
f 94//395 182//395 102//395
f 102//396 182//396 158//396
f 141//397 158//397 182//397
f 182//398 139//398 141//398
f 87//399 103//110 102//112
f 175//400 178//401 174//402
f 160//403 113//403 28//403
f 113//404 29//404 28//404
f 123//405 108//405 109//405
f 109//406 176//406 123//406
f 117//407 115//408 178//409
f 15//410 125//411 14//412
f 125//413 15//414 188//413
f 188//415 15//416 189//415
f 176//417 177//418 127//419
f 190//420 120//421 119//420
f 120//422 190//423 122//424
f 168//425 190//425 119//425
f 122//426 190//427 189//427
f 190//428 168//428 191//428
f 191//429 189//429 190//429
f 189//430 15//431 16//432
f 16//433 122//434 189//435
f 133//436 139//436 183//436
f 183//437 130//437 133//437
f 131//438 130//438 90//438
f 77//439 24//439 180//439
f 71//440 24//440 77//440
f 150//441 30//441 154//441
f 192//442 156//443 43//444
f 137//445 83//446 135//447
f 147//448 91//449 90//448
f 90//450 89//451 131//450
f 148//452 90//452 130//452
f 92//453 91//454 193//455
f 91//456 147//457 193//457
f 130//458 183//458 148//458
f 92//459 193//460 155//461
f 158//462 88//463 87//464
f 192//465 128//466 129//467
f 192//468 166//469 128//468
f 163//470 162//471 49//472
f 24//473 25//473 194//473
f 25//474 170//474 194//474
f 140//475 194//475 170//475
f 104//476 29//476 105//476
f 31//477 29//477 104//477
f 154//478 155//479 193//478
f 193//480 150//480 154//480
f 163//481 46//481 45//481
f 68//482 59//482 66//482
f 161//483 185//484 60//485
f 192//486 6//487 156//486
f 3//488 17//489 44//490
f 71//491 23//491 24//491
f 113//492 105//492 29//492
f 104//493 106//493 188//493
f 191//494 31//494 104//494
f 188//495 191//495 104//495
f 123//496 176//496 127//497
f 119//498 169//498 168//498
f 145//499 169//500 119//500
f 145//501 144//502 169//503
f 189//504 191//504 188//504
f 183//505 96//505 148//505
f 31//506 191//506 168//506
f 37//507 35//508 67//507
f 135//509 83//510 179//509
f 194//511 181//511 180//511
f 140//512 181//512 194//512
f 179//513 181//513 135//513
f 181//514 140//514 134//514
f 134//515 135//515 181//515
f 121//516 145//517 119//518
f 121//519 146//520 145//521
f 125//522 106//522 108//522
f 129//467 6//523 192//465
f 158//524 87//525 102//524
f 125//526 188//526 106//526
f 114//315 113//527 160//313
f 193//528 147//528 150//528
f 194//529 180//529 24//529
f 166//530 192//442 43//444
f 60//531 61//532 161//533
