# Blender v3.0.1 OBJ File: ''
# www.blender.org
mtllib small_mesh.mtl
o test_mesh_coarser
v 0.132447 0.552345 0.022072
v 0.068310 0.650905 -0.034893
v 0.008410 0.550286 0.012355
v 0.336586 0.641562 -0.043667
v 0.203727 0.661040 -0.021271
v 0.263240 0.546945 0.010341
v 0.387439 0.522661 -0.048786
v 0.060714 0.447022 0.035904
v 0.121901 0.338390 0.026815
v 0.241209 0.329686 -0.008152
v 0.347744 0.335098 -0.069109
v 0.307550 0.431027 -0.012200
v 0.190746 0.439428 0.027463
v 0.395766 0.431795 -0.078727
vn -0.0023 0.2663 0.9639
vn -0.2241 0.6164 0.7549
vn -0.1528 0.4024 0.9026
vn 0.3764 0.3679 0.8503
vn 0.0345 0.5301 0.8473
vn 0.2673 0.1502 0.9518
vn 0.5881 -0.0064 0.8088
vn -0.0119 0.0414 0.9991
vn 0.3833 -0.2183 0.8975
vn 0.6344 -0.3187 0.7042
vn 0.4503 -0.1538 0.8795
vn 0.1868 -0.0467 0.9813
vn 0.1078 -0.1490 0.9829
vn 0.6780 -0.2384 0.6953
usemtl Default_OBJ
s 1
f 1//1 2//2 3//3
f 4//4 5//5 6//6
f 2//2 1//1 5//5
f 6//6 7//7 4//4
f 3//3 8//8 1//1
f 1//1 6//6 5//5
f 10//9 11//10 12//11
f 13//12 9//13 10//9
f 8//8 13//12 1//1
f 12//11 6//6 13//12
f 1//1 13//12 6//6
f 13//12 10//9 12//11
f 12//11 11//10 14//14
f 7//7 6//6 12//11
f 7//7 12//11 14//14
f 8//8 9//13 13//12
