# Blender 4.1.1
# www.blender.org
mtllib triMeshTest.mtl
o triMeshTest
v -6.608004 -3.141900 1.609060
v -6.582217 -3.283341 1.353280
v -6.556136 -3.410173 1.086112
v -6.502571 -3.252200 1.852069
v -6.529626 -3.518174 0.804784
v -6.493250 -3.411194 1.595611
v -6.475509 -3.556406 1.324826
v -6.498343 -3.601986 0.508264
v -6.374644 -3.355373 2.099945
v -6.450190 -3.683866 1.038622
v -6.463872 -3.660119 0.197394
v -6.377921 -3.530284 1.846650
v -6.417049 -3.789581 0.736574
v -6.369564 -3.693286 1.576214
v -6.425936 -3.692873 -0.126616
v -6.376322 -3.870741 0.419454
v -6.348992 -3.839783 1.288318
v -6.224514 -3.447015 2.350861
v -6.381296 -3.701689 -0.462158
v -6.238046 -3.637413 2.103600
v -6.317130 -3.966342 0.983443
v -6.328973 -3.926546 0.088449
v -6.237748 -3.816982 1.836395
v -6.332972 -3.692214 -0.810662
v -6.273813 -4.069699 0.662426
v -6.223721 -3.981865 1.549981
v -6.271111 -3.955509 -0.254294
v -6.053458 -3.522626 2.603490
v -6.195284 -4.128132 1.245078
v -6.219319 -4.147757 0.326799
v -6.075668 -3.729279 2.364596
v -6.275012 -3.666893 -1.173261
v -6.198884 -3.957814 -0.605273
v -6.082742 -3.925259 2.102807
v -6.153425 -4.253359 0.922942
v -6.154375 -4.199934 -0.021771
v -6.074965 -4.107409 1.820019
v -6.108845 -3.934729 -0.960702
v -6.096065 -4.353699 0.584864
v -6.051700 -4.272406 1.517596
v -5.864291 -3.578712 2.857431
v -6.073961 -4.223182 -0.380056
v -5.891637 -3.802166 2.627578
v -6.012474 -4.417593 1.196955
v -5.905247 -4.015287 2.372891
v -6.024471 -4.427919 0.232930
v -5.904309 -4.214836 2.095565
v -6.001308 -3.891623 -1.317674
v -5.973481 -4.215739 -0.742432
v -5.956361 -4.540175 0.859359
v -5.886613 -4.397152 1.797208
v -5.939170 -4.475123 -0.130893
v -5.658772 -3.611965 3.111825
v -5.881978 -4.636895 0.506494
v -5.688201 -3.853578 2.891392
v -5.851292 -4.560180 1.480033
v -5.850753 -4.178270 -1.102150
v -5.705953 -4.084437 2.644242
v -5.834490 -4.490259 -0.502153
v -5.710006 -4.300773 2.372733
v -5.797921 -4.702696 1.145766
v -5.791176 -4.706970 0.140231
v -5.698778 -4.499878 2.079687
v -5.703540 -4.111052 -1.450668
v -5.724007 -4.821420 0.795355
v -5.706507 -4.469706 -0.873303
v -5.670122 -4.679801 1.767660
v -5.437608 -3.619384 3.364715
v -5.682676 -4.747046 -0.236998
v -5.465176 -3.880096 3.153236
v -5.620853 -4.838760 1.438575
v -5.485163 -4.130177 2.914306
v -5.630180 -4.914450 0.430107
v -5.493421 -4.364358 2.649008
v -5.555033 -4.412941 -1.235471
v -5.487771 -4.579350 2.360945
v -5.549894 -4.976946 1.094070
v -5.552064 -4.750537 -0.619415
v -5.466576 -4.774155 2.054321
v -5.517853 -4.979929 0.051124
v -5.456127 -5.092393 0.734245
v -5.425233 -4.947385 1.731689
v -5.202489 -3.599490 3.614773
v -5.382942 -4.321938 -1.579728
v -5.224858 -3.880366 3.411860
v -5.397508 -4.712601 -0.997928
v -5.243770 -4.150682 3.180856
v -5.383516 -5.009955 -0.338162
v -5.360307 -5.100524 1.395511
v -5.254457 -4.404231 2.921783
v -5.254423 -4.636644 2.638501
v -5.340346 -5.182298 0.358833
v -5.241466 -4.845861 2.336195
v -5.269432 -5.235259 1.045909
v -5.223501 -4.634628 -1.364087
v -5.210858 -5.030690 2.019254
v -5.225441 -4.997015 -0.730452
v -5.202026 -5.240338 -0.031364
v -5.157697 -5.194285 1.692061
v -5.152856 -5.349112 0.680360
v -4.954342 -3.551582 3.859887
v -4.969437 -3.853713 3.666524
v -4.983593 -4.145039 3.442856
v -4.994078 -4.419890 3.189915
v -5.073925 -5.341416 1.355898
v -4.997207 -4.671392 2.909882
v -5.035963 -4.520124 -1.710274
v -5.047630 -4.939617 -1.117521
v -4.992456 -4.897007 2.610117
v -5.039798 -5.256982 -0.431862
v -4.975368 -5.093452 2.296483
v -5.010495 -5.434967 0.296751
v -4.938979 -5.262349 1.975603
v -4.957811 -5.474013 1.007368
v -4.873890 -5.413645 1.653432
v -4.856576 -4.839955 -1.492221
v -4.856567 -5.226715 -0.835462
v -4.843131 -5.483668 -0.103924
v -4.692688 -3.475330 4.095460
v -4.812295 -5.586260 0.639576
v -4.698061 -3.797866 3.912488
v -4.705170 -4.111072 3.697706
v -4.712079 -4.408638 3.451330
v -4.716855 -4.683793 3.175618
v -4.763099 -5.557676 1.328749
v -4.716987 -4.929050 2.875077
v -4.711932 -5.140944 2.559525
v -4.698199 -5.316594 2.239743
v -4.665513 -5.461370 1.926422
v -4.657211 -4.698574 -1.845542
v -4.658261 -5.148563 -1.234612
v -4.652733 -5.485592 -0.516590
v -4.638588 -5.666805 0.249030
v -4.614127 -5.689702 0.987363
v -4.578065 -5.602036 1.628235
v -4.451837 -5.023687 -1.622221
v -4.445305 -5.436926 -0.934511
v -4.439019 -5.703139 -0.162341
v -4.426208 -5.745630 1.329649
v -4.432496 -5.798631 0.619370
v -4.416744 -3.371109 4.314149
v -4.410696 -3.711159 4.143013
v -4.408381 -4.045309 3.939586
v -4.413283 -4.937737 3.131588
v -4.408756 -4.366464 3.702310
v -4.410669 -4.666611 3.431666
v -4.416212 -5.173047 2.810107
v -4.418849 -5.366777 2.478942
v -4.420128 -5.514376 2.157069
v -4.420907 -5.613914 1.878574
v -4.261787 -5.753040 1.663841
v -4.234826 -5.877264 0.998871
v -4.222214 -5.869856 0.221424
v -4.220147 -5.689305 -0.589417
v -4.227045 -5.334748 -1.349570
v -4.243706 -4.851903 -1.989276
v -4.160224 -5.697004 2.004827
v -4.120131 -5.574687 2.353692
v -4.099074 -5.401464 2.706019
v -4.086616 -5.179240 3.051610
v -4.056896 -5.900713 1.382667
v -4.081071 -4.914931 3.378242
v -4.081054 -4.615324 3.675471
v -4.086329 -4.289752 3.938062
v -4.096173 -3.946750 4.163487
v -4.011055 -5.979264 0.626916
v -4.109942 -3.594455 4.352154
v -4.128338 -3.241906 4.510323
v -3.988946 -5.891838 -0.202714
v -3.987266 -5.616883 -1.023543
v -4.006058 -5.179503 -1.754238
v -3.913976 -5.866488 1.769419
v -3.816336 -6.030218 1.046552
v -3.824390 -5.769172 2.160877
v -3.761191 -6.036536 0.217718
v -3.770739 -5.614501 2.550071
v -3.739442 -5.855365 -0.645399
v -3.740314 -5.406696 2.928133
v -3.749787 -5.487146 -1.457966
v -3.791172 -4.972528 -2.140456
v -3.725755 -5.150566 3.285447
v -3.648377 -6.019082 1.474597
v -3.724190 -4.854945 3.613929
v -3.732608 -4.526813 3.904490
v -3.749345 -4.176966 4.154157
v -3.772083 -3.814540 4.361756
v -3.547224 -6.120501 0.662925
v -3.799411 -3.449595 4.532619
v -3.829680 -3.090489 4.675473
v -3.519197 -5.943645 1.906150
v -3.492498 -6.037289 -0.221126
v -3.482542 -5.758224 -1.099015
v -3.431958 -5.809935 2.335876
v -3.516065 -5.298892 -1.884421
v -3.356251 -6.139242 1.124678
v -3.376962 -5.618147 2.753561
v -3.257019 -6.157332 0.239330
v -3.347537 -5.372193 3.148553
v -3.339034 -5.080140 3.511481
v -3.197662 -6.092012 1.594664
v -3.213693 -5.976203 -0.681438
v -3.347722 -4.751297 3.834336
v -3.226332 -5.597120 -1.554952
v -3.370338 -4.396563 4.112293
v -3.297018 -5.056667 -2.297362
v -3.403164 -4.026193 4.342896
v -3.442762 -3.651291 4.529737
v -3.077789 -5.978429 2.063842
v -3.042277 -6.210941 0.725991
v -3.485010 -3.280841 4.678802
v -2.954334 -6.132626 -0.215622
v -2.995676 -5.804125 2.522762
v -2.932835 -5.848463 -1.154451
v -2.856695 -6.194894 1.228349
v -2.946835 -5.570104 2.958922
v -2.980606 -5.373998 -2.006189
v -2.927456 -5.286076 3.363055
v -2.714293 -6.222208 0.286801
v -2.932960 -4.957736 3.722892
v -2.707336 -6.108443 1.735143
v -2.959321 -4.598235 4.032298
v -2.647546 -6.039487 -0.692600
v -3.002156 -4.221739 4.290845
v -3.056244 -3.839366 4.499547
v -2.597497 -5.954903 2.234725
v -2.658634 -5.651043 -1.630569
v -3.115679 -3.460210 4.661136
v -2.501853 -6.240829 0.813957
v -2.756579 -5.097482 -2.450835
v -2.526423 -5.737069 2.714161
v -2.380966 -6.166502 -0.183559
v -2.324192 -6.184802 1.352796
v -2.491842 -5.462471 3.161506
v -2.345135 -5.874279 -1.181660
v -2.490485 -5.138734 3.564218
v -2.400763 -5.393285 -2.106185
v -2.186452 -6.057363 1.890060
v -2.518238 -4.777954 3.912781
v -2.141405 -6.219377 0.360279
v -2.569805 -4.396307 4.204962
v -2.638857 -4.006196 4.439329
v -2.050963 -6.035213 -0.674114
v -2.718296 -3.619924 4.619946
v -2.090996 -5.859797 2.411401
v -1.936098 -6.196482 0.923974
v -2.055242 -5.640838 -1.674934
v -2.037463 -5.600948 2.904206
v -2.167267 -5.094662 -2.591201
v -1.784641 -6.122891 -0.121747
v -2.024744 -5.286343 3.353608
v -1.770577 -6.098633 1.492983
v -2.049843 -4.927845 3.747175
v -1.732573 -5.827760 -1.173382
v -2.107286 -4.543566 4.080523
v -1.648803 -5.927875 2.052749
v -1.552999 -6.133651 0.458892
v -1.783952 -5.348094 -2.168464
v -2.190454 -4.147696 4.350221
v -2.291223 -3.753249 4.555282
v -1.572632 -5.690167 2.589145
v -1.440287 -5.948771 -0.619716
v -1.360738 -6.068274 1.051963
v -1.543437 -5.390109 3.086168
v -1.431370 -5.552045 -1.672565
v -1.524937 -5.045895 -2.702421
v -1.559851 -5.041008 3.530775
v -1.185051 -5.991743 -0.029344
v -1.211943 -5.928318 1.642841
v -1.618331 -4.657044 3.911574
v -1.116017 -5.695870 -1.119439
v -1.712097 -4.257141 4.224891
v -1.109524 -5.718880 2.217877
v -0.968913 -5.959741 0.579450
v -1.832880 -3.856943 4.468775
v -1.142691 -5.234004 -2.178801
v -1.057679 -5.441938 2.761101
v -0.841179 -5.769654 -0.525494
v -0.794668 -5.852975 1.192325
v -1.058029 -5.107976 3.257155
v -0.812080 -5.379796 -1.611277
v -1.109373 -4.732057 3.693043
v -0.665755 -5.673546 1.795781
v -0.606453 -5.770582 0.091262
v -1.207406 -4.331319 4.058669
v -1.343832 -3.925916 4.351151
v -0.524846 -5.475741 -1.014359
v -0.585166 -5.428308 2.377768
v -0.411779 -5.697379 0.716303
v -0.560467 -5.118562 2.921870
v -0.281253 -5.504461 -0.394180
v -0.258695 -5.551321 1.337121
v -0.594039 -4.758283 3.413357
v -0.684204 -4.366044 3.841269
v -0.149265 -5.338539 1.943528
v -0.074893 -5.464423 0.234141
v -0.825156 -3.961073 4.198565
v -0.090561 -5.062596 2.525159
v 0.095587 -5.353358 0.860483
v -0.091393 -4.730223 3.068439
v 0.230405 -5.175388 1.476776
v -0.153477 -4.359676 3.564530
v -0.273879 -3.970459 4.010604
v 0.326883 -4.937862 2.078368
v 0.374018 -4.644780 2.659796
v 0.369172 -4.311857 3.221326
v 0.302967 -3.950261 3.761945
vn 0.8955 0.3921 -0.2105
vn 0.8725 0.3967 -0.2852
vn 0.8610 0.4132 -0.2965
vn 0.8891 0.4028 -0.2174
vn 0.9103 0.3942 -0.1262
vn 0.9134 0.4063 0.0253
vn 0.9120 0.4100 0.0122
vn 0.9226 0.3856 -0.0117
vn 0.9199 0.3905 -0.0358
vn 0.9280 0.3686 -0.0541
vn 0.8901 0.4558 -0.0023
vn 0.8869 0.4611 -0.0288
vn 0.8993 0.4340 -0.0532
vn 0.8636 0.5021 -0.0451
vn 0.9249 0.3704 -0.0855
vn 0.9172 0.3730 -0.1399
vn 0.9243 0.3724 -0.0841
vn 0.9029 0.4167 -0.1057
vn 0.8956 0.4191 -0.1493
vn 0.9002 0.4056 -0.1585
vn 0.8732 0.4568 -0.1700
vn 0.8886 0.4045 -0.2163
vn 0.8700 0.4337 -0.2345
vn 0.8564 0.4290 -0.2873
vn 0.8624 0.4559 -0.2202
vn 0.8943 0.4386 -0.0886
vn 0.8704 0.4802 -0.1084
vn 0.8628 0.4825 -0.1510
vn 0.8576 0.5072 -0.0857
vn 0.9004 0.4306 0.0619
vn 0.8998 0.4328 0.0557
vn 0.8786 0.4649 0.1090
vn 0.8565 0.5060 0.1018
vn 0.8547 0.5126 0.0825
vn 0.8754 0.4814 0.0441
vn 0.8300 0.5532 0.0718
vn 0.8737 0.4855 0.0289
vn 0.8494 0.5275 0.0152
vn 0.8458 0.5334 -0.0148
vn 0.8278 0.5588 0.0506
vn 0.8285 0.5393 0.1510
vn 0.8064 0.5736 0.1438
vn 0.8039 0.5840 0.1127
vn 0.7728 0.6045 0.1932
vn 0.8382 0.4531 -0.3035
vn 0.8287 0.4806 -0.2868
vn 0.8078 0.5054 -0.3033
vn 0.8415 0.4851 -0.2380
vn 0.8291 0.5151 -0.2173
vn 0.8066 0.5428 -0.2341
vn 0.7941 0.5384 -0.2819
vn 0.7896 0.5771 -0.2087
vn 0.7652 0.5686 -0.3020
vn 0.7482 0.6022 -0.2785
vn 0.7145 0.6325 -0.2991
vn 0.7615 0.6070 -0.2272
vn 0.8397 0.5160 -0.1692
vn 0.8253 0.5455 -0.1460
vn 0.7993 0.5781 -0.1640
vn 0.8332 0.5433 -0.1029
vn 0.8143 0.5758 -0.0737
vn 0.7879 0.6091 -0.0902
vn 0.7797 0.6112 -0.1361
vn 0.7633 0.6436 -0.0570
vn 0.7326 0.6766 -0.0747
vn 0.7244 0.6783 -0.1229
vn 0.7499 0.6433 -0.1545
vn 0.6897 0.7099 -0.1427
vn 0.7403 0.6420 -0.1993
vn 0.7046 0.6745 -0.2203
vn 0.6917 0.6695 -0.2708
vn 0.6798 0.7081 -0.1913
vn 0.7056 0.7073 -0.0430
vn 0.6703 0.7394 -0.0626
vn 0.6625 0.7404 -0.1131
vn 0.6422 0.7658 -0.0337
vn 0.6580 0.6954 -0.2891
vn 0.6335 0.7283 -0.2612
vn 0.5964 0.7525 -0.2794
vn 0.6462 0.7338 -0.2095
vn 0.6184 0.7648 -0.1807
vn 0.5820 0.7882 -0.1999
vn 0.5701 0.7820 -0.2520
vn 0.5522 0.8155 -0.1733
vn 0.5349 0.8012 -0.2682
vn 0.5065 0.8276 -0.2419
vn 0.4744 0.8417 -0.2579
vn 0.5150 0.8348 -0.1946
vn 0.6272 0.7675 -0.1327
vn 0.5968 0.7957 -0.1039
vn 0.5592 0.8195 -0.1255
vn 0.6029 0.7959 -0.0556
vn 0.8207 0.5706 -0.0301
vn 0.7981 0.6025 0.0031
vn 0.7694 0.6386 -0.0128
vn 0.8021 0.5960 0.0375
vn 0.7770 0.6253 0.0730
vn 0.7473 0.6618 0.0587
vn 0.7433 0.6686 0.0206
vn 0.7187 0.6890 0.0940
vn 0.7116 0.7026 0.0038
vn 0.6830 0.7295 0.0359
vn 0.6478 0.7616 0.0174
vn 0.6870 0.7224 0.0788
vn 0.7797 0.6177 0.1027
vn 0.7475 0.6480 0.1461
vn 0.7219 0.6786 0.1355
vn 0.7499 0.6350 0.1856
vn 0.8781 0.4668 0.1046
vn 0.8406 0.5256 0.1309
vn 0.8451 0.5066 0.1706
vn 0.7820 0.5770 0.2356
vn 0.8297 0.5325 0.1672
vn 0.7902 0.5678 0.2308
vn 0.7744 0.5906 0.2269
vn 0.7905 0.5648 0.2369
vn 0.7733 0.6118 0.1663
vn 0.4402 0.8665 -0.2352
vn 0.4404 0.8759 -0.1972
vn 0.4026 0.8979 -0.1782
vn 0.4805 0.8605 -0.1694
vn 0.4837 0.8664 -0.1240
vn 0.4435 0.8909 -0.0979
vn 0.3997 0.9074 -0.1299
vn 0.4439 0.8949 -0.0458
vn 0.3520 0.9299 -0.1064
vn 0.3477 0.9364 -0.0476
vn 0.2926 0.9560 -0.0197
vn 0.3941 0.9189 -0.0149
vn 0.5249 0.8455 -0.0979
vn 0.5289 0.8473 -0.0493
vn 0.4872 0.8731 -0.0180
vn 0.5692 0.8218 -0.0256
vn 0.5736 0.8186 0.0296
vn 0.5338 0.8432 0.0635
vn 0.4892 0.8713 0.0379
vn 0.5363 0.8351 0.1225
vn 0.4889 0.8573 0.1615
vn 0.4415 0.8869 0.1359
vn 0.4411 0.8945 0.0730
vn 0.3940 0.9033 0.1699
vn 0.3929 0.9186 0.0432
vn 0.3396 0.9375 0.0761
vn 0.2881 0.9567 0.0420
vn 0.3378 0.9311 0.1375
vn 0.4899 0.8430 0.2221
vn 0.4468 0.8570 0.2567
vn 0.3938 0.8898 0.2306
vn 0.4472 0.8355 0.3193
vn 0.2294 0.9706 0.0728
vn 0.2253 0.9647 0.1363
vn 0.1704 0.9713 0.1661
vn 0.2829 0.9437 0.1716
vn 0.2813 0.9304 0.2352
vn 0.2332 0.9355 0.2654
vn 0.1675 0.9590 0.2287
vn 0.2329 0.9155 0.3280
vn 0.1123 0.9592 0.2596
vn 0.1115 0.9408 0.3202
vn 0.0573 0.9346 0.3511
vn 0.1863 0.9151 0.3577
vn 0.3423 0.9008 0.2671
vn 0.3423 0.8796 0.3304
vn 0.3011 0.8832 0.3597
vn 0.4008 0.8442 0.3559
vn 0.6134 0.7881 0.0512
vn 0.6170 0.7802 0.1027
vn 0.5750 0.8057 0.1423
vn 0.6499 0.7506 0.1187
vn 0.6529 0.7385 0.1683
vn 0.6079 0.7645 0.2145
vn 0.5772 0.7915 0.2009
vn 0.6094 0.7454 0.2701
vn 0.5322 0.8114 0.2417
vn 0.5330 0.7907 0.3013
vn 0.4916 0.8028 0.3375
vn 0.5647 0.7634 0.3136
vn 0.6831 0.7075 0.1811
vn 0.6851 0.6920 0.2277
vn 0.6371 0.7180 0.2804
vn 0.7097 0.6636 0.2363
vn 0.7109 0.6448 0.2808
vn 0.6621 0.6692 0.3374
vn 0.6375 0.6961 0.3301
vn 0.6616 0.6476 0.3782
vn 0.6111 0.6635 0.4317
vn 0.5904 0.6852 0.4265
vn 0.5914 0.7127 0.3773
vn 0.5504 0.6934 0.4651
vn 0.5647 0.7382 0.3689
vn 0.5239 0.7483 0.4068
vn 0.4917 0.7754 0.3961
vn 0.5233 0.7186 0.4580
vn 0.6092 0.6367 0.4728
vn 0.5628 0.6442 0.5180
vn 0.5485 0.6587 0.5150
vn 0.5085 0.6612 0.5515
vn 0.4526 0.6812 0.5754
vn 0.4853 0.6822 0.5468
vn 0.4164 0.7097 0.5683
vn 0.4859 0.7226 0.4916
vn 0.4524 0.7499 0.4826
vn 0.4521 0.7814 0.4301
vn 0.4147 0.7506 0.5144
vn 0.3864 0.7061 0.5934
vn 0.4015 0.8178 0.4124
vn 0.3625 0.8200 0.4430
vn 0.3024 0.8553 0.4207
vn 0.3644 0.7854 0.5003
vn 0.3308 0.7829 0.5269
vn 0.2662 0.8194 0.5076
vn 0.2626 0.8539 0.4493
vn 0.2349 0.8144 0.5306
vn 0.1881 0.8881 0.4195
vn 0.1435 0.8822 0.4485
vn 0.0590 0.9097 0.4112
vn 0.1478 0.8522 0.5019
vn 0.3352 0.7400 0.5831
vn 0.3155 0.7359 0.5991
vn 0.2414 0.7757 0.5831
vn 0.0168 0.8999 0.4358
vn 0.0209 0.8742 0.4851
vn -0.0122 0.8629 0.5051
vn 0.1181 0.8448 0.5219
vn 0.1251 0.8130 0.5686
vn 0.1306 0.8149 0.5646
vn -0.0100 0.8536 0.5208
vn 0.0209 0.8657 0.5001
vn 0.2270 0.7716 0.5942
vn 0.7303 0.6203 0.2862
vn 0.7307 0.6070 0.3125
vn 0.6740 0.6328 0.3811
vn 0.7369 0.5987 0.3138
vn 0.7363 0.6088 0.2953
vn 0.6528 0.6435 0.3998
vn 0.6734 0.6192 0.4039
vn 0.6091 0.6367 0.4728
vn 0.6939 0.6596 0.2887
vn 0.4069 0.8742 -0.2649
vn 0.3693 0.8931 -0.2568
vn 0.3310 0.8952 -0.2983
vn 0.3610 0.9078 -0.2137
vn 0.3137 0.9286 -0.1981
vn 0.2664 0.9328 -0.2428
vn 0.2797 0.9148 -0.2914
vn 0.2149 0.9491 -0.2302
vn 0.2431 0.9111 -0.3328
vn 0.1896 0.9259 -0.3266
vn 0.1481 0.9154 -0.3742
vn 0.1722 0.9465 -0.2731
vn 0.3052 0.9413 -0.1442
vn 0.2485 0.9609 -0.1225
vn 0.2001 0.9658 -0.1646
vn 0.2398 0.9690 -0.0598
vn 0.1804 0.9830 -0.0347
vn 0.1264 0.9889 -0.0783
vn 0.1393 0.9795 -0.1454
vn 0.0641 0.9964 -0.0555
vn 0.0058 0.9944 -0.1053
vn 0.0221 0.9844 -0.1744
vn 0.0879 0.9773 -0.1926
vn -0.0290 0.9742 -0.2236
vn 0.1065 0.9598 -0.2596
vn 0.0622 0.9501 -0.3057
vn 0.0852 0.9263 -0.3671
vn -0.0068 0.9563 -0.2924
vn -0.0618 0.9946 -0.0830
vn -0.1190 0.9837 -0.1345
vn -0.0995 0.9736 -0.2054
vn -0.1924 0.9749 -0.1117
vn 0.0410 0.9074 -0.4183
vn -0.0282 0.9116 -0.4100
vn -0.0687 0.8863 -0.4581
vn -0.0556 0.9370 -0.3449
vn -0.1249 0.9351 -0.3315
vn -0.1677 0.9099 -0.3794
vn -0.1350 0.8832 -0.4492
vn -0.2370 0.9002 -0.3653
vn -0.1770 0.8471 -0.5010
vn -0.2395 0.8373 -0.4914
vn -0.2744 0.7976 -0.5372
vn -0.2789 0.8661 -0.4149
vn -0.1517 0.9541 -0.2581
vn -0.2238 0.9448 -0.2395
vn -0.2684 0.9195 -0.2871
vn -0.2472 0.9550 -0.1640
vn 0.1723 0.9845 0.0324
vn 0.1134 0.9918 0.0592
vn 0.0530 0.9985 0.0139
vn 0.1070 0.9864 0.1248
vn 0.0498 0.9871 0.1522
vn -0.0183 0.9943 0.1048
vn -0.0100 0.9992 0.0393
vn -0.0861 0.9872 0.1339
vn -0.0756 0.9971 -0.0129
vn -0.1463 0.9892 0.0131
vn -0.2088 0.9771 -0.0400
vn -0.1570 0.9843 0.0809
vn 0.0453 0.9746 0.2194
vn -0.0147 0.9683 0.2493
vn -0.0920 0.9756 0.1992
vn -0.0164 0.9503 0.3109
vn -0.0758 0.9370 0.3410
vn -0.1594 0.9435 0.2904
vn -0.1563 0.9610 0.2279
vn -0.2249 0.9204 0.3199
vn -0.3138 0.9136 0.2587
vn -0.3095 0.9293 0.2015
vn -0.2357 0.9566 0.1715
vn -0.3796 0.9136 0.1458
vn -0.2284 0.9674 0.1091
vn -0.2953 0.9538 0.0547
vn -0.2827 0.9591 -0.0141
vn -0.3709 0.9250 0.0830
vn -0.3785 0.8808 0.2846
vn -0.4592 0.8606 0.2202
vn -0.4546 0.8735 0.1743
vn -0.5190 0.8468 0.1165
vn -0.5625 0.8268 0.0065
vn -0.5100 0.8582 0.0583
vn -0.5482 0.8341 -0.0611
vn -0.4317 0.9016 0.0289
vn -0.4178 0.9077 -0.0393
vn -0.3402 0.9380 -0.0667
vn -0.4697 0.8781 -0.0908
vn -0.5874 0.8026 -0.1033
vn -0.3212 0.9365 -0.1409
vn -0.3705 0.9090 -0.1911
vn -0.3452 0.9000 -0.2663
vn -0.4495 0.8779 -0.1650
vn -0.4895 0.8467 -0.2088
vn -0.4612 0.8387 -0.2896
vn -0.3858 0.8681 -0.3124
vn -0.4952 0.8032 -0.3311
vn -0.3483 0.8482 -0.3992
vn -0.3833 0.8100 -0.4437
vn -0.3377 0.7807 -0.5258
vn -0.4526 0.7836 -0.4256
vn -0.5667 0.8041 -0.1799
vn -0.5936 0.7765 -0.2114
vn -0.5598 0.7691 -0.3084
vn -0.3659 0.7385 -0.5663
vn -0.4208 0.7177 -0.5548
vn -0.4325 0.6956 -0.5737
vn -0.4769 0.7494 -0.4592
vn -0.5241 0.7261 -0.4450
vn -0.5199 0.7328 -0.4389
vn -0.4392 0.6926 -0.5723
vn -0.4209 0.7293 -0.5394
vn -0.5766 0.7474 -0.3300
vn -0.0750 0.9177 0.3902
vn -0.1295 0.8990 0.4184
vn -0.2252 0.9040 0.3634
vn -0.1273 0.8822 0.4533
vn -0.1479 0.8733 0.4643
vn -0.2824 0.8766 0.3897
vn -0.2824 0.8769 0.3890
vn -0.3801 0.8670 0.3223
vn -0.1514 0.8899 0.4302
vn 0.8426 0.4034 -0.3568
vn 0.8296 0.4195 -0.3685
vn 0.8086 0.4057 -0.4261
vn 0.7937 0.4216 -0.4385
vn 0.7736 0.4059 -0.4866
vn 0.7558 0.4223 -0.5005
vn 0.7364 0.4048 -0.5420
vn 0.7097 0.4257 -0.5614
vn 0.6930 0.4086 -0.5940
vn 0.6621 0.4287 -0.6148
vn 0.6473 0.4118 -0.6414
vn 0.6149 0.4290 -0.6617
vn 0.5997 0.4099 -0.6873
vn 0.5571 0.4277 -0.7118
vn 0.5425 0.4076 -0.7345
vn 0.4847 0.4255 -0.7642
vn 0.4698 0.4035 -0.7851
vn 0.8223 0.4446 -0.3551
vn 0.8023 0.4673 -0.3715
vn 0.7839 0.4549 -0.4225
vn 0.7920 0.4969 -0.3548
vn 0.7654 0.5236 -0.3742
vn 0.7491 0.5126 -0.4196
vn 0.7624 0.4756 -0.4387
vn 0.7189 0.5384 -0.4397
vn 0.7440 0.4608 -0.4839
vn 0.7159 0.4838 -0.5034
vn 0.6963 0.4659 -0.5459
vn 0.7008 0.5238 -0.4842
vn 0.7498 0.5603 -0.3519
vn 0.7178 0.5884 -0.3723
vn 0.7017 0.5775 -0.4172
vn 0.6993 0.6242 -0.3483
vn 0.6660 0.6496 -0.3667
vn 0.6491 0.6383 -0.4139
vn 0.6676 0.6029 -0.4368
vn 0.6117 0.6626 -0.4323
vn 0.5924 0.6482 -0.4785
vn 0.6119 0.6115 -0.5016
vn 0.6490 0.5882 -0.4825
vn 0.5934 0.5955 -0.5415
vn 0.6673 0.5480 -0.5045
vn 0.6481 0.5307 -0.5461
vn 0.6657 0.4870 -0.5654
vn 0.6145 0.5510 -0.5646
vn 0.5540 0.6694 -0.4950
vn 0.5353 0.6543 -0.5342
vn 0.5566 0.6150 -0.5585
vn 0.4861 0.6770 -0.5526
vn 0.6475 0.4684 -0.6011
vn 0.6143 0.4873 -0.6206
vn 0.5984 0.4694 -0.6493
vn 0.5952 0.5318 -0.6025
vn 0.5551 0.5517 -0.6225
vn 0.5360 0.5310 -0.6563
vn 0.5557 0.4891 -0.6723
vn 0.4852 0.5509 -0.6790
vn 0.5386 0.4682 -0.7005
vn 0.4842 0.4873 -0.7267
vn 0.4657 0.4625 -0.7545
vn 0.4642 0.5260 -0.7126
vn 0.5342 0.5937 -0.6018
vn 0.4855 0.6146 -0.6218
vn 0.4635 0.5918 -0.6596
vn 0.4622 0.6560 -0.5967
vn 0.6429 0.6871 -0.3386
vn 0.6077 0.7102 -0.3555
vn 0.5895 0.6986 -0.4055
vn 0.5823 0.7448 -0.3260
vn 0.5462 0.7652 -0.3408
vn 0.5270 0.7542 -0.3916
vn 0.5506 0.7206 -0.4213
vn 0.4857 0.7748 -0.4047
vn 0.5310 0.7074 -0.4665
vn 0.4871 0.7286 -0.4815
vn 0.4645 0.7126 -0.5258
vn 0.4641 0.7629 -0.4500
vn 0.5216 0.7939 -0.3124
vn 0.4818 0.8135 -0.3256
vn 0.4624 0.8053 -0.3711
vn 0.4620 0.8347 -0.2996
vn 0.2960 0.3745 -0.8787
vn 0.2167 0.3766 -0.9007
vn 0.3898 0.3938 -0.8324
vn 0.3124 0.4024 -0.8605
vn 0.4043 0.4169 -0.8141
vn 0.3873 0.4470 -0.8064
vn 0.3212 0.4568 -0.8296
vn 0.2997 0.4228 -0.8552
vn 0.3019 0.4880 -0.8189
vn 0.2406 0.4938 -0.8357
vn 0.2161 0.4537 -0.8646
vn 0.2342 0.4266 -0.8736
vn 0.1522 0.4537 -0.8781
vn 0.2108 0.3855 -0.8983
vn 0.1426 0.3834 -0.9125
vn 0.1267 0.4056 -0.9052
vn 0.2164 0.5298 -0.8201
vn 0.1513 0.5321 -0.8331
vn 0.1264 0.4890 -0.8631
vn 0.1223 0.5713 -0.8116
vn 0.0675 0.5700 -0.8189
vn 0.0404 0.5198 -0.8533
vn 0.0683 0.4854 -0.8716
vn -0.0083 0.5139 -0.8578
vn -0.0336 0.4542 -0.8902
vn -0.0053 0.4227 -0.9063
vn 0.0419 0.4303 -0.9017
vn 0.0660 0.3999 -0.9142
vn -0.0673 0.4466 -0.8922
vn 0.0343 0.6104 -0.7913
vn -0.0210 0.6060 -0.7952
vn -0.0464 0.5558 -0.8301
vn -0.0605 0.6489 -0.7585
vn -0.1134 0.6413 -0.7588
vn -0.1376 0.5907 -0.7951
vn -0.0927 0.5472 -0.8318
vn -0.1763 0.5811 -0.7945
vn -0.1137 0.4918 -0.8633
vn -0.1394 0.4843 -0.8637
vn -0.1939 0.5302 -0.8254
vn -0.1571 0.6833 -0.7131
vn -0.2058 0.6731 -0.7103
vn -0.2283 0.6251 -0.7464
vn -0.2578 0.7164 -0.6482
vn -0.2071 0.5256 -0.8251
vn -0.2799 0.5785 -0.7661
vn -0.2516 0.5896 -0.7675
vn -0.3557 0.6545 -0.6671
vn -0.3128 0.6723 -0.6710
vn -0.2682 0.6127 -0.7434
vn -0.3325 0.6593 -0.6744
vn -0.3576 0.6497 -0.6709
vn -0.3124 0.7009 -0.6412
vn 0.4079 0.4768 -0.7786
vn 0.3867 0.5142 -0.7655
vn 0.3277 0.5254 -0.7852
vn 0.4081 0.5422 -0.7345
vn 0.3844 0.5833 -0.7155
vn 0.3299 0.5959 -0.7322
vn 0.3043 0.5629 -0.7684
vn 0.3046 0.6358 -0.7092
vn 0.2443 0.5710 -0.7838
vn 0.2173 0.6106 -0.7616
vn 0.1516 0.6156 -0.7733
vn 0.2452 0.6462 -0.7227
vn 0.4076 0.6101 -0.6794
vn 0.3837 0.6504 -0.6556
vn 0.3307 0.6646 -0.6700
vn 0.4093 0.6752 -0.6136
vn 0.3849 0.7143 -0.5845
vn 0.3290 0.7314 -0.5974
vn 0.3026 0.7077 -0.6384
vn 0.3039 0.7684 -0.5632
vn 0.2515 0.7817 -0.5706
vn 0.2213 0.7572 -0.6145
vn 0.2481 0.7195 -0.6487
vn 0.1599 0.7672 -0.6211
vn 0.2170 0.6868 -0.6937
vn 0.1566 0.6940 -0.7027
vn 0.1239 0.6525 -0.7476
vn 0.1264 0.7337 -0.6676
vn 0.2238 0.8198 -0.5271
vn 0.1602 0.8325 -0.5303
vn 0.1275 0.8086 -0.5744
vn 0.1324 0.8672 -0.4801
vn 0.0620 0.6537 -0.7542
vn 0.0271 0.6956 -0.7179
vn -0.0328 0.6931 -0.7201
vn 0.0607 0.7378 -0.6723
vn 0.0257 0.7791 -0.6264
vn -0.0362 0.7789 -0.6261
vn -0.0719 0.7351 -0.6742
vn -0.0738 0.8180 -0.5705
vn -0.1285 0.7290 -0.6723
vn -0.1738 0.7714 -0.6121
vn -0.2290 0.7615 -0.6064
vn -0.1388 0.8131 -0.5653
vn 0.0636 0.8151 -0.5759
vn 0.0324 0.8507 -0.5247
vn -0.0350 0.8529 -0.5209
vn 0.0697 0.8758 -0.4777
vn 0.4103 0.7341 -0.5411
vn 0.3871 0.7691 -0.5085
vn 0.3325 0.7878 -0.5185
vn 0.4133 0.7845 -0.4622
vn 0.3903 0.8168 -0.4249
vn 0.3378 0.8365 -0.4315
vn 0.3075 0.8232 -0.4772
vn 0.3166 0.8657 -0.3877
vn 0.2565 0.8382 -0.4813
vn 0.2308 0.8724 -0.4310
vn 0.1723 0.8864 -0.4297
vn 0.2645 0.8831 -0.3874
vn 0.4155 0.8262 -0.3805
vn 0.3966 0.8511 -0.3440
vn 0.3479 0.8715 -0.3456
vn 0.4206 0.8540 -0.3064
s 0
f 1//1 4//1 6//1
f 4//2 9//2 12//2
f 9//3 20//3 12//3
f 4//4 12//4 6//4
f 1//5 6//5 2//5
f 11//6 8//6 16//6
f 16//7 8//7 13//7
f 13//8 8//8 5//8
f 13//9 5//9 10//9
f 5//10 3//10 10//10
f 16//11 13//11 25//11
f 25//12 13//12 21//12
f 13//13 10//13 21//13
f 25//14 21//14 35//14
f 3//15 2//15 7//15
f 2//16 6//16 7//16
f 3//17 7//17 10//17
f 10//18 7//18 17//18
f 17//19 7//19 14//19
f 7//20 6//20 14//20
f 17//21 14//21 26//21
f 6//22 12//22 14//22
f 14//23 12//23 23//23
f 12//24 20//24 23//24
f 14//25 23//25 26//25
f 10//26 17//26 21//26
f 21//27 17//27 29//27
f 17//28 26//28 29//28
f 21//29 29//29 35//29
f 15//30 11//30 22//30
f 11//31 16//31 22//31
f 15//32 22//32 27//32
f 27//33 22//33 36//33
f 36//34 22//34 30//34
f 22//35 16//35 30//35
f 36//36 30//36 46//36
f 16//37 25//37 30//37
f 30//38 25//38 39//38
f 25//39 35//39 39//39
f 30//40 39//40 46//40
f 27//41 36//41 42//41
f 42//42 36//42 52//42
f 36//43 46//43 52//43
f 42//44 52//44 59//44
f 20//45 34//45 23//45
f 23//46 34//46 37//46
f 34//47 47//47 37//47
f 23//48 37//48 26//48
f 26//49 37//49 40//49
f 40//50 37//50 51//50
f 37//51 47//51 51//51
f 40//52 51//52 56//52
f 47//53 63//53 51//53
f 51//54 63//54 67//54
f 63//55 79//55 67//55
f 51//56 67//56 56//56
f 26//57 40//57 29//57
f 29//58 40//58 44//58
f 40//59 56//59 44//59
f 29//60 44//60 35//60
f 35//61 44//61 50//61
f 50//62 44//62 61//62
f 44//63 56//63 61//63
f 50//64 61//64 65//64
f 65//65 61//65 77//65
f 77//66 61//66 71//66
f 61//67 56//67 71//67
f 77//68 71//68 89//68
f 56//69 67//69 71//69
f 71//70 67//70 82//70
f 67//71 79//71 82//71
f 71//72 82//72 89//72
f 65//73 77//73 81//73
f 81//74 77//74 94//74
f 77//75 89//75 94//75
f 81//76 94//76 100//76
f 79//77 96//77 82//77
f 82//78 96//78 99//78
f 96//79 113//79 99//79
f 82//80 99//80 89//80
f 89//81 99//81 105//81
f 105//82 99//82 115//82
f 99//83 113//83 115//83
f 105//84 115//84 125//84
f 113//85 129//85 115//85
f 115//86 129//86 135//86
f 129//87 150//87 135//87
f 115//88 135//88 125//88
f 89//89 105//89 94//89
f 94//90 105//90 114//90
f 105//91 125//91 114//91
f 94//92 114//92 100//92
f 35//93 50//93 39//93
f 39//94 50//94 54//94
f 50//95 65//95 54//95
f 39//96 54//96 46//96
f 46//97 54//97 62//97
f 62//98 54//98 73//98
f 54//99 65//99 73//99
f 62//100 73//100 80//100
f 65//101 81//101 73//101
f 73//102 81//102 92//102
f 81//103 100//103 92//103
f 73//104 92//104 80//104
f 46//105 62//105 52//105
f 52//106 62//106 69//106
f 62//107 80//107 69//107
f 52//108 69//108 59//108
f 15//109 27//109 19//109
f 24//110 19//110 33//110
f 19//111 27//111 33//111
f 24//112 33//112 38//112
f 27//113 42//113 33//113
f 33//114 42//114 49//114
f 42//115 59//115 49//115
f 33//116 49//116 38//116
f 24//117 38//117 32//117
f 150//118 151//118 135//118
f 135//119 151//119 139//119
f 151//120 161//120 139//120
f 135//121 139//121 125//121
f 125//122 139//122 134//122
f 134//123 139//123 152//123
f 139//124 161//124 152//124
f 134//125 152//125 140//125
f 161//126 173//126 152//126
f 152//127 173//127 166//127
f 173//128 187//128 166//128
f 152//129 166//129 140//129
f 125//130 134//130 114//130
f 114//131 134//131 120//131
f 134//132 140//132 120//132
f 114//133 120//133 100//133
f 100//134 120//134 112//134
f 112//135 120//135 133//135
f 120//136 140//136 133//136
f 112//137 133//137 118//137
f 118//138 133//138 138//138
f 138//139 133//139 153//139
f 133//140 140//140 153//140
f 138//141 153//141 169//141
f 140//142 166//142 153//142
f 153//143 166//143 175//143
f 166//144 187//144 175//144
f 153//145 175//145 169//145
f 118//146 138//146 132//146
f 132//147 138//147 154//147
f 138//148 169//148 154//148
f 132//149 154//149 137//149
f 187//150 197//150 175//150
f 175//151 197//151 191//151
f 197//152 211//152 191//152
f 175//153 191//153 169//153
f 169//154 191//154 177//154
f 177//155 191//155 201//155
f 191//156 211//156 201//156
f 177//157 201//157 192//157
f 211//158 222//158 201//158
f 201//159 222//159 213//159
f 222//160 234//160 213//160
f 201//161 213//161 192//161
f 169//162 177//162 154//162
f 154//163 177//163 170//163
f 177//164 192//164 170//164
f 154//165 170//165 137//165
f 100//166 112//166 92//166
f 92//167 112//167 98//167
f 112//168 118//168 98//168
f 92//169 98//169 80//169
f 80//170 98//170 88//170
f 88//171 98//171 110//171
f 98//172 118//172 110//172
f 88//173 110//173 97//173
f 118//174 132//174 110//174
f 110//175 132//175 117//175
f 132//176 137//176 117//176
f 110//177 117//177 97//177
f 80//178 88//178 69//178
f 69//179 88//179 78//179
f 88//180 97//180 78//180
f 69//181 78//181 59//181
f 59//182 78//182 66//182
f 66//183 78//183 86//183
f 78//184 97//184 86//184
f 66//185 86//185 75//185
f 75//186 86//186 95//186
f 95//187 86//187 108//187
f 86//188 97//188 108//188
f 95//189 108//189 116//189
f 97//190 117//190 108//190
f 108//191 117//191 131//191
f 117//192 137//192 131//192
f 108//193 131//193 116//193
f 75//194 95//194 84//194
f 84//195 95//195 107//195
f 95//196 116//196 107//196
f 107//197 116//197 130//197
f 156//198 130//198 136//198
f 130//199 116//199 136//199
f 156//200 136//200 171//200
f 116//201 131//201 136//201
f 136//202 131//202 155//202
f 131//203 137//203 155//203
f 136//204 155//204 171//204
f 156//205 171//205 180//205
f 137//206 170//206 155//206
f 155//207 170//207 179//207
f 170//208 192//208 179//208
f 155//209 179//209 171//209
f 171//210 179//210 194//210
f 194//211 179//211 203//211
f 179//212 192//212 203//212
f 194//213 203//213 216//213
f 192//214 213//214 203//214
f 203//215 213//215 226//215
f 213//216 234//216 226//216
f 203//217 226//217 216//217
f 171//218 194//218 180//218
f 180//219 194//219 205//219
f 194//220 216//220 205//220
f 234//221 246//221 226//221
f 226//222 246//222 236//222
f 246//223 257//223 236//223
f 226//224 236//224 216//224
f 216//225 236//225 229//225
f 229//226 236//226 248//226
f 236//227 257//227 248//227
f 257//228 265//228 248//228
f 216//229 229//229 205//229
f 59//230 66//230 49//230
f 49//231 66//231 57//231
f 66//232 75//232 57//232
f 49//233 57//233 38//233
f 38//234 57//234 48//234
f 48//235 57//235 64//235
f 57//236 75//236 64//236
f 75//237 84//237 64//237
f 38//238 48//238 32//238
f 150//239 157//239 151//239
f 151//240 157//240 172//240
f 157//241 174//241 172//241
f 151//242 172//242 161//242
f 161//243 172//243 182//243
f 182//244 172//244 190//244
f 172//245 174//245 190//245
f 182//246 190//246 200//246
f 174//247 193//247 190//247
f 190//248 193//248 208//248
f 193//249 212//249 208//249
f 190//250 208//250 200//250
f 161//251 182//251 173//251
f 173//252 182//252 195//252
f 182//253 200//253 195//253
f 173//254 195//254 187//254
f 187//255 195//255 209//255
f 209//256 195//256 214//256
f 195//257 200//257 214//257
f 209//258 214//258 228//258
f 228//259 214//259 232//259
f 232//260 214//260 220//260
f 214//261 200//261 220//261
f 232//262 220//262 237//262
f 200//263 208//263 220//263
f 220//264 208//264 225//264
f 208//265 212//265 225//265
f 220//266 225//266 237//266
f 228//267 232//267 245//267
f 245//268 232//268 251//268
f 232//269 237//269 251//269
f 245//270 251//270 262//270
f 212//271 230//271 225//271
f 225//272 230//272 244//272
f 230//273 247//273 244//273
f 225//274 244//274 237//274
f 237//275 244//275 255//275
f 255//276 244//276 260//276
f 244//277 247//277 260//277
f 255//278 260//278 272//278
f 247//279 263//279 260//279
f 260//280 263//280 276//280
f 263//281 279//281 276//281
f 260//282 276//282 272//282
f 237//283 255//283 251//283
f 251//284 255//284 268//284
f 255//285 272//285 268//285
f 251//286 268//286 262//286
f 187//287 209//287 197//287
f 197//288 209//288 218//288
f 209//289 228//289 218//289
f 197//290 218//290 211//290
f 211//291 218//291 231//291
f 231//292 218//292 239//292
f 218//293 228//293 239//293
f 231//294 239//294 249//294
f 228//295 245//295 239//295
f 239//296 245//296 256//296
f 245//297 262//297 256//297
f 239//298 256//298 249//298
f 211//299 231//299 222//299
f 222//300 231//300 242//300
f 231//301 249//301 242//301
f 222//302 242//302 234//302
f 234//303 242//303 253//303
f 253//304 242//304 261//304
f 242//305 249//305 261//305
f 253//306 261//306 270//306
f 270//307 261//307 277//307
f 277//308 261//308 267//308
f 261//309 249//309 267//309
f 277//310 267//310 283//310
f 249//311 256//311 267//311
f 267//312 256//312 273//312
f 256//313 262//313 273//313
f 267//314 273//314 283//314
f 270//315 277//315 286//315
f 286//316 277//316 290//316
f 277//317 283//317 290//317
f 290//318 283//318 295//318
f 298//319 295//319 288//319
f 295//320 283//320 288//320
f 298//321 288//321 291//321
f 283//322 273//322 288//322
f 288//323 273//323 278//323
f 273//324 262//324 278//324
f 288//325 278//325 291//325
f 298//326 291//326 300//326
f 262//327 268//327 278//327
f 278//328 268//328 282//328
f 268//329 272//329 282//329
f 278//330 282//330 291//330
f 291//331 282//331 294//331
f 294//332 282//332 287//332
f 282//333 272//333 287//333
f 294//334 287//334 297//334
f 272//335 276//335 287//335
f 287//336 276//336 289//336
f 276//337 279//337 289//337
f 287//338 289//338 297//338
f 291//339 294//339 300//339
f 300//340 294//340 303//340
f 294//341 297//341 303//341
f 279//342 292//342 289//342
f 289//343 292//343 299//343
f 292//344 301//344 299//344
f 289//345 299//345 297//345
f 297//346 299//346 304//346
f 304//347 299//347 305//347
f 299//348 301//348 305//348
f 301//349 306//349 305//349
f 297//350 304//350 303//350
f 234//351 253//351 246//351
f 246//352 253//352 264//352
f 253//353 270//353 264//353
f 246//354 264//354 257//354
f 257//355 264//355 275//355
f 275//356 264//356 280//356
f 264//357 270//357 280//357
f 270//358 286//358 280//358
f 257//359 275//359 265//359
f 9//360 18//360 20//360
f 20//361 18//361 31//361
f 31//362 18//362 28//362
f 31//363 28//363 43//363
f 43//364 28//364 41//364
f 43//365 41//365 55//365
f 55//366 41//366 53//366
f 55//367 53//367 70//367
f 70//368 53//368 68//368
f 70//369 68//369 85//369
f 85//370 68//370 83//370
f 85//371 83//371 102//371
f 102//372 83//372 101//372
f 102//373 101//373 121//373
f 121//374 101//374 119//374
f 121//375 119//375 142//375
f 119//376 141//376 142//376
f 20//377 31//377 34//377
f 34//378 31//378 45//378
f 31//379 43//379 45//379
f 34//380 45//380 47//380
f 47//381 45//381 60//381
f 60//382 45//382 58//382
f 45//383 43//383 58//383
f 60//384 58//384 74//384
f 43//385 55//385 58//385
f 58//386 55//386 72//386
f 55//387 70//387 72//387
f 58//388 72//388 74//388
f 47//389 60//389 63//389
f 63//390 60//390 76//390
f 60//391 74//391 76//391
f 63//392 76//392 79//392
f 79//393 76//393 93//393
f 93//394 76//394 91//394
f 76//395 74//395 91//395
f 93//396 91//396 109//396
f 109//397 91//397 106//397
f 106//398 91//398 90//398
f 91//399 74//399 90//399
f 106//400 90//400 104//400
f 74//401 72//401 90//401
f 90//402 72//402 87//402
f 72//403 70//403 87//403
f 90//404 87//404 104//404
f 109//405 106//405 126//405
f 126//406 106//406 124//406
f 106//407 104//407 124//407
f 126//408 124//408 144//408
f 70//409 85//409 87//409
f 87//410 85//410 103//410
f 85//411 102//411 103//411
f 87//412 103//412 104//412
f 104//413 103//413 123//413
f 123//414 103//414 122//414
f 103//415 102//415 122//415
f 123//416 122//416 145//416
f 102//417 121//417 122//417
f 122//418 121//418 143//418
f 121//419 142//419 143//419
f 122//420 143//420 145//420
f 104//421 123//421 124//421
f 124//422 123//422 146//422
f 123//423 145//423 146//423
f 124//424 146//424 144//424
f 79//425 93//425 96//425
f 96//426 93//426 111//426
f 93//427 109//427 111//427
f 96//428 111//428 113//428
f 113//429 111//429 128//429
f 128//430 111//430 127//430
f 111//431 109//431 127//431
f 128//432 127//432 148//432
f 109//433 126//433 127//433
f 127//434 126//434 147//434
f 126//435 144//435 147//435
f 127//436 147//436 148//436
f 113//437 128//437 129//437
f 129//438 128//438 149//438
f 128//439 148//439 149//439
f 129//440 149//440 150//440
f 168//441 189//441 188//441
f 189//442 210//442 188//442
f 141//443 168//443 167//443
f 168//444 188//444 167//444
f 141//445 167//445 142//445
f 142//446 167//446 165//446
f 165//447 167//447 186//447
f 167//448 188//448 186//448
f 165//449 186//449 185//449
f 185//450 186//450 206//450
f 206//451 186//451 207//451
f 186//452 188//452 207//452
f 206//453 207//453 224//453
f 188//454 210//454 207//454
f 207//455 210//455 227//455
f 207//456 227//456 224//456
f 185//457 206//457 204//457
f 204//458 206//458 223//458
f 206//459 224//459 223//459
f 204//460 223//460 221//460
f 221//461 223//461 240//461
f 240//462 223//462 241//462
f 223//463 224//463 241//463
f 240//464 241//464 258//464
f 258//465 241//465 259//465
f 259//466 241//466 243//466
f 241//467 224//467 243//467
f 224//468 227//468 243//468
f 258//469 259//469 274//469
f 221//470 240//470 238//470
f 238//471 240//471 254//471
f 240//472 258//472 254//472
f 238//473 254//473 252//473
f 252//474 254//474 269//474
f 269//475 254//475 271//475
f 254//476 258//476 271//476
f 269//477 271//477 284//477
f 258//478 274//478 271//478
f 271//479 274//479 285//479
f 271//480 285//480 284//480
f 252//481 269//481 266//481
f 266//482 269//482 281//482
f 269//483 284//483 281//483
f 266//484 281//484 279//484
f 285//485 296//485 284//485
f 284//486 296//486 293//486
f 293//487 296//487 302//487
f 293//488 302//488 301//488
f 302//489 306//489 301//489
f 284//490 293//490 281//490
f 281//491 293//491 292//491
f 293//492 301//492 292//492
f 281//493 292//493 279//493
f 142//494 165//494 143//494
f 143//495 165//495 164//495
f 165//496 185//496 164//496
f 143//497 164//497 145//497
f 145//498 164//498 163//498
f 163//499 164//499 184//499
f 164//500 185//500 184//500
f 163//501 184//501 183//501
f 185//502 204//502 184//502
f 184//503 204//503 202//503
f 204//504 221//504 202//504
f 184//505 202//505 183//505
f 145//506 163//506 146//506
f 146//507 163//507 162//507
f 163//508 183//508 162//508
f 146//509 162//509 144//509
f 144//510 162//510 160//510
f 160//511 162//511 181//511
f 162//512 183//512 181//512
f 160//513 181//513 178//513
f 178//514 181//514 198//514
f 198//515 181//515 199//515
f 181//516 183//516 199//516
f 198//517 199//517 217//517
f 183//518 202//518 199//518
f 199//519 202//519 219//519
f 202//520 221//520 219//520
f 199//521 219//521 217//521
f 178//522 198//522 196//522
f 196//523 198//523 215//523
f 198//524 217//524 215//524
f 196//525 215//525 212//525
f 221//526 238//526 219//526
f 219//527 238//527 235//527
f 238//528 252//528 235//528
f 219//529 235//529 217//529
f 217//530 235//530 233//530
f 233//531 235//531 250//531
f 235//532 252//532 250//532
f 233//533 250//533 247//533
f 252//534 266//534 250//534
f 250//535 266//535 263//535
f 266//536 279//536 263//536
f 250//537 263//537 247//537
f 217//538 233//538 215//538
f 215//539 233//539 230//539
f 233//540 247//540 230//540
f 215//541 230//541 212//541
f 144//542 160//542 147//542
f 147//543 160//543 159//543
f 160//544 178//544 159//544
f 147//545 159//545 148//545
f 148//546 159//546 158//546
f 158//547 159//547 176//547
f 159//548 178//548 176//548
f 158//549 176//549 174//549
f 178//550 196//550 176//550
f 176//551 196//551 193//551
f 196//552 212//552 193//552
f 176//553 193//553 174//553
f 148//554 158//554 149//554
f 149//555 158//555 157//555
f 158//556 174//556 157//556
f 149//557 157//557 150//557
